<svg width="143" height="17" viewBox="0 0 143 17" fill="none" xmlns="http://www.w3.org/2000/svg">
<path fill-rule="evenodd" clip-rule="evenodd" d="M11.5967 6.49118H5.22776V0H0V17H5.28944V10.4938H11.5967L16.223 17H22.083L15.7141 8.26014L21.5896 0H16.0996L11.5967 6.49118ZM45.2147 13.1023V0H24.4887V17H29.7782V13.1023H45.2147ZM29.7936 9.09965V4.00265H39.9407V9.09965H29.7936ZM48.4223 17H69.6572V0H48.4069V17H48.4223ZM53.7117 3.97266H64.3831V12.9674H53.6963V3.97266H53.7117ZM88.8256 17H94.0688V0H88.8102V6.49118H78.1388V0H72.8493V17H78.1388V10.4938H88.8102V17H88.8256ZM97.3072 17H118.558V0H97.2918V17H97.3072ZM102.597 3.97266H113.268V12.9674H102.581V3.97266H102.597ZM127.039 3.97266H137.711V6.32628H143V0H121.734V17H142.985V10.6587H137.695V13.0123H127.024V4.01764L127.039 3.97266Z" fill="#FF6600"/>
</svg>
