<svg width="128" height="146" viewBox="0 0 128 146" fill="none" xmlns="http://www.w3.org/2000/svg">
<g clip-path="url(#clip0)">
<path fill-rule="evenodd" clip-rule="evenodd" d="M47.7712 82.4126H80.2303C118.07 82.4126 123.728 117.035 127.022 145.963H0.988281C4.28311 117.072 9.94985 82.4126 47.7712 82.4126Z" fill="white"/>
<path d="M47.7704 81.4867H80.2296C99.9063 81.4867 111.083 90.6632 117.765 103.581C124.17 115.943 126.376 131.694 128 146.028H126.034C124.419 131.925 122.241 116.48 116.03 104.479C109.671 92.1911 99.011 83.459 80.2296 83.459H47.7704C28.989 83.459 18.3292 92.1911 11.9703 104.479C5.75903 116.517 3.58094 131.925 1.97505 146.028H0C1.63357 131.694 3.83935 115.943 10.2352 103.581C16.9172 90.6354 28.0937 81.4867 47.7704 81.4867Z" fill="#989898"/>
<path fill-rule="evenodd" clip-rule="evenodd" d="M47.7705 82.4126V70.3748C53.1142 68.7914 58.5595 65.9393 61.6143 67.4024C66.1643 65.9671 74.9044 68.7914 80.2481 70.3748V82.4126C80.2481 104.34 47.789 104.34 47.789 82.4126H47.7705Z" fill="white"/>
<path d="M46.791 82.4126V70.3748C46.8002 70.1562 46.8813 69.9469 47.0215 69.7794C47.1617 69.6119 47.3533 69.4956 47.5663 69.4488C48.9045 69.0506 50.2797 68.5228 51.6179 68.0783C55.4849 66.6986 59.0751 65.4115 61.6593 66.4023C66.2739 65.1985 74.0634 67.5413 79.4163 69.1803L80.5053 69.5044C80.7046 69.5648 80.8797 69.6869 81.0057 69.8532C81.1317 70.0195 81.2021 70.2215 81.2068 70.4304V82.4126C81.2068 90.7465 76.7306 96.1172 70.9993 98.4692C66.51 100.296 61.4878 100.296 56.9985 98.4692C51.2672 96.1542 46.791 90.802 46.791 82.4126ZM48.7568 71.1526V82.4126C48.7568 89.8205 52.6885 94.5893 57.7276 96.6542C61.7531 98.2714 66.2447 98.2714 70.2701 96.6542C75.3093 94.5893 79.2409 89.839 79.2409 82.4126V71.1897L78.8533 71.0785C73.5927 69.4951 65.8586 67.1801 61.8808 68.421C61.6495 68.5128 61.3921 68.5128 61.1609 68.421C59.3151 67.495 55.9279 68.7173 52.2732 70.0229C51.1195 70.4396 49.9474 70.8563 48.7568 71.236V71.1526Z" fill="#989898"/>
<path fill-rule="evenodd" clip-rule="evenodd" d="M64.0052 125.582C56.8525 125.582 49.7091 123.85 45.0299 120.397C44.4946 112.266 43.7009 104.146 42.3903 96.321C41.6885 91.8448 40.6645 87.4256 39.3262 83.0979C35.189 83.724 31.1787 85.012 27.4482 86.913C30.217 95.5894 31.7029 108.155 32.5981 121.999C31.5922 128.295 30.8538 139 30.4754 146.009H97.5257C97.1565 139 96.4182 128.295 95.403 121.999C96.3259 108.109 97.7749 95.5894 100.553 86.913C96.8207 85.0162 92.8111 83.7283 88.6749 83.0979C87.3375 87.4195 86.3134 91.8326 85.6108 96.3024C84.3313 104.278 83.4534 112.314 82.9804 120.378C78.3012 123.832 71.1486 125.564 64.0052 125.564V125.582Z" fill="white"/>
<path d="M64.0047 126.564C60.3132 126.581 56.6357 126.108 53.0681 125.156C49.9756 124.375 47.0533 123.029 44.448 121.184C44.3324 121.098 44.237 120.989 44.1684 120.862C44.0998 120.736 44.0598 120.596 44.0511 120.452C43.7835 116.406 43.4512 112.359 43.0267 108.349C42.6022 104.34 42.1038 100.367 41.4208 96.4691C41.0793 94.4134 40.6732 92.2373 40.1841 90.0427C39.7503 88.1074 39.2612 86.1443 38.6521 84.1998C36.8396 84.5176 35.0511 84.96 33.2991 85.5239C31.7031 86.0362 30.1429 86.6549 28.6291 87.3759C30.0347 92.2774 31.0622 97.2801 31.7024 102.34C32.5331 108.331 33.1237 114.961 33.5483 121.906C33.5613 121.995 33.5613 122.085 33.5483 122.174C33.0961 124.952 32.6992 128.656 32.367 132.592C31.9609 137.314 31.6471 142.185 31.444 145.972H29.5336C29.7366 142.102 30.0504 137.12 30.4565 132.425C30.7888 128.564 31.1948 124.823 31.6563 121.924C31.2041 115.054 30.6134 108.516 29.8105 102.618C29.1417 97.4053 28.0427 92.2576 26.5249 87.2277C26.4474 87.0027 26.4532 86.7572 26.5413 86.5362C26.6295 86.3151 26.794 86.1333 27.0048 86.024C28.8352 85.0817 30.7398 84.2919 32.6992 83.6627C34.8085 82.9786 36.9688 82.4646 39.1597 82.1256C39.3937 82.0798 39.6363 82.1214 39.8419 82.2424C40.0476 82.3635 40.2021 82.5557 40.2764 82.783C41.0055 85.0517 41.6054 87.3481 42.1222 89.6075C42.6391 91.8669 43.0452 94.08 43.3866 96.1542C44.0419 100.09 44.568 104.099 45.0017 108.136C45.4171 112.026 45.7401 115.943 45.9985 119.869C48.3271 121.425 50.9015 122.574 53.6126 123.267C60.4462 125.044 67.6185 125.044 74.4522 123.267C77.1604 122.574 79.7318 121.425 82.0571 119.869C82.3155 115.943 82.6477 112.032 83.0538 108.136C83.4876 104.099 83.9767 100.09 84.6781 96.1542C85.0196 94.08 85.4349 91.8762 85.9426 89.6075C86.4502 87.3389 87.0408 85.0517 87.7884 82.783C87.8604 82.5595 88.0099 82.3694 88.2097 82.2471C88.4095 82.1247 88.6464 82.0783 88.8774 82.1163C91.0674 82.4642 93.2273 82.9812 95.3379 83.6627C97.2973 84.2919 99.2019 85.0817 101.032 86.024C101.239 86.131 101.401 86.3075 101.49 86.5226C101.58 86.7377 101.591 86.9775 101.521 87.2C100.013 92.2484 98.929 97.415 98.282 102.645C97.4606 108.544 96.8699 115.081 96.4362 121.952C96.8976 124.851 97.2945 128.591 97.6267 132.453C98.0328 137.148 98.3466 142.129 98.5497 146H96.5931C96.39 142.213 96.0762 137.342 95.6701 132.62C95.3379 128.703 94.9318 124.952 94.4888 122.147C94.48 122.076 94.48 122.004 94.4888 121.934C94.941 114.98 95.5409 108.359 96.3346 102.368C96.9766 97.3089 98.0009 92.3066 99.3987 87.4037C97.8856 86.6811 96.3254 86.0624 94.7288 85.5517C92.9768 84.9878 91.1883 84.5454 89.3758 84.2276C88.7851 86.1721 88.2775 88.1352 87.8438 90.0705C87.3546 92.2651 86.9208 94.4412 86.6071 96.4969C85.9518 100.395 85.4349 104.368 85.0012 108.377C84.5674 112.387 84.2444 116.433 83.9767 120.48C83.9725 120.627 83.9335 120.771 83.8629 120.899C83.7923 121.028 83.6921 121.138 83.5706 121.221C80.9661 123.059 78.0475 124.402 74.9598 125.184C71.3954 126.136 67.7209 126.609 64.0324 126.591L64.0047 126.564Z" fill="#8C8C8C"/>
<path fill-rule="evenodd" clip-rule="evenodd" d="M83.0625 119.359C83.0809 119.612 83.0809 119.866 83.0625 120.119L95.4389 121.971C95.7065 117.924 96.0111 113.989 96.3618 110.229L83.9947 108.377C83.607 111.998 83.3025 115.655 83.0717 119.313L83.0625 119.359Z" fill="white"/>
<path d="M82.0752 119.72C82.0752 119.637 82.0752 119.545 82.0752 119.452V119.295C82.2045 117.443 82.3429 115.591 82.4998 113.794C82.6567 111.998 82.8228 110.211 83.0166 108.359V108.285C83.0336 108.156 83.0758 108.033 83.1409 107.921C83.2061 107.809 83.2927 107.712 83.3959 107.634C83.499 107.557 83.6165 107.501 83.7416 107.469C83.8666 107.438 83.9967 107.432 84.1241 107.451L96.5005 109.303C96.7484 109.344 96.9717 109.478 97.1257 109.677C97.2797 109.876 97.3531 110.126 97.3311 110.377C97.1466 112.229 96.9804 114.081 96.8143 116.118C96.6482 118.156 96.5097 120.072 96.3805 122.026C96.3851 122.072 96.3851 122.119 96.3805 122.165C96.3614 122.293 96.3173 122.416 96.2507 122.526C96.1842 122.637 96.0965 122.733 95.9928 122.81C95.889 122.886 95.7712 122.942 95.6461 122.972C95.521 123.003 95.3911 123.009 95.2638 122.989L82.8874 121.137C82.64 121.1 82.4163 120.969 82.2633 120.771C82.1102 120.572 82.0395 120.322 82.066 120.072C82.066 119.961 82.066 119.859 82.066 119.767L82.0752 119.72ZM84.0318 119.276L94.4978 120.859C94.6085 119.165 94.7285 117.526 94.8577 115.933C94.9869 114.34 95.1346 112.72 95.2915 111.09L84.8532 109.544C84.7056 110.982 84.5671 112.455 84.4379 113.961C84.2903 115.776 84.1549 117.547 84.0318 119.276V119.276Z" fill="#989898"/>
<path fill-rule="evenodd" clip-rule="evenodd" d="M63.996 33.4928C90.8991 33.4928 112.717 37.0949 112.717 41.5303C112.717 45.9658 90.8991 49.5772 63.996 49.5772C37.0928 49.5772 15.2842 45.9751 15.2842 41.5303C15.2842 37.0856 37.0928 33.4928 63.996 33.4928Z" fill="white"/>
<path d="M63.9958 32.5021C75.5759 32.3968 87.1469 33.1894 98.6053 34.8726C107.927 36.419 113.695 38.7525 113.695 41.5304C113.695 44.3084 107.927 46.6511 98.6053 48.1883C87.1469 49.8715 75.5759 50.664 63.9958 50.5588C52.4177 50.6515 40.8499 49.8466 29.3954 48.1512C20.0739 46.6141 14.3057 44.2714 14.3057 41.4934C14.3057 38.7154 20.0739 36.382 29.3954 34.8356C40.8518 33.165 52.4196 32.3849 63.9958 32.5021V32.5021ZM98.2915 36.8172C86.9368 35.1517 75.4707 34.3684 63.9958 34.4744C52.5239 34.3687 41.0609 35.152 29.7092 36.8172C21.4029 38.1876 16.2715 39.8637 16.2715 41.5304C16.2715 43.1972 21.4029 44.8825 29.7092 46.253C41.0609 47.9181 52.5239 48.7014 63.9958 48.5957C75.4696 48.717 86.9356 47.9493 98.2915 46.2993C106.598 44.9288 111.729 43.2435 111.729 41.5767C111.729 39.91 106.598 38.2339 98.2915 36.8635V36.8172Z" fill="#989898"/>
<path fill-rule="evenodd" clip-rule="evenodd" d="M64.0042 14.6676C78.854 14.6676 90.9074 29.0018 90.9074 45.0584C90.9074 61.115 81.6781 82.0052 64.0042 82.0052C46.3302 82.0052 37.0918 61.115 37.0918 45.0584C37.0918 29.0018 49.1452 14.6676 64.0042 14.6676Z" fill="white"/>
<path d="M64.0049 13.686C71.6467 13.686 78.5594 17.3159 83.5986 23.0014C88.9405 29.1006 91.8924 36.939 91.9049 45.0584C91.9049 54.059 89.0623 64.5689 83.4878 72.2175C78.8732 78.579 72.3482 82.9867 64.0234 82.9867C55.6987 82.9867 49.1644 78.579 44.5313 72.2268C38.9938 64.5782 36.1143 54.0682 36.1143 45.0677C36.1268 36.9482 39.0786 29.1098 44.4206 23.0107C49.4597 17.3252 56.4185 13.6953 64.0234 13.6953L64.0049 13.686ZM82.1404 24.3163C77.4611 19.029 71.0653 15.6584 64.0142 15.6584C56.9631 15.6584 50.5488 19.029 45.8695 24.3163C40.8529 30.0544 38.0847 37.4256 38.0801 45.0584C38.0801 53.6978 40.7935 63.754 46.1095 71.06C50.3919 76.94 56.3816 81.0144 64.0049 81.0144C71.6283 81.0144 77.6088 76.9493 81.8912 71.06C87.2072 63.754 89.9206 53.6978 89.9206 45.0584C89.9185 37.4268 87.1537 30.0557 82.1404 24.3163Z" fill="#989898"/>
<path fill-rule="evenodd" clip-rule="evenodd" d="M63.996 3.01874C60.8211 2.24091 58.4031 1.61124 56.4557 1.24085C51.5181 0.314861 47.8264 1.87052 45.3807 6.03745C42.8149 10.4914 39.4001 20.3161 37.1205 27.5481C23.9966 30.5575 15.2842 35.6875 15.2842 41.5304C15.2842 37.095 37.0928 33.4929 63.996 33.4929C90.8991 33.4929 112.717 37.095 112.717 41.5304C112.717 35.6875 104.014 30.5483 90.8345 27.5481C88.5549 20.3161 85.1401 10.4914 82.5282 6.03745C80.1287 1.87052 76.437 0.314861 71.4532 1.24085C69.5058 1.61124 67.097 2.24091 63.9129 3.01874H63.996Z" fill="white"/>
<path d="M63.7743 3.97249L61.6054 3.43542C59.4642 2.90761 57.7291 2.50944 56.2801 2.20386C54.3128 1.75373 52.2564 1.90203 50.3734 2.62981C48.6184 3.44669 47.1766 4.81528 46.2664 6.52821C44.8807 9.13553 43.6779 11.8367 42.667 14.6121C41.0335 18.8623 39.3907 23.7608 38.0986 27.8444C38.0438 28.0193 37.9413 28.1754 37.8026 28.2949C37.664 28.4143 37.4947 28.4924 37.3141 28.5203C30.7429 30.0204 25.3161 32.0576 21.6244 34.4374C20.0121 35.3914 18.5987 36.6491 17.4621 38.1413C20.0555 36.8357 24.1809 35.7152 29.46 34.8448C40.8948 33.1745 52.441 32.3913 63.9958 32.5021C75.5759 32.3968 87.1469 33.1894 98.6053 34.8726C103.848 35.743 107.964 36.8635 110.603 38.1691C109.467 36.6769 108.053 35.4192 106.441 34.4652C102.703 32.0761 97.2671 30.039 90.659 28.5389C90.4915 28.5002 90.3371 28.4183 90.2108 28.3014C90.0846 28.1845 89.9909 28.0365 89.9391 27.8722C88.647 23.7886 87.0042 18.8901 85.3245 14.6398C84.3136 11.8645 83.1109 9.1633 81.7251 6.55599C80.815 4.84306 79.3731 3.47447 77.6181 2.65759C75.7351 1.92981 73.6787 1.78151 71.7114 2.23164C70.2624 2.50944 68.5273 2.93539 66.3861 3.4632L64.2173 4.00027C64.0689 4.0379 63.9134 4.0379 63.765 4.00027L63.7743 3.97249ZM62.0761 1.52789L63.9958 2.0094L65.9247 1.52789C68.0935 1.00008 69.8471 0.601908 71.3607 0.277813C73.7241 -0.262661 76.1953 -0.0721881 78.4487 0.824144C80.5782 1.81292 82.3257 3.47512 83.4233 5.55593C84.8501 8.24211 86.0838 11.0272 87.115 13.8898C88.7116 18.0567 90.299 22.7422 91.5542 26.7054C98.1254 28.2426 103.552 30.326 107.41 32.7614C111.388 35.3078 113.649 38.3173 113.649 41.5119H111.683C111.683 39.8451 106.552 38.1691 98.2454 36.7987C86.8906 35.1331 75.4246 34.3499 63.9496 34.4559C52.4777 34.3502 41.0148 35.1335 29.6631 36.7987C21.3568 38.1691 16.2253 39.8451 16.2253 41.5119H14.3057C14.3057 38.2802 16.5668 35.3078 20.5446 32.7614C24.3655 30.326 29.8292 28.2426 36.4004 26.7054C37.6556 22.7422 39.243 18.0567 40.8397 13.8898C41.8708 11.0272 43.1045 8.24211 44.5313 5.55593C45.6526 3.46011 47.4344 1.79614 49.5982 0.824144C51.8377 -0.0627332 54.2913 -0.253093 56.6401 0.277813C58.1537 0.564869 59.9072 1.00008 62.0761 1.52789V1.52789Z" fill="#989898"/>
<path fill-rule="evenodd" clip-rule="evenodd" d="M44.9565 119.359C44.9381 119.612 44.9381 119.866 44.9565 120.119L32.5801 121.971C32.3217 117.924 32.0079 113.989 31.6572 110.229L44.0336 108.377C44.412 111.998 44.7166 115.655 44.9565 119.313V119.359Z" fill="white"/>
<path d="M45.9343 119.452V119.721C45.9256 119.822 45.9256 119.924 45.9343 120.026C45.956 120.276 45.8824 120.525 45.7282 120.723C45.574 120.92 45.3508 121.052 45.1037 121.091L32.7273 122.943C32.6 122.963 32.4701 122.957 32.345 122.926C32.2199 122.895 32.1021 122.84 31.9983 122.764C31.8946 122.687 31.8069 122.591 31.7404 122.48C31.6738 122.369 31.6297 122.247 31.6105 122.119C31.606 122.073 31.606 122.026 31.6105 121.98C31.4813 120.026 31.3429 118.063 31.1768 116.072C31.0106 114.081 30.8445 112.137 30.6599 110.331C30.6382 110.079 30.7129 109.827 30.8688 109.628C31.0247 109.428 31.2502 109.296 31.4998 109.257L43.8669 107.405C44.125 107.368 44.3873 107.435 44.5965 107.591C44.8057 107.747 44.9449 107.98 44.9837 108.238V108.34C45.1775 110.192 45.3436 112.044 45.5005 113.776C45.6574 115.507 45.7866 117.396 45.9158 119.276V119.452H45.9343ZM33.5025 120.859L43.9685 119.276C43.8485 117.544 43.7193 115.776 43.5624 113.961C43.4332 112.455 43.2947 110.982 43.1471 109.544L32.7088 111.118C32.875 112.748 33.0134 114.368 33.1426 115.961C33.2718 117.554 33.3918 119.193 33.5025 120.887V120.859Z" fill="#989898"/>
</g>
<defs>
<clipPath id="clip0">
<rect width="128" height="146" fill="white"/>
</clipPath>
</defs>
</svg>
