<svg width="27" height="28" viewBox="0 0 27 28" fill="none" xmlns="http://www.w3.org/2000/svg">
<path d="M4.92 3.54883H1C1 9.02675 3.32 12.0666 7.89 13.1041" stroke="#999999" stroke-linecap="round" stroke-linejoin="round"/>
<path d="M13.7499 1.05908H4.85986C4.85986 7.12837 5.72986 11.9527 10.5399 15.8329C12.4199 17.3476 12.8799 18.5096 10.4599 19.267C9.00986 19.7131 7.07986 20.3044 7.03986 21.6947V27.266H20.4999V21.6947C20.4999 20.3252 18.4999 19.7131 17.0799 19.267C14.6599 18.5096 15.0799 17.3476 16.9999 15.8329C21.7699 11.9527 22.6399 7.12837 22.6399 1.05908H13.7499Z" stroke="#999999" stroke-linecap="round" stroke-linejoin="round"/>
<path d="M17.6501 25.0043H13.7501H9.8501V21.9333H13.7501H17.6501V25.0043Z" stroke="#999999" stroke-linecap="round" stroke-linejoin="round"/>
<path d="M16.4298 10.915V12.8551H11.0698V10.915H12.7798V7.01403C12.7798 6.88953 12.7798 6.76503 12.7798 6.65091C12.7798 6.53679 12.7798 6.41229 12.7798 6.28779L11.7798 7.15928C11.7008 7.22481 11.6085 7.27092 11.5098 7.29415H11.2598C11.1894 7.27736 11.122 7.24936 11.0598 7.21115C11.005 7.18064 10.9573 7.13817 10.9198 7.08666L10.3198 5.97654L13.1098 3.54883H14.9598V10.915H16.4298Z" stroke="#999999" stroke-linecap="round" stroke-linejoin="round"/>
<path d="M22.5799 3.54883H26.4999C26.4999 9.02675 24.1799 12.0666 19.6099 13.1041" stroke="#999999" stroke-linecap="round" stroke-linejoin="round"/>
</svg>
