<svg width="33" height="28" viewBox="0 0 33 28" fill="none" xmlns="http://www.w3.org/2000/svg">
<path fill-rule="evenodd" clip-rule="evenodd" d="M0 13.1052H32.0261L16.0131 27.976L0 13.1052Z" fill="#FF6600"/>
<path fill-rule="evenodd" clip-rule="evenodd" d="M6.09766 0.810974H25.9305V15.9763H6.09766V0.810974Z" fill="#FF6600"/>
<path d="M19.2609 8.71268C19.1943 8.81607 19.1101 8.90738 19.0121 8.98261C18.9133 9.04916 18.7958 9.08349 18.6762 9.08077C18.5401 9.07707 18.4073 9.03905 18.2905 8.97034L17.8177 8.71268C17.6247 8.61702 17.4252 8.53502 17.2204 8.46729C16.9752 8.39019 16.7188 8.35289 16.4615 8.35686C16.0668 8.32301 15.6732 8.43205 15.3541 8.6636C15.2309 8.7676 15.1333 8.89785 15.0686 9.04452C15.0039 9.19118 14.9739 9.35042 14.9808 9.51021C14.977 9.6144 14.9948 9.71826 15.0334 9.81536C15.0719 9.91245 15.1302 10.0007 15.2048 10.0746C15.3686 10.237 15.563 10.3662 15.7771 10.455C16.0438 10.5747 16.3181 10.6772 16.5983 10.7617L17.5315 11.0562C17.8491 11.1713 18.1606 11.3024 18.4646 11.4488C18.7608 11.597 19.0332 11.7871 19.2734 12.0132C19.5196 12.2549 19.7142 12.5428 19.8457 12.8598C20.0076 13.2486 20.0839 13.6668 20.0697 14.0868C20.075 14.5864 19.982 15.0822 19.796 15.5469C19.6247 16.0083 19.3528 16.4272 18.9997 16.7738C18.645 17.1213 18.2214 17.3928 17.7554 17.5714C17.2027 17.7754 16.6161 17.8753 16.026 17.8658C15.6623 17.8656 15.2996 17.8286 14.9435 17.7554C14.5783 17.6849 14.2201 17.5823 13.8735 17.4487C13.5361 17.3231 13.2112 17.167 12.903 16.9824C12.6194 16.812 12.3565 16.6103 12.1191 16.3812L12.8906 15.1543C12.951 15.0592 13.0372 14.9827 13.1394 14.9334C13.2395 14.8696 13.3561 14.8355 13.4753 14.8352C13.6437 14.8401 13.8074 14.8911 13.9481 14.9825L14.4832 15.3138C14.7084 15.4344 14.9411 15.541 15.1799 15.6328C15.4753 15.7362 15.7872 15.7861 16.1006 15.78C16.4985 15.8072 16.8938 15.6989 17.2204 15.4733C17.3585 15.3479 17.466 15.1934 17.535 15.0213C17.6039 14.8492 17.6325 14.664 17.6186 14.4794C17.6286 14.2464 17.5485 14.0184 17.3946 13.8414C17.2388 13.6609 17.043 13.5182 16.8223 13.4242C16.5591 13.3132 16.289 13.2189 16.0135 13.142L15.0804 12.8721C14.7644 12.7728 14.4566 12.6497 14.1597 12.504C13.5308 12.1944 13.0361 11.6717 12.7661 11.0316C12.6166 10.6058 12.545 10.1571 12.5546 9.70652C12.5581 9.28569 12.6425 8.86933 12.8035 8.47956C12.948 8.06883 13.1719 7.68965 13.4629 7.36302C13.8244 7.0332 14.2468 6.77495 14.7071 6.6023C15.2414 6.41248 15.8065 6.32098 16.3744 6.33237C16.7158 6.33158 17.0569 6.35619 17.3946 6.40598C17.7165 6.46012 18.033 6.54224 18.3402 6.65138C18.6298 6.74644 18.9091 6.86975 19.1739 7.01947C19.4212 7.16005 19.6509 7.32891 19.8582 7.52252L19.2609 8.71268Z" fill="white"/>
<path fill-rule="evenodd" clip-rule="evenodd" d="M15.0801 4.52869H16.9588V6.95808H15.0801V4.52869Z" fill="white"/>
<path fill-rule="evenodd" clip-rule="evenodd" d="M15.0801 16.5529H16.9588V19.559H15.0801V16.5529Z" fill="white"/>
</svg>
