<svg width="22" height="22" viewBox="0 0 22 22" fill="none" xmlns="http://www.w3.org/2000/svg">
<path d="M10.9978 1C12.5654 0.999305 14.1112 1.36732 15.5104 2.07434C16.9096 2.78135 18.1229 3.80755 19.0525 5.07008C19.9821 6.33261 20.6018 7.79608 20.8617 9.34234C21.1215 10.8886 21.0142 12.4743 20.5484 13.9714C20.0826 15.4686 19.2714 16.8352 18.1802 17.9609C17.089 19.0866 15.7484 19.9399 14.2667 20.4519C12.7851 20.9639 11.2038 21.1202 9.65057 20.9082C8.09735 20.6962 6.61574 20.1219 5.32536 19.2316L1 21L2.76803 16.6737C1.7341 15.1727 1.12998 13.4177 1.02097 11.5982C0.911952 9.77876 1.30219 7.96409 2.1495 6.35038C2.99681 4.73666 4.26896 3.38527 5.82846 2.44228C7.38795 1.49929 9.17546 1.00056 10.9978 1V1Z" stroke="#999999" stroke-width="1.2" stroke-linecap="round" stroke-linejoin="round"/>
<path d="M5.89453 7.28421H16.1028" stroke="#999999" stroke-width="1.2" stroke-linecap="round" stroke-linejoin="round"/>
<path d="M5.89453 11H16.1028" stroke="#999999" stroke-width="1.2" stroke-linecap="round" stroke-linejoin="round"/>
<path d="M5.89453 14.7158H16.1028" stroke="#999999" stroke-width="1.2" stroke-linecap="round" stroke-linejoin="round"/>
</svg>
