<svg width="14" height="13" viewBox="0 0 14 13" fill="none" xmlns="http://www.w3.org/2000/svg">
<path d="M13.9595 0.24513C13.8895 0.0954646 13.7399 0 13.5757 0H0.424335C0.260098 0 0.110628 0.0954646 0.040532 0.24513C-0.0295074 0.394796 -0.00755646 0.571705 0.096937 0.699371L5.15251 6.87659V12.5725C5.15251 12.7204 5.22837 12.8578 5.35307 12.9358C5.42141 12.9785 5.49897 13 5.57682 13C5.64114 13 5.7057 12.9852 5.76521 12.9555L8.60571 11.5373C8.75004 11.4652 8.84135 11.3171 8.84157 11.1548L8.84712 6.87676L13.903 0.699314C14.0075 0.571705 14.0295 0.394739 13.9595 0.24513ZM8.09569 6.45113C8.03318 6.5275 7.99889 6.62342 7.99878 6.72248L7.99335 10.8889L6.00118 11.8836V6.72305C6.00118 6.62382 5.96696 6.52767 5.90427 6.45113L1.3241 0.85485H12.6759L8.09569 6.45113Z" fill="#999999"/>
</svg>
