<svg width="21" height="16" viewBox="0 0 21 16" fill="none" xmlns="http://www.w3.org/2000/svg">
<path d="M2.6 1H18.4C18.8243 1 19.2313 1.16857 19.5314 1.46863C19.8314 1.76869 20 2.17565 20 2.6V13.8C20 14.2243 19.8314 14.6313 19.5314 14.9314C19.2313 15.2314 18.8243 15.4 18.4 15.4H2.6C2.17565 15.4 1.76869 15.2314 1.46863 14.9314C1.16857 14.6313 1 14.2243 1 13.8V2.6C1 2.17565 1.16857 1.76869 1.46863 1.46863C1.76869 1.16857 2.17565 1 2.6 1V1Z" stroke="#999999" stroke-linecap="round" stroke-linejoin="round"/>
<path d="M19.8201 1.87L12.5001 9.18C11.9656 9.70283 11.2477 9.99559 10.5001 9.99559C9.75241 9.99559 9.03449 9.70283 8.50005 9.18L1.18005 1.87" stroke="#999999" stroke-linecap="round" stroke-linejoin="round"/>
<path d="M7.85997 8.54L1.46997 14.93L7.85997 8.54Z" stroke="#999999" stroke-linecap="round" stroke-linejoin="round"/>
<path d="M19.53 14.93L13.14 8.55" stroke="#999999" stroke-linecap="round" stroke-linejoin="round"/>
</svg>
