<svg width="22" height="29" viewBox="0 0 22 29" fill="none" xmlns="http://www.w3.org/2000/svg">
<path d="M14.6472 20.8295C14.8855 20.377 15.2391 20.0012 15.6695 19.7432C16.0998 19.4852 16.5903 19.3549 17.0872 19.3667C17.3082 19.395 17.5325 19.3708 17.7432 19.2959C17.9539 19.2211 18.1455 19.0976 18.3034 18.9347C18.4614 18.7719 18.5816 18.5739 18.655 18.3558C18.7284 18.1376 18.7531 17.905 18.7272 17.6756C18.7149 17.1611 18.8389 16.653 19.0858 16.2066C19.3326 15.7602 19.6929 15.3927 20.1272 15.1441C20.3329 15.0549 20.5162 14.9181 20.663 14.744C20.8098 14.57 20.9163 14.3634 20.9742 14.14C21.0321 13.9166 21.04 13.6825 20.9972 13.4555C20.9543 13.2285 20.862 13.0147 20.7272 12.8305C20.4671 12.3922 20.3294 11.8876 20.3294 11.3728C20.3294 10.8581 20.4671 10.3535 20.7272 9.91517C20.862 9.73007 20.9543 9.5155 20.9971 9.28779C21.04 9.06008 21.0321 8.82524 20.9743 8.60114C20.9164 8.37704 20.81 8.16959 20.6632 7.99458C20.5165 7.81956 20.3331 7.6816 20.1272 7.5912C19.6914 7.34439 19.3299 6.97726 19.0828 6.53046C18.8357 6.08366 18.7126 5.57463 18.7272 5.05973C18.7531 4.83026 18.7284 4.59767 18.655 4.37954C18.5816 4.16141 18.4614 3.96343 18.3034 3.80056C18.1455 3.63768 17.9539 3.51417 17.7432 3.43935C17.5325 3.36452 17.3082 3.34034 17.0872 3.36863C16.5911 3.38256 16.1009 3.25436 15.6704 2.99812C15.24 2.74188 14.8859 2.36752 14.6472 1.91615C14.5612 1.70273 14.4293 1.51257 14.2616 1.36024C14.0938 1.20791 13.8946 1.09747 13.6793 1.03737C13.4641 0.977276 13.2384 0.969129 13.0196 1.01355C12.8008 1.05798 12.5947 1.1538 12.4172 1.29366C11.9928 1.55794 11.5071 1.69755 11.0122 1.69755C10.5172 1.69755 10.0315 1.55794 9.60717 1.29366C9.42875 1.15379 9.22194 1.058 9.00246 1.01358C8.78298 0.969151 8.55662 0.977259 8.34062 1.03729C8.12462 1.09731 7.92466 1.20768 7.75597 1.35997C7.58728 1.51227 7.45431 1.70249 7.36717 1.91615C7.13006 2.3667 6.77776 2.74066 6.34904 2.99692C5.92032 3.25318 5.43179 3.3818 4.93717 3.36863C4.71654 3.34238 4.49304 3.36797 4.28325 3.44352C4.07345 3.51907 3.88273 3.64263 3.72522 3.80505C3.56771 3.96746 3.44745 4.16458 3.37335 4.38177C3.29925 4.59897 3.27321 4.83068 3.29717 5.05973C3.31172 5.57463 3.18864 6.08366 2.94154 6.53046C2.69444 6.97726 2.33298 7.34439 1.89717 7.5912C1.69123 7.6816 1.50788 7.81956 1.36109 7.99458C1.21429 8.16959 1.10792 8.37704 1.05006 8.60114C0.9922 8.82524 0.984384 9.06008 1.02721 9.28779C1.07003 9.5155 1.16236 9.73007 1.29717 9.91517C1.55726 10.3535 1.69498 10.8581 1.69498 11.3728C1.69498 11.8876 1.55726 12.3922 1.29717 12.8305C1.16236 13.0147 1.07 13.2285 1.02718 13.4555C0.984364 13.6825 0.992217 13.9166 1.05014 14.14C1.10806 14.3634 1.21452 14.57 1.36134 14.744C1.50817 14.9181 1.69146 15.0549 1.89717 15.1441C2.33148 15.3927 2.6917 15.7602 2.93856 16.2066C3.18543 16.653 3.30947 17.1611 3.29717 17.6756C3.27125 17.905 3.29593 18.1376 3.36934 18.3558C3.44275 18.5739 3.56297 18.7719 3.72092 18.9347C3.87887 19.0976 4.07042 19.2211 4.28112 19.2959C4.49182 19.3708 4.71615 19.395 4.93717 19.3667C5.43386 19.3561 5.92387 19.4868 6.35401 19.7447C6.78415 20.0026 7.13801 20.3778 7.37717 20.8295C7.46465 21.0415 7.59735 21.2302 7.76526 21.3813C7.93318 21.5325 8.13195 21.6421 8.34661 21.702C8.56127 21.762 8.78623 21.7706 9.00458 21.7273C9.22292 21.684 9.42895 21.5899 9.60717 21.452C10.0315 21.1877 10.5172 21.0481 11.0122 21.0481C11.5071 21.0481 11.9928 21.1877 12.4172 21.452C12.5954 21.5899 12.8014 21.684 13.0198 21.7273C13.2381 21.7706 13.4631 21.762 13.6777 21.702C13.8924 21.6421 14.0912 21.5325 14.2591 21.3813C14.427 21.2302 14.5597 21.0415 14.6472 20.8295V20.8295Z" stroke="#999999" stroke-linecap="round" stroke-linejoin="round"/>
<path d="M11.007 5.07031C12.2075 5.07031 13.3811 5.43966 14.3793 6.13164C15.3775 6.82362 16.1555 7.80716 16.615 8.95789C17.0744 10.1086 17.1946 11.3748 16.9604 12.5964C16.7262 13.818 16.1481 14.9402 15.2992 15.8209C14.4502 16.7016 13.3687 17.3014 12.1912 17.5444C11.0137 17.7874 9.79327 17.6627 8.68412 17.186C7.57498 16.7094 6.62697 15.9022 5.95999 14.8666C5.29301 13.831 4.93701 12.6134 4.93701 11.3679C4.93701 9.69764 5.57653 8.09584 6.71487 6.91482C7.85322 5.7338 9.39715 5.07031 11.007 5.07031V5.07031Z" stroke="#999999" stroke-linecap="round" stroke-linejoin="round"/>
<path d="M12.2573 9.52071L11.0073 6.90625L9.76729 9.52071L6.96729 9.94608L8.98728 11.9899L8.51729 14.8741L11.0073 13.515L13.5073 14.8741L13.0373 11.9899L15.0473 9.94608L12.2573 9.52071Z" stroke="#999999" stroke-linecap="round" stroke-linejoin="round"/>
<path d="M9.81732 21.3379L6.44732 28.1438L4.97732 24.7512L1.50732 25.4982L4.50732 19.3356C4.64712 19.3466 4.78753 19.3466 4.92732 19.3356C5.42402 19.325 5.91402 19.4557 6.34417 19.7136C6.77431 19.9715 7.12816 20.3466 7.36732 20.7984C7.45481 21.0104 7.5875 21.1991 7.75542 21.3502C7.92334 21.5014 8.1221 21.611 8.33676 21.6709C8.55143 21.7309 8.77639 21.7395 8.99473 21.6962C9.21307 21.6529 9.41911 21.5588 9.59732 21.4209L9.80732 21.3068L9.81732 21.3379Z" stroke="#999999" stroke-linecap="round" stroke-linejoin="round"/>
<path d="M12.207 21.338L15.577 28.1439L17.037 24.7514L20.547 25.4984L17.507 19.3357C17.3706 19.3472 17.2335 19.3472 17.097 19.3357C16.6001 19.3239 16.1097 19.4542 15.6793 19.7122C15.249 19.9702 14.8953 20.346 14.657 20.7985C14.5695 21.0106 14.4369 21.1992 14.2689 21.3504C14.101 21.5015 13.9023 21.6111 13.6876 21.6711C13.4729 21.731 13.248 21.7396 13.0296 21.6963C12.8113 21.653 12.6052 21.5589 12.427 21.421L12.217 21.3069L12.207 21.338Z" stroke="#999999" stroke-linecap="round" stroke-linejoin="round"/>
</svg>
