<svg width="26" height="26" viewBox="0 0 26 26" fill="none" xmlns="http://www.w3.org/2000/svg">
<g clip-path="url(#clip0)">
<path d="M11.7197 18.3137C9.70411 18.1035 7.88674 17.6071 6.33079 16.3902C6.13772 16.2388 5.9384 16.0928 5.76221 15.9237C5.08118 15.2696 5.01256 14.5205 5.55145 13.7485C6.01246 13.0879 6.78636 12.9112 7.59075 13.2905C7.7465 13.364 7.89491 13.4558 8.03705 13.5544C10.9368 15.5468 14.9204 15.6018 17.8311 13.644C18.1194 13.4229 18.4277 13.2426 18.785 13.1505C19.4796 12.9722 20.1274 13.2273 20.5002 13.8351C20.9261 14.5292 20.9206 15.2067 20.3959 15.7456C19.591 16.5718 18.6229 17.1695 17.5473 17.5867C16.5303 17.981 15.4163 18.1795 14.3137 18.3113C14.4801 18.4924 14.5585 18.5814 14.6625 18.686C16.1597 20.1902 17.6633 21.6881 19.1556 23.197C19.664 23.7111 19.7702 24.3486 19.4902 24.9465C19.1842 25.6001 18.499 26.03 17.8273 25.984C17.4016 25.9546 17.0697 25.7428 16.7748 25.4457C15.645 24.3088 14.494 23.1929 13.387 22.0345C13.0649 21.6977 12.91 21.7614 12.6257 22.0538C11.4891 23.2239 10.334 24.3761 9.17202 25.5217C8.65029 26.036 8.02943 26.1286 7.42437 25.8348C6.78118 25.523 6.37191 24.8665 6.40349 24.2067C6.42528 23.7604 6.64476 23.4195 6.9511 23.1137C8.43271 21.6342 9.91024 20.151 11.3883 18.6691C11.4861 18.5705 11.5773 18.4659 11.7197 18.3137Z" fill="#DCDCDC"/>
<path d="M12.9473 13.1603C9.3515 13.148 6.40297 10.1671 6.42394 6.56558C6.44463 2.92431 9.39506 -0.0100494 13.0263 2.5868e-05C16.6648 0.00982887 19.5853 2.9864 19.567 6.66552C19.5485 10.2597 16.5796 13.1728 12.9473 13.1603ZM16.2152 6.5743C16.209 4.78607 14.7848 3.36245 13.0001 3.36082C11.2004 3.35891 9.76349 4.8084 9.77738 6.61296C9.79072 8.39439 11.2271 9.80793 13.0167 9.80139C14.8009 9.79513 16.2212 8.36226 16.2152 6.5743Z" fill="#DCDCDC"/>
</g>
<defs>
<clipPath id="clip0">
<rect width="26" height="26" fill="white"/>
</clipPath>
</defs>
</svg>
