<svg width="28" height="28" viewBox="0 0 28 28" fill="none" xmlns="http://www.w3.org/2000/svg">
<path d="M9.1145 27H26.9998" stroke="#999999" stroke-linecap="round" stroke-linejoin="round"/>
<path d="M24.4136 12.4971H26.9999" stroke="#999999" stroke-linecap="round" stroke-linejoin="round"/>
<path d="M19.5833 17.3269H27.0001" stroke="#999999" stroke-linecap="round" stroke-linejoin="round"/>
<path d="M14.7385 22.1702H26.9996" stroke="#999999" stroke-linecap="round" stroke-linejoin="round"/>
<path d="M16.2444 8.06396L19.9391 11.7581L8.52651 23.1689L4.84546 19.4748L16.2444 8.06396Z" stroke="#999999" stroke-linejoin="round"/>
<path d="M1 27L8.52632 23.169L4.84526 19.4749L1 27Z" stroke="#999999" stroke-linejoin="round"/>
<path d="M26.2339 1.77033C26.7235 2.26035 26.9986 2.92471 26.9986 3.61741C26.9986 4.31011 26.7235 4.97446 26.2339 5.46448L19.9391 11.7582L16.2444 8.06407L22.5391 1.77033C22.7809 1.52627 23.0686 1.33252 23.3857 1.2003C23.7028 1.06808 24.0429 1 24.3865 1C24.73 1 25.0702 1.06808 25.3873 1.2003C25.7044 1.33252 25.9921 1.52627 26.2339 1.77033V1.77033Z" stroke="#999999" stroke-linejoin="round"/>
<path d="M12.3438 8.06408L19.4048 1.00415" stroke="#999999" stroke-linecap="round" stroke-linejoin="round"/>
</svg>
