<svg width="18" height="18" viewBox="0 0 18 18" fill="none" xmlns="http://www.w3.org/2000/svg">
<path d="M16.6673 15.2161C16.3397 15.7951 15.8171 16.2393 15.1924 16.4699C14.5583 16.7898 13.8628 16.9706 13.1529 17C12.9724 16.9975 12.7922 16.9835 12.6135 16.9579L12.1416 16.8822C11.9679 16.8433 11.7963 16.7956 11.6275 16.7391L11.1639 16.5793L10.692 16.3942L10.22 16.2174C8.32278 15.4738 6.6113 14.3251 5.20548 12.8516C3.73009 11.451 2.57948 9.74504 1.83435 7.85342L1.65737 7.3822L1.42139 6.85209C1.42139 6.75953 1.33711 6.60807 1.26969 6.38929C1.21316 6.22076 1.16534 6.04944 1.12642 5.87601C1.12642 5.74698 1.10113 5.58711 1.05057 5.39638C1.0218 5.22101 1.00491 5.0439 1 4.86626C1.02948 4.15745 1.21052 3.46314 1.53095 2.82995C1.76187 2.20624 2.20682 1.68448 2.7867 1.35741C3.28427 1.14028 3.81978 1.02305 4.3627 1.01241C4.44616 0.995862 4.53207 0.995862 4.61553 1.01241C4.6661 1.01241 4.75038 1.10497 4.86837 1.29009C4.98636 1.45838 5.1212 1.66875 5.26448 1.92118C5.40775 2.17362 5.54259 2.42605 5.67744 2.66166L6.06512 3.37689L6.3011 3.82286L6.47808 4.15103C6.56766 4.27309 6.64661 4.40259 6.71406 4.5381C6.76124 4.64126 6.78703 4.75289 6.78991 4.86626C6.76036 5.08891 6.64927 5.29275 6.47808 5.43845C6.2651 5.66504 6.03086 5.87074 5.77857 6.05271C5.52774 6.23669 5.2911 6.43921 5.07064 6.65856C4.9178 6.79316 4.819 6.9785 4.79252 7.18026C4.77548 7.26637 4.77548 7.35499 4.79252 7.44111C4.82018 7.52209 4.85399 7.60086 4.89365 7.67671C4.93525 7.7696 4.98311 7.85956 5.03692 7.94598L5.20548 8.16475C5.73688 9.13982 6.40366 10.035 7.18602 10.8237C7.976 11.6049 8.8726 12.2706 9.84921 12.8012L10.0683 12.9358C10.1549 12.9895 10.245 13.0373 10.338 13.0788L10.574 13.1798C10.6563 13.2167 10.7451 13.2367 10.8353 13.2387C11.0038 13.2387 11.2314 13.062 11.5263 12.7254C11.8213 12.3888 12.1163 12.0354 12.4197 11.6989C12.7231 11.3623 12.9591 11.194 13.1529 11.194C13.2665 11.1969 13.3783 11.2226 13.4816 11.2697C13.6191 11.3338 13.7491 11.4129 13.8693 11.5053L14.1643 11.7073L15.007 12.1617C15.5548 12.4477 16.0184 12.7086 16.3892 12.9358C16.76 13.163 16.9623 13.306 16.9876 13.3902C17.0041 13.4735 17.0041 13.5593 16.9876 13.6426C16.9769 14.1847 16.8595 14.7193 16.642 15.2161H16.6673Z" stroke="#FF6600" stroke-linecap="round" stroke-linejoin="round"/>
<path d="M9.00644 1.01245C10.0552 1.01466 11.0933 1.22324 12.0614 1.62626C13.0294 2.02928 13.9084 2.61885 14.648 3.36125C15.3877 4.10366 15.9735 4.98434 16.3721 5.95295C16.7706 6.92155 16.9741 7.95909 16.9707 9.00624" stroke="#FF6600" stroke-linecap="round" stroke-linejoin="round"/>
<path d="M9.00644 6.70898C9.30598 6.71118 9.60214 6.77241 9.87793 6.88915C10.1537 7.00589 10.4037 7.17584 10.6136 7.38927C10.8234 7.60269 10.989 7.85539 11.1008 8.13285C11.2126 8.41031 11.2684 8.70709 11.2651 9.00615" stroke="#FF6600" stroke-linecap="round" stroke-linejoin="round"/>
<path d="M9.00644 3.86499C9.68006 3.86719 10.3466 4.00199 10.968 4.26166C11.5894 4.52133 12.1534 4.90078 12.6278 5.37831C13.1022 5.85583 13.4776 6.42205 13.7325 7.04457C13.9875 7.6671 14.117 8.33371 14.1137 9.00626" stroke="#FF6600" stroke-linecap="round" stroke-linejoin="round"/>
</svg>
