<svg width="22" height="22" viewBox="0 0 22 22" fill="none" xmlns="http://www.w3.org/2000/svg">
<path d="M20.5841 18.7702C20.1747 19.4939 19.5214 20.0492 18.7406 20.3374C17.9478 20.7373 17.0786 20.9632 16.1911 21C15.9655 20.9969 15.7403 20.9793 15.5169 20.9474L14.927 20.8527C14.7098 20.8042 14.4953 20.7445 14.2843 20.6739L13.7049 20.4741L13.115 20.2427L12.525 20.0218C10.1535 19.0923 8.01413 17.6564 6.25685 15.8146C4.41262 14.0637 2.97435 11.9313 2.04294 9.56677L1.82171 8.97775L1.52674 8.31511C1.52674 8.19941 1.42139 8.01009 1.33711 7.73661C1.26646 7.52595 1.20668 7.3118 1.15802 7.09501C1.15802 6.93373 1.12642 6.73388 1.06321 6.49547C1.02725 6.27626 1.00613 6.05488 1 5.83283C1.03685 4.94681 1.26315 4.07892 1.66369 3.28744C1.95234 2.5078 2.50852 1.8556 3.23337 1.44676C3.85534 1.17535 4.52473 1.02882 5.20337 1.01552C5.3077 0.994828 5.41509 0.994828 5.51942 1.01552C5.58263 1.01552 5.68797 1.13122 5.83546 1.36261C5.98295 1.57298 6.1515 1.83593 6.33059 2.15148C6.50968 2.46702 6.67824 2.78257 6.8468 3.07707L7.3314 3.97112L7.62637 4.52858L7.8476 4.93879C7.95958 5.09136 8.05826 5.25323 8.14257 5.42262C8.20154 5.55158 8.23379 5.69111 8.23739 5.83283C8.20044 6.11114 8.06159 6.36593 7.8476 6.54806C7.58138 6.83131 7.28858 7.08842 6.97321 7.31589C6.65968 7.54586 6.36387 7.79901 6.08829 8.07319C5.89725 8.24145 5.77374 8.47313 5.74065 8.72532C5.71935 8.83297 5.71935 8.94373 5.74065 9.05138C5.77523 9.15262 5.81749 9.25107 5.86706 9.34589C5.91906 9.462 5.97889 9.57446 6.04616 9.68247L6.25685 9.95594C6.92111 11.1748 7.75457 12.2938 8.73252 13.2797C9.72 14.2561 10.8407 15.0882 12.0615 15.7514L12.3354 15.9197C12.4436 15.9869 12.5562 16.0466 12.6725 16.0985L12.9675 16.2248C13.0703 16.2709 13.1814 16.2959 13.2941 16.2984C13.5048 16.2984 13.7892 16.0775 14.1579 15.6568C14.5266 15.2361 14.8954 14.7943 15.2746 14.3736C15.6539 13.9528 15.9488 13.7425 16.1911 13.7425C16.3331 13.7461 16.4728 13.7783 16.602 13.8371C16.7738 13.9173 16.9363 14.0161 17.0866 14.1316L17.4553 14.3841L18.5088 14.9521C19.1935 15.3097 19.773 15.6357 20.2365 15.9197C20.7 16.2037 20.9529 16.3825 20.9845 16.4877C21.0052 16.5919 21.0052 16.6991 20.9845 16.8033C20.9711 17.4808 20.8244 18.1492 20.5525 18.7702H20.5841Z" stroke="#FF6600" stroke-linecap="round" stroke-linejoin="round"/>
<path d="M11.0078 1.0155C12.3188 1.01826 13.6164 1.27898 14.8265 1.78276C16.0365 2.28654 17.1352 3.0235 18.0598 3.95151C18.9844 4.87951 19.7167 5.98036 20.2149 7.19112C20.713 8.40188 20.9673 9.6988 20.9632 11.0077" stroke="#FF6600" stroke-linecap="round" stroke-linejoin="round"/>
<path d="M11.0078 8.13635C11.3822 8.1391 11.7524 8.21563 12.0972 8.36155C12.4419 8.50748 12.7544 8.71993 13.0167 8.98671C13.279 9.25349 13.486 9.56936 13.6257 9.91619C13.7655 10.263 13.8353 10.634 13.8311 11.0078" stroke="#FF6600" stroke-linecap="round" stroke-linejoin="round"/>
<path d="M11.0078 4.58118C11.8498 4.58393 12.6831 4.75242 13.4598 5.07701C14.2365 5.4016 14.9416 5.87592 15.5345 6.47282C16.1275 7.06972 16.5967 7.7775 16.9154 8.55566C17.2341 9.33381 17.396 10.1671 17.3919 11.0078" stroke="#FF6600" stroke-linecap="round" stroke-linejoin="round"/>
</svg>
