<svg width="21" height="19" viewBox="0 0 21 19" fill="none" xmlns="http://www.w3.org/2000/svg">
<path fill-rule="evenodd" clip-rule="evenodd" d="M0 9.24902H21L10.5 19L0 9.24902Z" fill="#FF6600"/>
<path fill-rule="evenodd" clip-rule="evenodd" d="M3.99756 1.1875H17.0022V11.1316H3.99756V1.1875Z" fill="#FF6600"/>
<path d="M12.6293 6.36868C12.5856 6.43647 12.5304 6.49635 12.4661 6.54568C12.4013 6.58931 12.3243 6.61182 12.2458 6.61004C12.1566 6.60761 12.0696 6.58268 11.9929 6.53763L11.6829 6.36868C11.5564 6.30595 11.4255 6.25218 11.2913 6.20777C11.1305 6.15721 10.9624 6.13276 10.7936 6.13536C10.5348 6.11316 10.2767 6.18466 10.0675 6.3365C9.98671 6.40469 9.9227 6.49009 9.88029 6.58627C9.83789 6.68244 9.81821 6.78685 9.82275 6.89163C9.8202 6.95995 9.83192 7.02805 9.85718 7.09172C9.88245 7.15538 9.92071 7.21324 9.9696 7.26172C10.077 7.36821 10.2045 7.45294 10.3449 7.51112C10.5197 7.58965 10.6996 7.65684 10.8834 7.71226L11.4952 7.90535C11.7035 7.98085 11.9077 8.06678 12.1071 8.1628C12.3013 8.25994 12.48 8.38463 12.6374 8.53289C12.7989 8.69135 12.9265 8.88011 13.0127 9.08802C13.1189 9.34293 13.1689 9.61715 13.1596 9.89256C13.1631 10.2201 13.1021 10.5453 12.9801 10.85C12.8678 11.1525 12.6895 11.4272 12.4579 11.6545C12.2254 11.8823 11.9476 12.0603 11.6421 12.1775C11.2797 12.3112 10.895 12.3767 10.5081 12.3705C10.2696 12.3704 10.0317 12.3461 9.79827 12.2981C9.55876 12.2519 9.32394 12.1846 9.09664 12.097C8.87541 12.0147 8.66238 11.9123 8.46028 11.7913C8.27434 11.6795 8.10191 11.5472 7.94629 11.397L8.45212 10.5925C8.49174 10.5302 8.54826 10.48 8.61529 10.4477C8.68094 10.4059 8.7574 10.3835 8.83557 10.3833C8.94599 10.3865 9.05333 10.42 9.14559 10.4799L9.49641 10.6971C9.64409 10.7762 9.79668 10.8461 9.95328 10.9063C10.147 10.9741 10.3515 11.0068 10.557 11.0028C10.8179 11.0206 11.0771 10.9496 11.2913 10.8017C11.3818 10.7195 11.4523 10.6182 11.4975 10.5053C11.5427 10.3925 11.5615 10.271 11.5523 10.15C11.5589 9.99725 11.5064 9.84772 11.4055 9.73165C11.3033 9.6133 11.1749 9.51971 11.0302 9.45811C10.8576 9.38529 10.6805 9.32348 10.4999 9.27306L9.88801 9.09606C9.68081 9.03096 9.47897 8.95027 9.28428 8.8547C8.87192 8.65166 8.54754 8.30892 8.37053 7.88926C8.27246 7.61001 8.2255 7.3158 8.23184 7.02035C8.23411 6.74441 8.28948 6.47139 8.39501 6.21581C8.48978 5.9465 8.63663 5.69786 8.82741 5.48368C9.06445 5.26742 9.34142 5.09808 9.64326 4.98487C9.99362 4.8604 10.3642 4.80041 10.7365 4.80787C10.9604 4.80736 11.184 4.82349 11.4055 4.85614C11.6166 4.89164 11.8241 4.94549 12.0255 5.01705C12.2154 5.07939 12.3985 5.16024 12.5722 5.25841C12.7344 5.3506 12.885 5.46132 13.0209 5.58827L12.6293 6.36868Z" fill="white"/>
<path fill-rule="evenodd" clip-rule="evenodd" d="M9.88818 3.62524H11.1201V5.21823H9.88818V3.62524Z" fill="white"/>
<path fill-rule="evenodd" clip-rule="evenodd" d="M9.88818 11.5098H11.1201V13.4809H9.88818V11.5098Z" fill="white"/>
</svg>
