<svg width="22" height="22" viewBox="0 0 22 22" fill="none" xmlns="http://www.w3.org/2000/svg">
<path d="M8.48422 1.00001C9.96445 1.00001 11.4114 1.43895 12.6422 2.26132C13.873 3.0837 14.8323 4.25257 15.3987 5.62013C15.9652 6.98769 16.1134 8.49252 15.8246 9.94431C15.5358 11.3961 14.823 12.7297 13.7764 13.7764C12.7297 14.823 11.3961 15.5358 9.94431 15.8246C8.49252 16.1134 6.98769 15.9652 5.62013 15.3987C4.25257 14.8323 3.0837 13.873 2.26132 12.6422C1.43895 11.4114 1.00001 9.96445 1.00001 8.48422C0.998622 7.50099 1.19126 6.52715 1.56689 5.61849C1.94251 4.70984 2.49374 3.88424 3.18899 3.18899C3.88424 2.49374 4.70984 1.94251 5.61849 1.56689C6.52715 1.19126 7.50099 0.998622 8.48422 1.00001V1.00001Z" stroke="#999999" stroke-width="1.2" stroke-linecap="round" stroke-linejoin="round"/>
<path d="M20.9992 21L13.7676 13.7684" stroke="#999999" stroke-width="1.2" stroke-linecap="round" stroke-linejoin="round"/>
</svg>
