<svg width="62" height="62" viewBox="0 0 62 62" fill="none" xmlns="http://www.w3.org/2000/svg">
<path d="M31 1C36.9334 1 42.7336 2.75947 47.6671 6.05591C52.6006 9.35235 56.4457 14.0377 58.7164 19.5195C60.987 25.0013 61.5811 31.0333 60.4235 36.8527C59.266 42.6721 56.4088 48.0176 52.2132 52.2132C48.0176 56.4088 42.6721 59.266 36.8527 60.4235C31.0333 61.5811 25.0013 60.987 19.5195 58.7164C14.0377 56.4457 9.35235 52.6006 6.05591 47.6671C2.75947 42.7336 1 36.9334 1 31C1 23.0435 4.1607 15.4129 9.78679 9.78679C15.4129 4.1607 23.0435 1 31 1V1Z" stroke="#FF6600" stroke-width="1.2" stroke-linecap="round" stroke-linejoin="round"/>
<path d="M24.1914 15.9705L45.4614 31.0005L24.1914 46.0605V15.9705Z" stroke="#FF6600" stroke-width="1.2" stroke-linecap="round" stroke-linejoin="round"/>
</svg>
