<svg width="26" height="27" viewBox="0 0 26 27" fill="none" xmlns="http://www.w3.org/2000/svg">
<path d="M13 0.0695801C5.82054 0.0695801 0 5.88986 0 13.0696C0 20.2493 5.82054 26.0696 13 26.0696C20.1795 26.0696 26 20.2493 26 13.0696C26 5.88986 20.1795 0.0695801 13 0.0695801ZM19.5943 14.4756C20.2002 15.0674 20.8412 15.6244 21.3852 16.2774C21.6261 16.5662 21.8533 16.8649 22.0262 17.2009C22.273 17.6799 22.0501 18.2052 21.6214 18.2337L18.9581 18.2331C18.2702 18.2901 17.7228 18.0126 17.2613 17.5424C16.893 17.1676 16.5512 16.7673 16.1963 16.3798C16.0514 16.2207 15.8987 16.071 15.7168 15.9531C15.3537 15.7169 15.0382 15.7893 14.8302 16.1686C14.6183 16.5545 14.5698 16.9822 14.5496 17.4118C14.5206 18.0398 14.3313 18.2039 13.7011 18.2334C12.3547 18.2964 11.0772 18.0922 9.88984 17.4134C8.84239 16.8146 8.03167 15.9696 7.32522 15.0129C5.94954 13.1478 4.89598 11.1008 3.94934 8.99496C3.73629 8.52071 3.89215 8.26696 4.41535 8.25712C5.28458 8.24036 6.15382 8.24249 7.02306 8.25632C7.37682 8.26191 7.61089 8.46432 7.7468 8.79813C8.21653 9.95384 8.79239 11.0534 9.51401 12.0732C9.70631 12.3448 9.90261 12.6155 10.1822 12.8073C10.4907 13.019 10.7258 12.9491 10.8713 12.6046C10.9644 12.3857 11.0046 12.1517 11.0248 11.9171C11.094 11.1135 11.1022 10.3103 10.9825 9.50991C10.908 9.00906 10.6264 8.68562 10.1271 8.59093C9.87282 8.54279 9.91006 8.44863 10.0337 8.3034C10.2484 8.05231 10.4495 7.89698 10.8514 7.89698L13.8605 7.89644C14.3347 7.98954 14.4411 8.20233 14.5055 8.68004L14.5081 12.024C14.5025 12.2089 14.601 12.7568 14.9329 12.8778C15.1989 12.9656 15.3744 12.7523 15.5335 12.5839C16.2551 11.8181 16.7693 10.9143 17.2297 9.97884C17.4329 9.5663 17.6082 9.13939 17.7784 8.71169C17.905 8.39543 18.1019 8.23983 18.4588 8.24515L21.3564 8.24861C21.4418 8.24861 21.5285 8.24941 21.6131 8.26404C22.1015 8.34755 22.2353 8.55768 22.0842 9.03406C21.8464 9.78254 21.3844 10.406 20.9327 11.0311C20.4486 11.7003 19.9324 12.3461 19.4531 13.0182C19.0126 13.6327 19.0474 13.942 19.5943 14.4756Z" fill="#999999"/>
</svg>
