<svg width="26" height="27" viewBox="0 0 26 27" fill="none" xmlns="http://www.w3.org/2000/svg">
<path d="M12.999 15.5071C14.3423 15.5071 15.4375 14.4139 15.4375 13.0696C15.4375 12.5389 15.2639 12.049 14.9765 11.6488C14.5336 11.0347 13.8136 10.6321 13.0005 10.6321C12.1868 10.6321 11.4674 11.0342 11.0235 11.6483C10.7351 12.0485 10.563 12.5384 10.5625 13.0691C10.561 14.4134 11.6552 15.5071 12.999 15.5071Z" fill="#999999"/>
<path d="M18.6875 9.81146V7.69679V7.38208L18.3703 7.3831L16.25 7.38969L16.2581 9.81958L18.6875 9.81146Z" fill="#999999"/>
<path d="M13 0.0695801C5.83183 0.0695801 0 5.90141 0 13.0696C0 20.2372 5.83183 26.0696 13 26.0696C20.1676 26.0696 26 20.2372 26 13.0696C26 5.90141 20.1687 0.0695801 13 0.0695801ZM20.3933 11.5526V17.6059C20.3933 19.1826 19.1115 20.464 17.5358 20.464H8.46419C6.88802 20.464 5.60666 19.1826 5.60666 17.6059V11.5526V8.5343C5.60666 6.95813 6.88802 5.67677 8.46419 5.67677H17.5353C19.1115 5.67677 20.3933 6.95813 20.3933 8.5343V11.5526Z" fill="#999999"/>
<path d="M16.8648 12.9297C16.8648 15.1121 15.1317 16.889 13.0008 16.889C10.8698 16.889 9.1372 15.1121 9.1372 12.9297C9.1372 12.4048 9.23927 11.9029 9.42139 11.4446H7.3125V17.3709C7.3125 18.1368 7.9194 18.7571 8.66639 18.7571H17.3336C18.0796 18.7571 18.6875 18.1368 18.6875 17.3709V11.4446H16.5776C16.7612 11.9029 16.8648 12.4048 16.8648 12.9297Z" fill="#999999"/>
</svg>
