<svg width="18" height="18" viewBox="0 0 18 18" fill="none" xmlns="http://www.w3.org/2000/svg">
<path d="M6.92509 1C8.09695 1 9.24249 1.35042 10.2168 2.00693C11.1912 2.66345 11.9506 3.59659 12.3991 4.68834C12.8475 5.78009 12.9649 6.98142 12.7362 8.14041C12.5076 9.29941 11.9433 10.364 11.1147 11.1996C10.2861 12.0352 9.23034 12.6042 8.08101 12.8348C6.93167 13.0653 5.74035 12.947 4.6577 12.4948C3.57504 12.0426 2.64968 11.2768 1.99864 10.2942C1.34759 9.31166 1.00009 8.15649 1.00009 6.97479C1.00009 5.39018 1.62433 3.87047 2.73549 2.74998C3.84664 1.62949 5.35369 1 6.92509 1V1Z" stroke="white" stroke-linecap="round" stroke-linejoin="round"/>
<path d="M17 17.0002L11.275 11.2271" stroke="white" stroke-linecap="round" stroke-linejoin="round"/>
<path d="M10.7524 6.81836H3.25047" stroke="white" stroke-linecap="round" stroke-linejoin="round"/>
<path d="M7.00146 3.18164V10.4544" stroke="white" stroke-linecap="round" stroke-linejoin="round"/>
</svg>
