<svg width="22" height="18" viewBox="0 0 22 18" fill="none" xmlns="http://www.w3.org/2000/svg">
<path d="M2.68421 1H19.3158C19.7625 1 20.1909 1.1873 20.5067 1.5207C20.8226 1.8541 21 2.30628 21 2.77778V15.2222C21 15.6937 20.8226 16.1459 20.5067 16.4793C20.1909 16.8127 19.7625 17 19.3158 17H2.68421C2.23753 17 1.80914 16.8127 1.49329 16.4793C1.17744 16.1459 1 15.6937 1 15.2222V2.77778C1 2.30628 1.17744 1.8541 1.49329 1.5207C1.80914 1.1873 2.23753 1 2.68421 1V1Z" stroke="#FF6600" stroke-linecap="round" stroke-linejoin="round"/>
<path d="M20.8105 1.96667L13.1052 10.0889C12.5427 10.6698 11.787 10.9951 11 10.9951C10.213 10.9951 9.45728 10.6698 8.89472 10.0889L1.18945 1.96667" stroke="#FF6600" stroke-linecap="round" stroke-linejoin="round"/>
<path d="M8.22046 9.37781L1.49414 16.4778L8.22046 9.37781Z" stroke="#FF6600" stroke-linecap="round" stroke-linejoin="round"/>
<path d="M20.5056 16.4778L13.7793 9.38892" stroke="#FF6600" stroke-linecap="round" stroke-linejoin="round"/>
</svg>
