<svg width="27" height="23" viewBox="0 0 27 23" fill="none" xmlns="http://www.w3.org/2000/svg">
<path d="M25 11.1006V21.0605C24.9974 21.4201 24.8585 21.7642 24.6134 22.0185C24.3683 22.2728 24.0366 22.4168 23.69 22.4196H3.56C3.21257 22.4196 2.87936 22.2764 2.63369 22.0215C2.38802 21.7666 2.25 21.4209 2.25 21.0605V11.1006" stroke="#999999" stroke-linecap="round" stroke-linejoin="round"/>
<path d="M11.58 13.4245L2.31 11.1006C1.62 10.8827 1 10.447 1 9.69997V5.55003C1.0104 5.19681 1.153 4.86169 1.39755 4.61571C1.6421 4.36974 1.96939 4.23226 2.31 4.23242H24.93C25.2774 4.23242 25.6106 4.37561 25.8563 4.6305C26.102 4.88538 26.24 5.23107 26.24 5.59153V9.74147C26.24 10.4885 25.63 10.9242 24.93 11.1006L15.66 13.466" stroke="#999999" stroke-linecap="round" stroke-linejoin="round"/>
<path d="M12.2801 9.93848H14.9601C15.1457 9.93848 15.3238 10.015 15.4551 10.1512C15.5863 10.2874 15.6601 10.4721 15.6601 10.6647V15.7484C15.6601 15.8433 15.6419 15.9372 15.6066 16.0248C15.5713 16.1123 15.5196 16.1917 15.4545 16.2583C15.3893 16.3249 15.3121 16.3774 15.2272 16.4128C15.1423 16.4481 15.0515 16.4656 14.9601 16.4643H12.2801C12.0961 16.4643 11.9196 16.3892 11.7886 16.2552C11.6576 16.1213 11.5827 15.9392 11.5801 15.7484V10.6647C11.5827 10.4729 11.6572 10.2898 11.788 10.1542C11.9187 10.0185 12.0952 9.94116 12.2801 9.93848V9.93848Z" stroke="#999999" stroke-linecap="round" stroke-linejoin="round"/>
<path d="M9.25 4.23234V2.60349C9.25 2.24303 9.38802 1.89734 9.63369 1.64246C9.87936 1.38758 10.2126 1.24438 10.56 1.24438H16.68C17.0274 1.24438 17.3606 1.38758 17.6063 1.64246C17.852 1.89734 17.99 2.24303 17.99 2.60349V4.23234" stroke="#999999" stroke-linecap="round" stroke-linejoin="round"/>
</svg>
