<svg width="25" height="26" viewBox="0 0 25 26" fill="none" xmlns="http://www.w3.org/2000/svg">
<path d="M12.4974 1.13306C14.3002 1.13223 16.0779 1.57131 17.6869 2.41486C19.296 3.2584 20.6914 4.48277 21.7604 5.9891C22.8294 7.49544 23.5421 9.24152 23.8409 11.0864C24.1398 12.9312 24.0164 14.8232 23.4807 16.6094C22.945 18.3956 22.0121 20.0261 20.7572 21.3692C19.5023 22.7124 17.9607 23.7304 16.2568 24.3413C14.5528 24.9521 12.7343 25.1386 10.9482 24.8857C9.16196 24.6328 7.4581 23.9475 5.97416 22.8853L1 24.9952L3.03323 19.8335C1.84422 18.0427 1.14948 15.9487 1.02411 13.7779C0.898744 11.6071 1.34752 9.44198 2.32193 7.51664C3.29633 5.5913 4.75931 3.97895 6.55272 2.85386C8.34614 1.72876 10.4018 1.13372 12.4974 1.13306V1.13306Z" stroke="#999999" stroke-linecap="round" stroke-linejoin="round"/>
<path d="M6.62793 8.63086H18.3674" stroke="#999999" stroke-linecap="round" stroke-linejoin="round"/>
<path d="M6.62793 13.0642H18.3674" stroke="#999999" stroke-linecap="round" stroke-linejoin="round"/>
<path d="M6.62793 17.4976H18.3674" stroke="#999999" stroke-linecap="round" stroke-linejoin="round"/>
</svg>
