<svg width="19" height="19" viewBox="0 0 19 19" fill="none" xmlns="http://www.w3.org/2000/svg">
<path d="M17.6971 0H1.30291C0.583332 0 0 0.583332 0 1.30291V17.6971C0 18.4167 0.583332 19 1.30291 19H17.6971C18.4167 19 19 18.4167 19 17.6971V1.30291C19 0.583332 18.4167 0 17.6971 0Z" fill="#ED1C24"/>
<path d="M9.49805 17.1C5.56243 17.1 3.80078 14.0858 3.80078 11.109C3.80078 9.06969 4.52289 6.72067 5.73369 4.82587C6.89976 2.99239 8.30908 1.89999 9.49805 1.89999C10.687 1.89999 12.0985 2.99239 13.2679 4.82171C14.4776 6.71651 15.2008 9.06553 15.2008 11.1048C15.2008 14.0858 13.438 17.1 9.49805 17.1Z" fill="white"/>
</svg>
