<svg width="26" height="27" viewBox="0 0 26 27" fill="none" xmlns="http://www.w3.org/2000/svg">
<path d="M13 0.0695801C5.83183 0.0695801 0 5.90141 0 13.0696C0 20.2372 5.83183 26.0696 13 26.0696C20.1676 26.0696 26 20.2372 26 13.0696C26 5.90141 20.1687 0.0695801 13 0.0695801Z" fill="#999999"/>
<path d="M12.1802 16.809C10.8892 16.6742 9.72516 16.356 8.72854 15.5759C8.60488 15.4789 8.47721 15.3853 8.36436 15.2769C7.92815 14.8576 7.88419 14.3774 8.22936 13.8826C8.52465 13.4591 9.02034 13.3458 9.53557 13.589C9.63533 13.6361 9.73039 13.6949 9.82144 13.7581C11.6788 15.0353 14.2303 15.0706 16.0947 13.8155C16.2794 13.6738 16.4768 13.5582 16.7057 13.4992C17.1506 13.3849 17.5655 13.5485 17.8043 13.9381C18.0771 14.383 18.0736 14.8173 17.7375 15.1628C17.2219 15.6924 16.6019 16.0755 15.9129 16.3429C15.2615 16.5957 14.548 16.723 13.8417 16.8074C13.9483 16.9235 13.9985 16.9806 14.0652 17.0476C15.0241 18.0119 15.9872 18.9721 16.943 19.9393C17.2687 20.2689 17.3367 20.6775 17.1574 21.0609C16.9614 21.4798 16.5225 21.7554 16.0922 21.7259C15.8196 21.7071 15.607 21.5713 15.4181 21.3808C14.6945 20.6521 13.9572 19.9367 13.2482 19.1942C13.0419 18.9782 12.9426 19.0191 12.7605 19.2065C12.0325 19.9566 11.2926 20.6952 10.5484 21.4295C10.2142 21.7593 9.81655 21.8186 9.429 21.6303C9.01703 21.4304 8.75488 21.0095 8.77511 20.5866C8.78907 20.3005 8.92965 20.082 9.12586 19.8859C10.0749 18.9376 11.0212 17.9867 11.968 17.0368C12.0306 16.9736 12.089 16.9066 12.1802 16.809Z" fill="#EEEEEE"/>
<path d="M12.9675 13.5058C10.6643 13.4979 8.7757 11.587 8.78913 9.27834C8.80239 6.94417 10.6922 5.06314 13.018 5.0696C15.3486 5.07588 17.2192 6.98397 17.2075 9.34241C17.1957 11.6464 15.294 13.5138 12.9675 13.5058ZM15.0606 9.28393C15.0566 8.13761 14.1444 7.22503 13.0013 7.22398C11.8486 7.22276 10.9282 8.15193 10.9371 9.30872C10.9456 10.4507 11.8657 11.3568 13.0119 11.3526C14.1547 11.3486 15.0645 10.4301 15.0606 9.28393Z" fill="#EEEEEE"/>
</svg>
