<svg width="34" height="28" viewBox="0 0 34 28" fill="none" xmlns="http://www.w3.org/2000/svg">
<g clip-path="url(#clip0)">
<path d="M11.5461 0H21.4628L24.4803 3.06667H29.7503C30.1917 3.06032 30.6297 3.13996 31.0369 3.30057C31.444 3.4612 31.8114 3.69932 32.1161 4C32.4285 4.29048 32.6748 4.6376 32.8405 5.02033C33.0061 5.40308 33.0874 5.81348 33.0794 6.22667V24.8933C33.0814 25.304 32.9963 25.7111 32.8294 26.0905C32.6624 26.47 32.4167 26.8144 32.1069 27.1036C31.7969 27.3928 31.429 27.6209 31.0244 27.7749C30.6198 27.9288 30.1866 28.0053 29.7503 28H3.32945C2.89066 28.0053 2.45519 27.928 2.0487 27.7724C1.64221 27.6169 1.27293 27.3863 0.962643 27.0943C0.652356 26.8023 0.407346 26.4547 0.242062 26.0721C0.0767776 25.6895 -0.00543302 25.2796 0.00027843 24.8667V6.2C-0.00378089 5.79128 0.0793933 5.38595 0.24487 5.00804C0.410347 4.63013 0.654757 4.28735 0.963612 4C1.26881 3.69996 1.63635 3.46227 2.04337 3.30169C2.45038 3.14112 2.88816 3.06112 3.32945 3.06667H8.50028L11.5461 0ZM10.6961 21.04C11.4424 21.7804 12.3442 22.3665 13.3441 22.7615C14.344 23.1563 15.4203 23.3509 16.5044 23.3333C17.5943 23.3469 18.6756 23.1504 19.6817 22.756C20.688 22.3616 21.5978 21.7776 22.3553 21.04C23.139 20.3271 23.7595 19.4708 24.1785 18.5237C24.5976 17.5768 24.8064 16.5591 24.7919 15.5333C24.808 14.5073 24.6 13.4892 24.1809 12.542C23.7617 11.5947 23.1404 10.7386 22.3553 10.0267C21.5978 9.28901 20.688 8.70504 19.6817 8.31064C18.6756 7.91625 17.5943 7.71979 16.5044 7.73333C15.4203 7.71569 14.344 7.91045 13.3441 8.30527C12.3442 8.70007 11.4424 9.28628 10.6961 10.0267C9.92015 10.7437 9.30669 11.6014 8.89275 12.5479C8.47882 13.4943 8.27302 14.5099 8.28778 15.5333C8.27384 16.5567 8.48001 17.572 8.8939 18.5184C9.30778 19.4647 9.92082 20.3224 10.6961 21.04ZM16.5469 20.4933C13.0053 20.4933 11.2344 18.84 11.2344 15.5333C11.2344 12.2267 13.0053 10.5733 16.5469 10.5733C20.0698 10.5733 21.8358 12.2267 21.8453 15.5333C21.8548 18.84 20.0886 20.4933 16.5469 20.4933Z" fill="white"/>
</g>
<defs>
<clipPath id="clip0">
<rect width="34" height="28" fill="white"/>
</clipPath>
</defs>
</svg>
