<svg width="23" height="29" viewBox="0 0 23 29" fill="none" xmlns="http://www.w3.org/2000/svg">
<path fill-rule="evenodd" clip-rule="evenodd" d="M0 8.46899H22.3889V28.1875H0V8.46899Z" fill="#DCDCDC"/>
<path d="M11.2542 8.469C10.7893 5.4334 10.4197 3.72267 9.09642 2.29491C7.77312 0.86715 5.86565 0.571308 4.86423 1.65177C3.86281 2.73224 4.10124 4.73882 5.46031 6.20516C6.81938 7.67151 8.38112 8.04453 11.2542 8.469Z" stroke="#DCDCDC" stroke-width="1.56" stroke-linecap="round" stroke-linejoin="round"/>
<path d="M11.2537 8.469C11.6471 5.4334 12.0286 3.72267 13.3519 2.29491C14.6752 0.86715 16.5826 0.571308 17.5841 1.65177C18.5855 2.73224 18.3113 4.76454 16.9761 6.20516C15.6408 7.64579 14.0076 8.04453 11.2537 8.469Z" stroke="#DCDCDC" stroke-width="1.56" stroke-linecap="round" stroke-linejoin="round"/>
<rect x="9.55566" y="11.1875" width="3" height="11" fill="white"/>
</svg>
