<svg width="20" height="20" viewBox="0 0 20 20" fill="none" xmlns="http://www.w3.org/2000/svg">
<g clip-path="url(#clip0)">
<path d="M18.7873 12C18.9085 11.394 19.0297 10.7879 19.0297 10.0606C19.0297 9.8182 19.0297 9.57578 19.0297 9.45456C18.6661 4.8485 14.7873 1.21214 10.06 1.21214C9.57517 1.21214 9.09032 1.21214 8.48426 1.33335C7.75698 0.848503 6.78729 0.606079 5.81759 0.606079C2.9085 0.606079 0.605469 2.90911 0.605469 5.69699C0.605469 6.66669 0.847893 7.51517 1.33274 8.24244C1.21153 8.60608 1.21153 8.96972 1.21153 9.33335C1.21153 9.57578 1.21153 9.8182 1.21153 10.1818C1.21153 15.0303 5.21153 19.0303 10.1812 19.0303C10.7873 19.0303 11.2721 19.0303 11.8782 18.9091C12.6055 19.2727 13.454 19.5152 14.3024 19.5152C17.2115 19.5152 19.5146 17.2121 19.5146 14.4243C19.3933 13.4546 19.1509 12.6061 18.7873 12Z" stroke="#FF6600" stroke-width="0.9921" stroke-miterlimit="22.9256" stroke-linecap="round" stroke-linejoin="round"/>
<path d="M6.06055 12.6061C7.39388 16.7273 13.8181 15.394 13.9393 12.6061C14.0605 8.96971 6.06055 10.4243 6.42418 7.03032C6.66661 4.48487 11.7575 3.51517 13.5757 6.7879" stroke="#FF6600" stroke-width="0.9921" stroke-miterlimit="22.9256" stroke-linecap="round" stroke-linejoin="round"/>
</g>
<defs>
<clipPath id="clip0">
<rect width="20" height="20" fill="white"/>
</clipPath>
</defs>
</svg>
