<svg width="29" height="27" viewBox="0 0 29 27" fill="none" xmlns="http://www.w3.org/2000/svg">
<path d="M20.3541 12.6596C20.5435 13.0197 20.8325 13.3162 21.1858 13.5128C21.5391 13.7094 21.9414 13.7976 22.3434 13.7665C24.2616 13.7665 25.981 10.8052 22.0308 9.94269C19.189 9.32455 20.212 6.33448 22.3434 6.33448C22.7505 6.30504 23.1572 6.39692 23.5133 6.59874C23.8693 6.80057 24.1591 7.10351 24.3469 7.47013" stroke="#999999" stroke-width="1.2" stroke-linecap="round" stroke-linejoin="round"/>
<path d="M4.63881 12.6598C4.8282 13.0199 5.11721 13.3164 5.47051 13.513C5.8238 13.7096 6.22606 13.7977 6.6281 13.7667C8.54634 13.7667 10.2657 10.8054 6.3155 9.94286C3.54471 9.32472 4.55356 6.33465 6.6281 6.33465C7.03548 6.30333 7.44293 6.39439 7.79934 6.59642C8.15576 6.79845 8.44529 7.10246 8.6316 7.4703" stroke="#999999" stroke-width="1.2" stroke-linecap="round" stroke-linejoin="round"/>
<path d="M3.13265 1.00128H26.0094C26.2801 1.01056 26.5462 1.07372 26.7927 1.18713C27.0392 1.30055 27.2611 1.46201 27.4459 1.66227C27.6306 1.86254 27.7746 2.09768 27.8694 2.35426C27.9643 2.61084 28.0082 2.88381 27.9987 3.15759V17.0873C27.995 17.639 27.7767 18.1669 27.3912 18.557C27.0056 18.9471 26.4837 19.168 25.9384 19.1717H7.72222L1.00127 26V3.15759C0.991346 2.87171 1.03969 2.58683 1.14329 2.32067C1.24689 2.05452 1.40353 1.81278 1.60346 1.61051C1.80339 1.40825 2.04233 1.24977 2.30541 1.14496C2.56849 1.04015 2.85008 0.991244 3.13265 1.00128V1.00128Z" stroke="#999999" stroke-width="1.2" stroke-linejoin="round"/>
<path d="M11.9993 6.33447V13.7665" stroke="#999999" stroke-width="1.2" stroke-linecap="round" stroke-linejoin="round"/>
<path d="M16.944 6.33447V13.7665" stroke="#999999" stroke-width="1.2" stroke-linecap="round" stroke-linejoin="round"/>
<path d="M16.944 6.33447L14.4716 10.6039" stroke="#999999" stroke-width="1.2" stroke-linecap="round" stroke-linejoin="round"/>
<path d="M11.9993 6.33447L14.4717 10.6039" stroke="#999999" stroke-width="1.2" stroke-linecap="round" stroke-linejoin="round"/>
</svg>
