<svg width="19" height="19" viewBox="0 0 19 19" fill="none" xmlns="http://www.w3.org/2000/svg">
<path d="M17.983 0H1.01698C0.455318 0 0 0.455318 0 1.01698V17.983C0 18.5447 0.455318 19 1.01698 19H17.983C18.5447 19 19 18.5447 19 17.983V1.01698C19 0.455318 18.5447 0 17.983 0Z" fill="black"/>
<path opacity="0.7" fill-rule="evenodd" clip-rule="evenodd" d="M5.19204 3.03662L9.50081 7.34539V11.6546H5.19204L0.882812 7.34539L5.19204 3.03662Z" fill="#FFF200"/>
<path fill-rule="evenodd" clip-rule="evenodd" d="M13.8092 3.03662L18.118 7.34539L13.8092 11.6546H9.5V7.34539L13.8092 3.03662Z" fill="#FFF200"/>
<path d="M9.50054 7.34541L5.19141 11.6545L9.50054 15.9637L13.8097 11.6545L9.50054 7.34541Z" fill="#EEDC00"/>
</svg>
