<svg width="23" height="24" viewBox="0 0 23 24" fill="none" xmlns="http://www.w3.org/2000/svg">
<path d="M21.26 1.99941C18.9401 -0.66647 15.1778 -0.66647 12.8579 1.99941L1.30553 15.274C-0.435176 17.2741 -0.435176 20.5152 1.30553 22.5154C2.74028 24.1641 4.90432 24.4303 6.59603 23.3602C6.77275 23.35 6.94653 23.2732 7.08171 23.1196L18.634 9.84507C19.7939 8.51217 19.7939 6.35148 18.634 5.01858C17.4741 3.68568 15.5937 3.68568 14.4338 5.01858L4.98154 15.8799C4.6919 16.2127 4.6919 16.7538 4.98154 17.0865C5.2712 17.4193 5.74202 17.4193 6.03161 17.0865L15.4837 6.22518C16.0645 5.55787 17.0046 5.55787 17.5839 6.22518C18.1647 6.8925 18.1647 7.9728 17.5839 8.63847L6.55593 21.3105C5.39597 22.6434 3.51562 22.6434 2.35565 21.3105C1.19568 19.9776 1.19568 17.817 2.35565 16.4841L13.908 3.20601C15.6486 1.20579 18.4691 1.20579 20.21 3.20601C21.9506 5.20621 21.9506 8.4472 20.21 10.4475L9.70768 22.5154C9.41803 22.8483 9.41803 23.3893 9.70768 23.722C9.99732 24.0549 10.4681 24.0549 10.7577 23.722L21.26 11.6541C23.58 8.9883 23.58 4.66528 21.26 1.99941Z" fill="#FF6600"/>
</svg>
