<svg width="26" height="27" viewBox="0 0 26 27" fill="none" xmlns="http://www.w3.org/2000/svg">
<path d="M13 0.0695801C5.83183 0.0695801 0 5.90141 0 13.0696C0 20.2372 5.83183 26.0696 13 26.0696C20.1676 26.0696 26 20.2372 26 13.0696C26 5.90141 20.1687 0.0695801 13 0.0695801ZM16.233 13.5272H14.118C14.118 16.9063 14.118 21.0656 14.118 21.0656H10.984C10.984 21.0656 10.984 16.9466 10.984 13.5272H9.4942V10.8629H10.984V9.13963C10.984 7.9054 11.5705 5.97681 14.1468 5.97681L16.4691 5.98572V8.572C16.4691 8.572 15.0579 8.572 14.7835 8.572C14.5091 8.572 14.119 8.70919 14.119 9.29777V10.8635H16.5068L16.233 13.5272Z" fill="#999999"/>
</svg>
