<svg width="21" height="18" viewBox="0 0 21 18" fill="none" xmlns="http://www.w3.org/2000/svg">
<path d="M2.34358 5.17191C3.58225 4.49525 4.92995 4.03687 6.32671 3.81717C9.71362 3.26706 12.6699 3.6858 14.972 5.41002C15.3907 4.97414 15.903 4.63738 16.4709 4.42475C17.5557 4.14559 17.655 4.42475 17.4729 5.31149C17.4066 5.62349 17.3155 5.99297 17.2327 6.35424C18.3589 7.43803 17.6716 8.4972 20.189 8.95699C20.6527 9.0391 20.8763 8.95699 20.9757 9.53994C21.1165 10.361 20.661 12.4136 19.2036 12.4711C17.6633 13.7109 17.9863 13.7602 16.1231 14.1625C15.4854 14.2939 15.0631 14.5238 14.8064 15.5911C14.6453 16.3404 14.6824 17.1182 14.9141 17.8491C13.9977 18.0503 13.048 18.0503 12.1317 17.8491C11.484 17.0773 11.0199 16.1709 10.7736 15.197C8.69506 15.5419 7.4612 15.5583 5.92923 14.8522C5.69024 15.8953 5.31439 16.9028 4.8113 17.8491C4.14175 18.05 3.42718 18.05 2.75763 17.8491C2.63341 16.5518 0.0994446 13.325 0.00835426 9.94226C-0.0541381 8.82104 0.235148 7.70815 0.836449 6.75656C0.00835428 5.6235 0.256783 4.4658 0.944101 4.1538C0.828168 5.14728 1.41611 5.63171 2.35186 5.13907L2.34358 5.17191Z" fill="#FF6600"/>
<path d="M12.8522 6.89625C10.7905 6.12878 8.55437 5.94402 6.39302 6.36256C5.97461 6.43197 5.56003 6.5224 5.15088 6.63351" stroke="white" stroke-width="1.42" stroke-linecap="round" stroke-linejoin="round"/>
<path fill-rule="evenodd" clip-rule="evenodd" d="M9.00165 0.188133C9.77098 0.183715 10.5252 0.399844 11.1736 0.810507C11.8219 1.22117 12.3367 1.80886 12.6561 2.50286C12.9754 3.19685 13.0857 3.96756 12.9736 4.72223C12.8615 5.4769 12.5318 6.18337 12.0242 6.7566C10.1286 6.2796 8.15165 6.2124 6.22753 6.55954L5.85489 6.62523C5.37431 6.04324 5.07174 5.33706 4.98291 4.59007C4.89408 3.84308 5.0227 3.08648 5.35358 2.40964C5.68445 1.73279 6.20377 1.16395 6.85019 0.770309C7.49662 0.376666 8.24316 0.174655 9.00165 0.188133Z" fill="white"/>
<path fill-rule="evenodd" clip-rule="evenodd" d="M9.00114 0.795753C9.6629 0.785282 10.3126 0.971607 10.8666 1.3307C11.4206 1.6898 11.8533 2.2052 12.1091 2.81044C12.3648 3.41568 12.4318 4.08301 12.3015 4.72637C12.1712 5.36974 11.8494 5.95964 11.3778 6.42C9.78688 6.10225 8.15093 6.07443 6.54998 6.3379C6.09995 5.86696 5.80067 5.27441 5.6899 4.63502C5.57913 3.99562 5.66184 3.33802 5.92758 2.74518C6.19332 2.15234 6.6302 1.65081 7.1831 1.30387C7.73599 0.956932 8.38014 0.780124 9.03427 0.795753H9.00114Z" fill="#FF6600"/>
</svg>
