<svg width="33" height="28" viewBox="0 0 33 28" fill="none" xmlns="http://www.w3.org/2000/svg">
<path d="M3.57409 8.41249C5.46312 7.38055 7.51845 6.68149 9.64859 6.34643C14.8138 5.50748 19.3223 6.14609 22.8331 8.77562C23.4716 8.11088 24.2529 7.5973 25.119 7.27303C26.7734 6.84729 26.9249 7.27303 26.6471 8.62536C26.546 9.10118 26.4071 9.66465 26.2808 10.2156C27.9984 11.8685 26.9502 13.4837 30.7893 14.1849C31.4966 14.3102 31.8375 14.1849 31.9891 15.074C32.2038 16.3261 31.5092 19.4565 29.2865 19.5442C26.9375 21.4349 27.4301 21.5101 24.5886 22.1236C23.6161 22.324 22.9721 22.6746 22.5806 24.3024C22.3349 25.445 22.3915 26.6313 22.7447 27.7458C21.3472 28.0527 19.8989 28.0527 18.5014 27.7458C17.5138 26.5688 16.8059 25.1865 16.4303 23.7013C13.2604 24.2273 11.3787 24.2523 9.0424 23.1754C8.67792 24.7662 8.10474 26.3028 7.3375 27.7458C6.31639 28.0523 5.22664 28.0523 4.20553 27.7458C4.0161 25.7674 0.151659 20.8464 0.0127407 15.6875C-0.0825635 13.9776 0.358613 12.2804 1.27563 10.8292C0.0127407 9.10118 0.391607 7.33564 1.43981 6.85982C1.263 8.37493 2.15965 9.1137 3.58672 8.36241L3.57409 8.41249Z" fill="#FF6600"/>
<path d="M19.6003 11.0421C16.4562 9.87168 13.046 9.58992 9.7498 10.2282C9.11171 10.3341 8.47945 10.472 7.85547 10.6414" stroke="white" stroke-width="2.16558" stroke-linecap="round" stroke-linejoin="round"/>
<path fill-rule="evenodd" clip-rule="evenodd" d="M13.7271 0.81197C14.9004 0.805232 16.0507 1.13484 17.0394 1.76112C18.0282 2.38741 18.8133 3.28367 19.3003 4.34205C19.7874 5.40043 19.9555 6.57581 19.7845 7.72672C19.6136 8.87763 19.1108 9.95503 18.3367 10.8292C15.4458 10.1018 12.4308 9.9993 9.49646 10.5287L8.92816 10.6289C8.19525 9.74133 7.73382 8.66436 7.59835 7.52516C7.46287 6.38596 7.65902 5.23211 8.16363 4.19988C8.66823 3.16765 9.46022 2.30015 10.4461 1.69982C11.4319 1.09949 12.5704 0.791415 13.7271 0.81197Z" fill="white"/>
<path fill-rule="evenodd" clip-rule="evenodd" d="M13.7282 1.73864C14.7374 1.72267 15.7283 2.00682 16.5731 2.55446C17.4179 3.1021 18.0779 3.88812 18.468 4.81114C18.858 5.73417 18.9602 6.75188 18.7614 7.73305C18.5627 8.71421 18.072 9.61384 17.3527 10.3159C14.9265 9.83134 12.4316 9.78891 9.99006 10.1907C9.30373 9.4725 8.84731 8.56884 8.67838 7.59372C8.50946 6.61861 8.63558 5.61574 9.04086 4.71162C9.44613 3.8075 10.1124 3.04264 10.9556 2.51354C11.7988 1.98444 12.7811 1.7148 13.7787 1.73864H13.7282Z" fill="#FF6600"/>
</svg>
