<svg width="19" height="23" viewBox="0 0 19 23" fill="none" xmlns="http://www.w3.org/2000/svg">
<path fill-rule="evenodd" clip-rule="evenodd" d="M0.777832 7.36121H18.8334V23H0.777832V7.36121Z" fill="#FF6600"/>
<path d="M9.78631 7.36119C9.46904 4.95365 9.17099 3.59686 8.0942 2.4645C7.0174 1.33214 5.51758 1.0975 4.70998 1.95442C3.90239 2.81135 4.1139 4.40277 5.1907 5.56573C6.26749 6.7287 7.53657 7.02454 9.78631 7.36119Z" stroke="#FF6600" stroke-width="1.56" stroke-linecap="round" stroke-linejoin="round"/>
<path d="M9.78638 7.36119C10.1133 4.95365 10.4113 3.59686 11.4881 2.4645C12.5649 1.33214 14.0839 1.0975 14.8915 1.95442C15.6991 2.81135 15.5549 4.40277 14.4301 5.56573C13.3052 6.7287 12.0842 7.02454 9.78638 7.36119Z" stroke="#FF6600" stroke-width="1.56" stroke-linecap="round" stroke-linejoin="round"/>
<path d="M13.3147 16.0528V17.2056C13.3166 17.2544 13.3091 17.3032 13.2926 17.3488C13.276 17.3944 13.2508 17.436 13.2186 17.4708C13.1821 17.5093 13.1385 17.5392 13.0904 17.5585C13.0424 17.5778 12.991 17.5862 12.9397 17.583H12.3725V19.807H10.69V17.583H7.01736C6.8984 17.5832 6.783 17.54 6.69048 17.4606C6.64273 17.427 6.60192 17.3835 6.57052 17.3326C6.53912 17.2817 6.51779 17.2246 6.50781 17.1648L6.30591 16.1446L10.5266 10.136H12.3725V16.0528H13.3147ZM10.69 16.0528V13.5229C10.69 13.3698 10.69 13.2066 10.69 13.023C10.69 12.8394 10.69 12.6557 10.7381 12.4619L8.34413 16.0528H10.69Z" fill="white"/>
</svg>
