<svg width="23" height="18" viewBox="0 0 23 18" fill="none" xmlns="http://www.w3.org/2000/svg">
<path d="M2.76842 1H20.2316C20.7006 1 21.1504 1.1873 21.482 1.5207C21.8137 1.8541 22 2.30628 22 2.77778V15.2222C22 15.6937 21.8137 16.1459 21.482 16.4793C21.1504 16.8127 20.7006 17 20.2316 17H2.76842C2.29941 17 1.8496 16.8127 1.51796 16.4793C1.18632 16.1459 1 15.6937 1 15.2222V2.77778C1 2.30628 1.18632 1.8541 1.51796 1.5207C1.8496 1.1873 2.29941 1 2.76842 1V1Z" stroke="#999999" stroke-width="1.2" stroke-linecap="round" stroke-linejoin="round"/>
<path d="M21.8013 1.9668L13.7108 10.089C13.1201 10.6699 12.3266 10.9952 11.5003 10.9952C10.6739 10.9952 9.88044 10.6699 9.28974 10.089L1.19922 1.9668" stroke="#999999" stroke-width="1.2" stroke-linecap="round" stroke-linejoin="round"/>
<path d="M8.58216 9.37769L1.51953 16.4777L8.58216 9.37769Z" stroke="#999999" stroke-width="1.2" stroke-linecap="round" stroke-linejoin="round"/>
<path d="M21.4806 16.4778L14.418 9.38892" stroke="#999999" stroke-width="1.2" stroke-linecap="round" stroke-linejoin="round"/>
</svg>
