<svg width="22" height="26" viewBox="0 0 22 26" fill="none" xmlns="http://www.w3.org/2000/svg">
<path d="M13.05 13.0198C13.05 10.6232 18.96 9.90732 19.05 3.08066H21.05V0.55957H1V3.08066H3C3.08 9.89694 9 10.6232 9 13.0198C9 15.4164 3.09 16.1322 3 22.9589H1V25.4904H21.06V22.9589H19.06C18.98 16.153 13.06 15.4267 13.06 13.0198H13.05Z" stroke="#999999" stroke-linecap="round" stroke-linejoin="round"/>
<path d="M1 0.55957H21.06V3.08066H1V0.55957Z" stroke="#999999" stroke-linecap="round" stroke-linejoin="round"/>
<path d="M1 22.959H21.06V25.4905H1V22.959Z" stroke="#999999" stroke-linecap="round" stroke-linejoin="round"/>
<path d="M11.0299 18.5913C11.7099 19.8155 14.0299 20.8842 15.1199 22.9695H6.93994C8.05994 20.8945 10.3499 19.857 11.0299 18.5913V18.5913Z" stroke="#999999" stroke-linecap="round" stroke-linejoin="round"/>
<path d="M3.97998 7.14746H18.08" stroke="#999999" stroke-linecap="round" stroke-linejoin="round"/>
<path d="M13.6899 11.7021C12.8199 12.6048 11.9099 13.5074 11.0299 14.3996C10.2099 13.5696 9.55988 12.8745 8.37988 11.7021" stroke="#999999" stroke-linecap="round" stroke-linejoin="round"/>
</svg>
