<svg width="26" height="27" viewBox="0 0 26 27" fill="none" xmlns="http://www.w3.org/2000/svg">
<path d="M14.1 0.820312L14.78 3.39328L17.05 4.16102L19.06 2.49066L21 3.95352L20.09 6.44349L21.5 8.45621L24.06 8.33171L24.8 10.6972L22.66 12.16V14.6396L24.8 16.1025L24.06 18.4679L21.5 18.3434L20.09 20.3562L21 22.8461L19.06 24.309L17.05 22.6386L14.78 23.4064L14.1 25.9793H11.7L11.03 23.4064L8.75 22.6386L6.74 24.309L4.8 22.8461L5.71 20.3562L4.31 18.3434L1.74 18.4679L1 16.1025L3.15 14.6396V12.16L1 10.6972L1.74 8.33171L4.31 8.45621L5.71 6.44349L4.81 3.95352L6.74 2.49066L8.75 4.16102L11.03 3.39328L11.7 0.820312H14.1Z" stroke="#999999" stroke-linecap="round" stroke-linejoin="round"/>
<path d="M12.9002 6.44337C14.2282 6.44132 15.5269 6.84812 16.6318 7.61227C17.7368 8.37643 18.5984 9.46356 19.1075 10.736C19.6166 12.0085 19.7503 13.4091 19.4918 14.7605C19.2332 16.1118 18.5939 17.3532 17.6549 18.3274C16.7159 19.3016 15.5193 19.9649 14.2168 20.2332C12.9143 20.5014 11.5643 20.3627 10.3378 19.8345C9.11127 19.3063 8.06342 18.4124 7.32687 17.266C6.59033 16.1196 6.19823 14.7723 6.2002 13.3945C6.2002 11.551 6.90609 9.78291 8.16259 8.47931C9.41908 7.17572 11.1233 6.44337 12.9002 6.44337V6.44337Z" stroke="#999999" stroke-linecap="round" stroke-linejoin="round"/>
<path d="M12.9001 8.95411C13.7495 8.95206 14.5803 9.21161 15.2873 9.69989C15.9943 10.1882 16.5457 10.8832 16.8716 11.6969C17.1976 12.5106 17.2834 13.4063 17.1182 14.2707C16.953 15.135 16.5442 15.929 15.9436 16.5521C15.343 17.1752 14.5777 17.5993 13.7446 17.7707C12.9115 17.9421 12.0481 17.8531 11.2638 17.5149C10.4795 17.1768 9.80959 16.6047 9.33896 15.8712C8.86833 15.1377 8.61815 14.2757 8.62013 13.3946C8.62277 12.2177 9.07455 11.0899 9.87663 10.2577C10.6787 9.42556 11.7658 8.95685 12.9001 8.95411V8.95411Z" stroke="#999999" stroke-linecap="round" stroke-linejoin="round"/>
</svg>
