<svg width="30" height="24" viewBox="0 0 30 24" fill="none" xmlns="http://www.w3.org/2000/svg">
<path d="M26.9305 15.7753V18.6388H24.1305C24.466 17.6947 24.5981 16.6859 24.5175 15.6833C24.4369 14.6806 24.1456 13.7084 23.6641 12.8351C23.1825 11.9617 22.5225 11.2084 21.7302 10.6281C20.938 10.0478 20.0328 9.65453 19.0784 9.47603C18.124 9.29753 17.1435 9.33811 16.2058 9.59489C15.2682 9.85168 14.3961 10.3184 13.6509 10.9624C12.9057 11.6063 12.3056 12.4118 11.8926 13.3221C11.4796 14.2325 11.2639 15.2257 11.2605 16.2318C11.2623 17.3264 11.5142 18.4049 11.9958 19.3788C12.4773 20.3527 13.1746 21.1942 14.0305 21.8342H8.25051V18.6388H4.96051C4.32837 18.6388 3.72198 18.379 3.27405 17.9162C2.82612 17.4534 2.57315 16.8254 2.57051 16.1696V11.8432C2.15493 11.8405 1.75712 11.668 1.46325 11.3631C1.16938 11.0583 1.00313 10.6455 1.00051 10.2144V5.02695C0.99517 4.80958 1.03183 4.5933 1.10834 4.39087C1.18485 4.18843 1.29964 4.00393 1.44597 3.84826C1.59229 3.69258 1.76718 3.56888 1.96031 3.48444C2.15345 3.4 2.36092 3.35653 2.57051 3.3566H4.28051C4.49009 3.35653 4.69757 3.4 4.89071 3.48444C5.08384 3.56888 5.25873 3.69258 5.40505 3.84826C5.55138 4.00393 5.66617 4.18843 5.74268 4.39087C5.81919 4.5933 5.85585 4.80958 5.85051 5.02695V13.7418H8.25051V3.36698H17.3805V1.39575H20.6105V3.3566H24.2805C24.9765 3.35652 25.6445 3.64048 26.1403 4.14714C26.6362 4.65379 26.92 5.34248 26.9305 6.06444V12.7043H29.1405V15.8168L26.9305 15.7753ZM17.9305 9.34289C19.2438 9.34289 20.5276 9.74692 21.6195 10.5039C22.7114 11.2608 23.5625 12.3367 24.0651 13.5955C24.5676 14.8543 24.6991 16.2394 24.4429 17.5758C24.1867 18.9121 23.5543 20.1396 22.6257 21.103C21.6971 22.0664 20.5139 22.7225 19.2259 22.9883C17.9379 23.2541 16.6028 23.1177 15.3895 22.5963C14.1762 22.0749 13.1392 21.1919 12.4096 20.0591C11.6799 18.9262 11.2905 17.5943 11.2905 16.2318C11.2905 14.4047 11.9901 12.6525 13.2353 11.3606C14.4806 10.0687 16.1695 9.34289 17.9305 9.34289V9.34289ZM17.9305 11.8225C17.0895 11.8204 16.2668 12.0773 15.5666 12.5605C14.8664 13.0438 14.3201 13.7317 13.9969 14.5372C13.6737 15.3427 13.5881 16.2296 13.751 17.0856C13.9138 17.9416 14.3178 18.7283 14.9118 19.346C15.5057 19.9637 16.263 20.3846 17.0877 20.5556C17.9124 20.7266 18.7674 20.6399 19.5446 20.3065C20.3218 19.973 20.9861 19.4079 21.4536 18.6826C21.921 17.9572 22.1705 17.1043 22.1705 16.2318C22.1705 15.0642 21.7241 13.9442 20.9293 13.1176C20.1344 12.291 19.0559 11.8252 17.9305 11.8225ZM19.1505 17.0099L21.6005 18.4728L19.1505 17.0099ZM16.7005 17.0099L14.2505 18.4728L16.7005 17.0099ZM17.9305 14.8104C17.6516 14.8104 17.379 14.8962 17.1472 15.057C16.9153 15.2177 16.7346 15.4462 16.6278 15.7135C16.5211 15.9808 16.4932 16.2749 16.5476 16.5587C16.602 16.8425 16.7363 17.1031 16.9335 17.3077C17.1307 17.5123 17.3819 17.6516 17.6554 17.708C17.9289 17.7645 18.2124 17.7355 18.4701 17.6248C18.7277 17.5141 18.9479 17.3266 19.1029 17.086C19.2578 16.8455 19.3405 16.5626 19.3405 16.2733C19.3405 15.8853 19.192 15.5132 18.9275 15.2389C18.6631 14.9646 18.3045 14.8104 17.9305 14.8104V14.8104Z" stroke="#999999" stroke-linecap="round" stroke-linejoin="round"/>
<path d="M12.3605 8.79307H8.25049M12.3605 6.29272H8.25049H12.3605Z" stroke="#999999" stroke-linecap="round" stroke-linejoin="round"/>
</svg>
