<svg width="16" height="18" viewBox="0 0 16 18" fill="none" xmlns="http://www.w3.org/2000/svg">
<path fill-rule="evenodd" clip-rule="evenodd" d="M8.21664 16.2089C7.91342 16.7717 7.41354 17.1827 6.82694 17.3514C6.24035 17.5201 5.61511 17.4327 5.08875 17.1085C4.5624 16.7843 4.17805 16.2498 4.02027 15.6225C3.86249 14.9953 3.94419 14.3267 4.2474 13.7639L6.22799 14.9864L8.21664 16.2089Z" fill="#FF6600"/>
<path fill-rule="evenodd" clip-rule="evenodd" d="M6.60646 14.2891L0.841809 10.7249C0.0849973 10.1998 0.350686 9.12364 0.519761 8.58127C4.59366 7.91837 5.96236 5.2754 7.58065 3.18341C8.21842 2.24779 9.15769 1.59794 10.2172 1.35927C11.2767 1.1206 12.3813 1.31003 13.3179 1.891C14.2544 2.47198 14.9566 3.40331 15.2887 4.50526C15.6209 5.60721 15.5596 6.80167 15.1166 7.85811C14.239 10.3978 12.7737 13.0235 14.2712 17.1042C13.9169 17.526 13.1762 18.3095 12.3711 17.8704L6.60646 14.2891Z" fill="#FF6600"/>
<path fill-rule="evenodd" clip-rule="evenodd" d="M11.0507 3.11462C10.6268 3.13753 10.2125 3.25781 9.83599 3.46728C9.45949 3.67674 9.1296 3.97048 8.86878 4.3285C8.02706 5.55101 7.09842 6.70229 6.09113 7.77211C5.12106 8.69313 3.98746 9.39582 2.75793 9.83827L4.91565 11.1813C7.18609 9.45948 8.57089 6.87677 9.93959 4.63842C10.2698 4.10072 10.6386 3.59125 11.0426 3.11462H11.0507Z" fill="white"/>
<path fill-rule="evenodd" clip-rule="evenodd" d="M12.9991 0.1875L14.8348 1.31528L13.772 3.27814L11.9363 2.15036L12.9991 0.1875Z" fill="#FF6600"/>
</svg>
