<svg width="22" height="22" viewBox="0 0 22 22" fill="none" xmlns="http://www.w3.org/2000/svg">
<path d="M20.5841 18.7667C20.1747 19.4904 19.5214 20.0457 18.7406 20.3339C17.9478 20.7338 17.0786 20.9598 16.1911 20.9966C15.9655 20.9935 15.7403 20.9759 15.5169 20.944L14.927 20.8493C14.7098 20.8007 14.4953 20.7411 14.2843 20.6705L13.7049 20.4707L13.115 20.2393L12.525 20.0184C10.1535 19.0889 8.01413 17.6529 6.25685 15.8111C4.41262 14.0603 2.97435 11.9279 2.04294 9.56335L1.82171 8.97434L1.52674 8.31169C1.52674 8.19599 1.42139 8.00667 1.33711 7.7332C1.26646 7.52253 1.20668 7.30838 1.15802 7.09159C1.15802 6.93031 1.12642 6.73047 1.06321 6.49205C1.02725 6.27284 1.00613 6.05146 1 5.82941C1.03685 4.94339 1.26315 4.0755 1.66369 3.28402C1.95234 2.50438 2.50852 1.85218 3.23337 1.44334C3.85534 1.17193 4.52473 1.0254 5.20337 1.0121C5.3077 0.99141 5.41509 0.99141 5.51942 1.0121C5.58263 1.0121 5.68797 1.1278 5.83546 1.3592C5.98295 1.56956 6.1515 1.83251 6.33059 2.14806C6.50968 2.4636 6.67824 2.77915 6.8468 3.07366L7.3314 3.9677L7.62637 4.52516L7.8476 4.93537C7.95958 5.08794 8.05826 5.24981 8.14257 5.4192C8.20154 5.54816 8.23379 5.68769 8.23739 5.82941C8.20044 6.10772 8.06159 6.36252 7.8476 6.54464C7.58138 6.82789 7.28858 7.085 6.97321 7.31247C6.65968 7.54244 6.36387 7.79559 6.08829 8.06978C5.89725 8.23803 5.77374 8.46971 5.74065 8.7219C5.71935 8.82955 5.71935 8.94032 5.74065 9.04796C5.77523 9.1492 5.81749 9.24765 5.86706 9.34247C5.91906 9.45859 5.97889 9.57104 6.04616 9.67905L6.25685 9.95252C6.92111 11.1714 7.75457 12.2903 8.73252 13.2763C9.72 14.2527 10.8407 15.0848 12.0615 15.748L12.3354 15.9163C12.4436 15.9835 12.5562 16.0432 12.6725 16.0951L12.9675 16.2213C13.0703 16.2674 13.1814 16.2925 13.2941 16.295C13.5048 16.295 13.7892 16.0741 14.1579 15.6534C14.5266 15.2326 14.8954 14.7909 15.2746 14.3701C15.6539 13.9494 15.9488 13.7391 16.1911 13.7391C16.3331 13.7426 16.4728 13.7748 16.602 13.8337C16.7738 13.9139 16.9363 14.0127 17.0866 14.1282L17.4553 14.3807L18.5088 14.9486C19.1935 15.3063 19.773 15.6323 20.2365 15.9163C20.7 16.2003 20.9529 16.3791 20.9845 16.4843C21.0052 16.5885 21.0052 16.6957 20.9845 16.7998C20.9711 17.4774 20.8244 18.1457 20.5525 18.7667H20.5841Z" stroke="#999999" stroke-width="1.2" stroke-linecap="round" stroke-linejoin="round"/>
<path d="M11.0078 1.0121C12.3188 1.01485 13.6164 1.27558 14.8265 1.77936C16.0365 2.28314 17.1352 3.0201 18.0598 3.9481C18.9844 4.8761 19.7167 5.97696 20.2149 7.18771C20.713 8.39847 20.9673 9.6954 20.9632 11.0043" stroke="#999999" stroke-width="1.2" stroke-linecap="round" stroke-linejoin="round"/>
<path d="M11.0078 8.13288C11.3822 8.13563 11.7524 8.21216 12.0972 8.35809C12.4419 8.50401 12.7544 8.71646 13.0167 8.98324C13.279 9.25002 13.486 9.56589 13.6257 9.91272C13.7655 10.2595 13.8353 10.6305 13.8311 11.0043" stroke="#999999" stroke-width="1.2" stroke-linecap="round" stroke-linejoin="round"/>
<path d="M11.0078 4.57775C11.8498 4.58051 12.6831 4.749 13.4598 5.07359C14.2365 5.39818 14.9416 5.87249 15.5345 6.4694C16.1275 7.0663 16.5967 7.77408 16.9154 8.55223C17.2341 9.33039 17.396 10.1636 17.3919 11.0043" stroke="#999999" stroke-width="1.2" stroke-linecap="round" stroke-linejoin="round"/>
</svg>
