<svg width="25" height="22" viewBox="0 0 25 22" fill="none" xmlns="http://www.w3.org/2000/svg">
<path fill-rule="evenodd" clip-rule="evenodd" d="M0 10.1962H25L12.5 22L0 10.1962Z" fill="#FF6600"/>
<path fill-rule="evenodd" clip-rule="evenodd" d="M4.75928 0.4375H20.241V12.4751H4.75928V0.4375Z" fill="#FF6600"/>
<path d="M15.0349 6.70948C14.9829 6.79155 14.9172 6.86403 14.8407 6.92374C14.7635 6.97657 14.6718 7.00381 14.5785 7.00166C14.4723 6.99872 14.3686 6.96854 14.2774 6.91401L13.9083 6.70948C13.7577 6.63355 13.6019 6.56846 13.4421 6.5147C13.2506 6.4535 13.0505 6.4239 12.8496 6.42705C12.5416 6.40018 12.2343 6.48673 11.9852 6.67053C11.889 6.75307 11.8128 6.85646 11.7623 6.97288C11.7119 7.0893 11.6884 7.2157 11.6938 7.34253C11.6908 7.42523 11.7048 7.50767 11.7348 7.58474C11.7649 7.66181 11.8105 7.73185 11.8687 7.79053C11.9965 7.91944 12.1483 8.02201 12.3154 8.09244C12.5236 8.18751 12.7377 8.26884 12.9565 8.33592L13.6849 8.56966C13.9328 8.66106 14.176 8.76508 14.4133 8.88132C14.6445 8.99891 14.8572 9.14984 15.0447 9.32932C15.2368 9.52114 15.3888 9.74964 15.4914 10.0013C15.6178 10.3099 15.6774 10.6418 15.6663 10.9752C15.6704 11.3718 15.5978 11.7654 15.4526 12.1342C15.3189 12.5005 15.1067 12.8329 14.831 13.1081C14.5541 13.3839 14.2235 13.5994 13.8597 13.7412C13.4283 13.9031 12.9703 13.9824 12.5097 13.9749C12.2258 13.9747 11.9426 13.9453 11.6647 13.8872C11.3796 13.8313 11.1 13.7498 10.8294 13.6438C10.5661 13.5441 10.3125 13.4202 10.0718 13.2737C9.8505 13.1384 9.64522 12.9783 9.45996 12.7965L10.0621 11.8225C10.1093 11.7471 10.1766 11.6864 10.2564 11.6472C10.3345 11.5966 10.4256 11.5696 10.5186 11.5693C10.6501 11.5732 10.7779 11.6137 10.8877 11.6862L11.3053 11.9491C11.4811 12.0449 11.6628 12.1295 11.8492 12.2024C12.0798 12.2844 12.3233 12.324 12.568 12.3192C12.8785 12.3408 13.1871 12.2549 13.4421 12.0758C13.5499 11.9763 13.6338 11.8536 13.6876 11.717C13.7415 11.5804 13.7638 11.4334 13.7529 11.2869C13.7607 11.102 13.6982 10.921 13.5781 10.7805C13.4564 10.6372 13.3036 10.5239 13.1313 10.4493C12.9259 10.3612 12.715 10.2863 12.5 10.2253L11.7715 10.0111C11.5249 9.93225 11.2846 9.83457 11.0528 9.71888C10.5619 9.47309 10.1757 9.0582 9.96501 8.55018C9.84826 8.21215 9.79236 7.856 9.7999 7.49835C9.8026 7.16431 9.86852 6.83383 9.99415 6.52444C10.107 6.19842 10.2818 5.89744 10.5089 5.63818C10.7911 5.37638 11.1208 5.17139 11.4802 5.03435C11.8973 4.88368 12.3384 4.81105 12.7816 4.82009C13.0482 4.81947 13.3144 4.839 13.5781 4.87852C13.8294 4.92149 14.0764 4.98668 14.3162 5.0733C14.5423 5.14876 14.7603 5.24664 14.967 5.36548C15.16 5.47707 15.3393 5.6111 15.5011 5.76478L15.0349 6.70948Z" fill="white"/>
<path fill-rule="evenodd" clip-rule="evenodd" d="M11.7715 3.38843H13.2381V5.31678H11.7715V3.38843Z" fill="white"/>
<path fill-rule="evenodd" clip-rule="evenodd" d="M11.7715 12.9329H13.2381V15.319H11.7715V12.9329Z" fill="white"/>
</svg>
