<svg width="11" height="13" viewBox="0 0 11 13" fill="none" xmlns="http://www.w3.org/2000/svg">
<path d="M9.16667 3.80859C8.66451 3.80859 8.20894 3.59763 7.87751 3.25674L4.88287 5.35187C5.04329 5.6997 5.13333 6.08919 5.13333 6.5C5.13333 6.91081 5.04329 7.3003 4.88287 7.64813L7.87751 9.74326C8.20894 9.40237 8.66451 9.19141 9.16667 9.19141C10.1776 9.19141 11 10.0457 11 11.0957C11 12.1457 10.1776 13 9.16667 13C8.15576 13 7.33333 12.1457 7.33333 11.0957C7.33333 10.8412 7.38203 10.5984 7.46959 10.3763L4.47477 8.28111C4.00459 8.82404 3.32339 9.16602 2.56667 9.16602C1.15137 9.16602 0 7.97008 0 6.5C0 5.02992 1.15137 3.83398 2.56667 3.83398C3.32339 3.83398 4.00459 4.17596 4.47477 4.71889L7.46959 2.62366C7.38203 2.4016 7.33333 2.1588 7.33333 1.9043C7.33333 0.854256 8.15576 0 9.16667 0C10.1776 0 11 0.854256 11 1.9043C11 2.95434 10.1776 3.80859 9.16667 3.80859ZM9.16667 12.2383C9.77319 12.2383 10.2667 11.7257 10.2667 11.0957C10.2667 10.4657 9.77319 9.95312 9.16667 9.95312C8.56014 9.95312 8.06667 10.4657 8.06667 11.0957C8.06667 11.7257 8.56014 12.2383 9.16667 12.2383ZM2.56667 4.5957C1.55576 4.5957 0.733333 5.44996 0.733333 6.5C0.733333 7.55004 1.55576 8.4043 2.56667 8.4043C3.57758 8.4043 4.4 7.55004 4.4 6.5C4.4 5.44996 3.57758 4.5957 2.56667 4.5957ZM9.16667 0.761719C8.56014 0.761719 8.06667 1.27429 8.06667 1.9043C8.06667 2.5343 8.56014 3.04688 9.16667 3.04688C9.77319 3.04688 10.2667 2.5343 10.2667 1.9043C10.2667 1.27429 9.77319 0.761719 9.16667 0.761719Z" fill="#999999"/>
</svg>
