<?xml version="1.0" encoding="utf-8"?><svg width="338" height="310" viewBox="0 0 338 310" xmlns="http://www.w3.org/2000/svg" xmlns:xlink="http://www.w3.org/1999/xlink"><svg width="14" height="9" fill="none" viewBox="0 0 14 9" id="arrow" x="280" y="245" xmlns="http://www.w3.org/2000/svg"><path d="M13.244 4.513l-3.99 3.99-.427-.441c-.093-.093-.13-.187-.112-.28a.601.601 0 0 1 .154-.266l2.009-1.995c.112-.112.217-.212.315-.301s.194-.17.287-.245a11.027 11.027 0 0 1-1.54.105H.826V3.939H9.94a11.298 11.298 0 0 1 1.547.105 10.296 10.296 0 0 1-.294-.245 8.777 8.777 0 0 1-.315-.301L8.855 1.489a.524.524 0 0 1-.154-.266c-.019-.093.016-.187.105-.28L9.24.495l4.004 4.018z" fill="#999"/></svg><svg width="14" height="9" fill="none" viewBox="0 0 14 9" id="arrow-breadcrumbs" x="294" y="245" xmlns="http://www.w3.org/2000/svg"><path d="M13.244 4.513l-3.99 3.99-.427-.441c-.093-.093-.13-.187-.112-.28a.601.601 0 0 1 .154-.266l2.009-1.995c.107-.112.21-.212.308-.301.103-.089.2-.168.294-.238-.238.033-.488.058-.749.077-.257.014-.52.021-.791.021H.826V3.939H9.94a11.006 11.006 0 0 1 1.54.105 6.246 6.246 0 0 1-.287-.245 8.777 8.777 0 0 1-.315-.301L8.855 1.489a.524.524 0 0 1-.154-.266c-.019-.093.016-.187.105-.28L9.24.495l4.004 4.018z" fill="#999"/></svg><svg width="14" height="9" fill="none" viewBox="0 0 14 9" id="arrow-white" x="265" y="237" xmlns="http://www.w3.org/2000/svg"><path d="M13.244 4.513l-3.99 3.99-.427-.441c-.093-.093-.13-.187-.112-.28a.601.601 0 0 1 .154-.266l2.009-1.995c.112-.112.217-.212.315-.301s.194-.17.287-.245a11.027 11.027 0 0 1-1.54.105H.826V3.939H9.94a11.298 11.298 0 0 1 1.547.105 10.296 10.296 0 0 1-.294-.245 8.777 8.777 0 0 1-.315-.301L8.855 1.489a.524.524 0 0 1-.154-.266c-.019-.093.016-.187.105-.28L9.24.495l4.004 4.018z" fill="#fff"/></svg><svg width="280" height="158" fill="none" viewBox="0 0 280 158" id="background_of_miniature" xmlns="http://www.w3.org/2000/svg"><g filter="url(#adfilter0_d)"><path d="M28.916 12H268v134H28.916V92.915L12 77.97l16.916-14.946V12z" fill="#fff"/></g><defs><filter id="adfilter0_d" x="0" y="0" width="280" height="158" filterUnits="userSpaceOnUse" color-interpolation-filters="sRGB"><feFlood flood-opacity="0" result="BackgroundImageFix"/><feColorMatrix in="SourceAlpha" values="0 0 0 0 0 0 0 0 0 0 0 0 0 0 0 0 0 0 127 0"/><feOffset/><feGaussianBlur stdDeviation="6"/><feColorMatrix values="0 0 0 0 1 0 0 0 0 0.4 0 0 0 0 0 0 0 0 0.2 0"/><feBlend in2="BackgroundImageFix" result="effect1_dropShadow"/><feBlend in="SourceGraphic" in2="effect1_dropShadow" result="shape"/></filter></defs></svg><svg width="23" height="24" fill="none" viewBox="0 0 23 24" id="clip" x="314" y="24" xmlns="http://www.w3.org/2000/svg"><path d="M21.26 2c-2.32-2.666-6.082-2.666-8.402 0L1.306 15.273c-1.741 2-1.741 5.241 0 7.241 1.434 1.65 3.598 1.915 5.29.845a.693.693 0 0 0 .486-.24L18.634 9.845c1.16-1.333 1.16-3.494 0-4.826-1.16-1.333-3.04-1.333-4.2 0l-9.452 10.86a.946.946 0 0 0 0 1.208c.29.332.76.332 1.05 0l9.452-10.862c.58-.667 1.52-.667 2.1 0 .58.668.58 1.748 0 2.413L6.556 21.311c-1.16 1.332-3.04 1.332-4.2 0-1.16-1.333-1.16-3.494 0-4.827L13.908 3.206c1.74-2 4.561-2 6.302 0 1.74 2 1.74 5.241 0 7.242L9.708 22.514a.946.946 0 0 0 0 1.207c.29.333.76.333 1.05 0L21.26 11.654c2.32-2.666 2.32-6.989 0-9.655z" fill="#F60"/></svg><svg width="14" height="14" fill="none" viewBox="0 0 14 14" id="close" x="254" y="284" xmlns="http://www.w3.org/2000/svg"><path fill="#999" d="M1.154 0L14 13.164l-.816.836L.338.836z"/><path fill="#999" d="M0 13.164L12.846 0l.816.836L.816 14z"/></svg><svg width="12" height="8" viewBox="0 0 12 8" id="down" x="326" y="231" xmlns="http://www.w3.org/2000/svg"><path d="M1.4.3L0 1.7l6 6 6-6L10.6.3 6 4.9 1.4.3z"/></svg><svg width="14" height="17" fill="none" viewBox="0 0 14 17" id="download" x="265" y="220" xmlns="http://www.w3.org/2000/svg"><path d="M14 6.028l-7.024 6.945L0 6.028h3.976V0H10v6.028h4zM0 14.987h14V17H0v-2.014z" fill="#fff"/></svg><svg width="12" height="22" fill="none" viewBox="0 0 12 22" id="facebook" x="314" y="218" xmlns="http://www.w3.org/2000/svg"><path d="M11.499.005L8.646 0C5.441 0 3.37 2.125 3.37 5.414v2.497H.5c-.248 0-.448.2-.448.448v3.617c0 .248.2.449.448.449h2.87v9.126c0 .248.2.449.448.449h3.743a.449.449 0 0 0 .448-.449v-9.126h3.354c.248 0 .449-.2.449-.449l.001-3.617a.45.45 0 0 0-.449-.448H8.01V5.794c0-1.017.243-1.533 1.568-1.533H11.5a.45.45 0 0 0 .448-.45V.454c0-.247-.2-.448-.448-.448z" fill="#DCDCDC"/></svg><svg width="48" height="28" fill="none" viewBox="0 0 48 28" id="fact-label-left" x="62" y="158" xmlns="http://www.w3.org/2000/svg"><path d="M47.884 0H0l7.523 14.007L0 28h47.884V0z" fill="#2B8100"/><path d="M20.162 3.94L47.847 0l.037 8-27.722-4.06z" fill="#1E5A00"/></svg><svg width="48" height="28" fill="none" viewBox="0 0 48 28" id="fact-label-right" x="110" y="158" xmlns="http://www.w3.org/2000/svg"><path d="M.116 0H48l-7.512 14.007L48 28H.116V0z" fill="#2B8100"/><path d="M27.838 3.94L.166 0l-.05 8 27.722-4.06z" fill="#1E5A00"/></svg><svg width="26" height="27" fill="none" viewBox="0 0 26 27" id="fb-circle" x="236" y="186" xmlns="http://www.w3.org/2000/svg"><path d="M13 .07c-7.168 0-13 5.83-13 13 0 7.167 5.832 13 13 13s13-5.833 13-13c0-7.169-5.831-13-13-13zm3.233 13.457h-2.115v7.539h-3.134v-7.539h-1.49v-2.664h1.49V9.14c0-1.235.586-3.163 3.163-3.163l2.322.009v2.586h-1.686c-.274 0-.664.137-.664.726v1.566h2.388l-.274 2.663z" fill="#999"/></svg><svg width="14" height="13" fill="none" viewBox="0 0 14 13" id="filter" x="171" y="257" xmlns="http://www.w3.org/2000/svg"><path d="M13.96.245A.424.424 0 0 0 13.575 0H.424a.424.424 0 0 0-.383.245A.43.43 0 0 0 .097.7l5.056 6.178v5.696a.428.428 0 0 0 .424.427.422.422 0 0 0 .188-.044l2.84-1.419a.428.428 0 0 0 .237-.382l.005-4.278L13.903.699a.43.43 0 0 0 .056-.454zM8.096 6.451a.43.43 0 0 0-.097.271l-.006 4.167-1.992.995V6.723a.43.43 0 0 0-.097-.272L1.324.855h11.352L8.096 6.45z" fill="#999"/></svg><svg width="33" height="28" fill="none" viewBox="0 0 33 28" id="garant" x="280" y="32" xmlns="http://www.w3.org/2000/svg"><path d="M3.574 8.412A18.748 18.748 0 0 1 9.65 6.346c5.165-.839 9.673-.2 13.184 2.43a6.168 6.168 0 0 1 2.286-1.503c1.654-.426 1.806 0 1.528 1.352-.101.476-.24 1.04-.366 1.59 1.717 1.653.67 3.269 4.508 3.97.708.125 1.048 0 1.2.889.215 1.252-.48 4.382-2.703 4.47-2.349 1.89-1.856 1.966-4.697 2.58-.973.2-1.617.55-2.008 2.178a6.72 6.72 0 0 0 .164 3.444 9.893 9.893 0 0 1-4.244 0 10.173 10.173 0 0 1-2.07-4.045c-3.17.526-5.052.551-7.389-.526a18.569 18.569 0 0 1-1.704 4.57 5.449 5.449 0 0 1-3.132 0C4.016 25.768.152 20.847.013 15.688a8.235 8.235 0 0 1 1.263-4.858C.013 9.101.392 7.336 1.44 6.86c-.177 1.516.72 2.255 2.147 1.503l-.013.05z" fill="#F60"/><path d="M19.6 11.042a18.282 18.282 0 0 0-9.85-.814c-.638.106-1.27.244-1.895.413" stroke="#fff" stroke-width="2.166" stroke-linecap="round" stroke-linejoin="round"/><path fill-rule="evenodd" clip-rule="evenodd" d="M13.727.812a6.125 6.125 0 0 1 3.312.95 6.05 6.05 0 0 1 2.261 2.58 5.988 5.988 0 0 1-.963 6.487 20.975 20.975 0 0 0-8.84-.3l-.569.1A5.965 5.965 0 0 1 8.163 4.2a6.029 6.029 0 0 1 2.283-2.5 6.101 6.101 0 0 1 3.281-.888z" fill="#fff"/><path fill-rule="evenodd" clip-rule="evenodd" d="M13.728 1.739c1.01-.016 2 .268 2.845.815a5.02 5.02 0 0 1 1.895 2.257c.39.923.492 1.94.293 2.922a4.995 4.995 0 0 1-1.408 2.583 20.555 20.555 0 0 0-7.363-.125 4.97 4.97 0 0 1-.95-5.48 5.021 5.021 0 0 1 1.916-2.197 5.084 5.084 0 0 1 2.823-.775h-.05z" fill="#F60"/></svg><svg width="21" height="18" fill="none" viewBox="0 0 21 18" id="garant-product" x="129" y="257" xmlns="http://www.w3.org/2000/svg"><path d="M2.344 5.172a12.293 12.293 0 0 1 3.983-1.355c3.387-.55 6.343-.131 8.645 1.593a4.045 4.045 0 0 1 1.499-.985c1.085-.28 1.184 0 1.002.886-.066.312-.157.682-.24 1.043 1.126 1.084.439 2.143 2.956 2.603.464.082.687 0 .787.583.14.821-.315 2.874-1.772 2.931-1.54 1.24-1.218 1.29-3.08 1.691-.639.132-1.06.362-1.318 1.43a4.406 4.406 0 0 0 .108 2.257 6.488 6.488 0 0 1-2.782 0 6.67 6.67 0 0 1-1.358-2.652c-2.079.345-3.313.361-4.845-.345a12.177 12.177 0 0 1-1.118 2.997 3.57 3.57 0 0 1-2.053 0C2.633 16.552.099 13.325.008 9.942a5.4 5.4 0 0 1 .828-3.185C.008 5.624.256 4.466.944 4.154c-.116.993.472 1.478 1.408.985l-.008.033z" fill="#F60"/><path d="M12.852 6.896a11.988 11.988 0 0 0-6.459-.533c-.418.069-.833.16-1.242.27" stroke="#fff" stroke-width="1.42" stroke-linecap="round" stroke-linejoin="round"/><path fill-rule="evenodd" clip-rule="evenodd" d="M9.002.188a4.017 4.017 0 0 1 2.172.623c.648.41 1.163.998 1.482 1.692a3.928 3.928 0 0 1-.632 4.254 13.753 13.753 0 0 0-5.796-.197l-.373.065a3.912 3.912 0 0 1-.501-4.216c.33-.676.85-1.245 1.496-1.639A4 4 0 0 1 9.002.188z" fill="#fff"/><path fill-rule="evenodd" clip-rule="evenodd" d="M9.001.796a3.333 3.333 0 0 1 1.866.535c.554.359.986.874 1.242 1.48a3.26 3.26 0 0 1-.731 3.609 13.478 13.478 0 0 0-4.828-.082 3.259 3.259 0 0 1-.622-3.593 3.292 3.292 0 0 1 1.255-1.441A3.334 3.334 0 0 1 9.034.796h-.033z" fill="#F60"/></svg><svg width="19" height="23" fill="none" viewBox="0 0 19 23" id="gift4" x="314" y="89" xmlns="http://www.w3.org/2000/svg"><path fill-rule="evenodd" clip-rule="evenodd" d="M.778 7.361h18.055V23H.778V7.361z" fill="#F60"/><path d="M9.786 7.361c-.317-2.407-.615-3.764-1.692-4.896-1.077-1.133-2.576-1.367-3.384-.51-.808.856-.596 2.448.48 3.61 1.077 1.164 2.347 1.46 4.596 1.796zm0 0c.327-2.407.625-3.764 1.702-4.896 1.077-1.133 2.596-1.367 3.404-.51.807.856.663 2.448-.462 3.61-1.125 1.164-2.346 1.46-4.644 1.796z" stroke="#F60" stroke-width="1.56" stroke-linecap="round" stroke-linejoin="round"/><path d="M13.315 16.053v1.153a.378.378 0 0 1-.096.265.363.363 0 0 1-.28.112h-.566v2.224H10.69v-2.224H7.017a.5.5 0 0 1-.327-.122.466.466 0 0 1-.183-.296l-.201-1.02 4.22-6.009h1.847v5.917h.942zm-2.625 0v-3.03c0-.184 0-.367.048-.561l-2.394 3.59h2.346z" fill="#fff"/></svg><svg width="16" height="19" fill="none" viewBox="0 0 16 19" id="gift5" x="172" y="284" xmlns="http://www.w3.org/2000/svg"><path fill-rule="evenodd" clip-rule="evenodd" d="M.333 6.081H15.5v12.92H.333V6.08z" fill="#F60"/><path d="M7.916 6.081c-.266-1.989-.516-3.11-1.42-4.045-.905-.936-2.181-1.13-2.86-.421-.678.707-.5 2.022.404 2.983.905.96 1.97 1.205 3.876 1.483zm.001 0c.274-1.989.524-3.11 1.429-4.045.905-.936 2.156-1.13 2.859-.421.703.707.492 2.039-.404 2.983S9.831 5.803 7.916 6.08z" stroke="#F60" stroke-width="1.56" stroke-linecap="round" stroke-linejoin="round"/><path d="M7.279 11.222h.799c.367-.006.73.06 1.074.193.302.113.577.29.808.523.212.221.375.489.476.784.108.304.163.627.162.952.005.402-.07.8-.218 1.171a2.807 2.807 0 0 1-.606.919 2.904 2.904 0 0 1-.929.59 3.194 3.194 0 0 1-1.179.21 2.848 2.848 0 0 1-.718-.084 2.942 2.942 0 0 1-.63-.219 3.194 3.194 0 0 1-.55-.32 3.637 3.637 0 0 1-.46-.396l.5-.7a.507.507 0 0 1 .187-.168.436.436 0 0 1 .193-.085c.106.002.21.034.3.093l.306.194c.121.081.251.146.388.194.173.065.357.097.54.092.193.005.383-.035.558-.117.147-.07.277-.174.38-.304.098-.135.17-.29.21-.455.042-.182.064-.369.064-.556a1.19 1.19 0 0 0-.074-.455 1.152 1.152 0 0 0-.24-.388 1.242 1.242 0 0 0-.897-.303c-.346 0-.688.07-1.01.202l-1.01-.287.655-4.002h3.925v.707a.989.989 0 0 1-.057.32.608.608 0 0 1-.161.245.942.942 0 0 1-.299.169 1.708 1.708 0 0 1-.444.059H7.464l-.185 1.222z" fill="#fff"/></svg><svg width="20" height="20" fill="none" viewBox="0 0 20 20" id="inst" x="114" y="284" xmlns="http://www.w3.org/2000/svg"><path d="M20 7.965v8.23c0 2.124-1.77 3.893-3.894 3.893H3.894C1.77 20.088 0 18.319 0 16.195V3.894C0 1.77 1.77 0 3.894 0h12.3c2.125 0 3.895 1.77 3.895 3.894v4.07H20z" fill="#DCDCDC"/><path d="M10 13.54A3.55 3.55 0 0 0 13.54 10c0-.796-.265-1.504-.707-2.035C12.213 7.08 11.15 6.46 10 6.46s-2.213.62-2.832 1.505c-.443.62-.708 1.327-.708 2.035A3.55 3.55 0 0 0 10 13.54zm7.699-7.876V2.3h-3.363v3.363h3.363z" fill="#fff"/><path d="M15.487 10c0 3.009-2.478 5.487-5.487 5.487-3.008 0-5.486-2.478-5.486-5.487 0-.708.177-1.416.442-2.035H1.947v8.23c0 1.062.885 1.947 1.947 1.947h12.301a1.964 1.964 0 0 0 1.947-1.947v-8.23h-3.097c.265.619.442 1.327.442 2.035z" fill="#fff"/></svg><svg width="26" height="27" fill="none" viewBox="0 0 26 27" id="inst-circle" x="184" y="186" xmlns="http://www.w3.org/2000/svg"><path d="M12.999 15.507a2.441 2.441 0 0 0 2.438-2.437 2.43 2.43 0 0 0-.46-1.421A2.434 2.434 0 0 0 13 10.632c-.814 0-1.534.402-1.977 1.016-.289.4-.461.89-.461 1.421a2.439 2.439 0 0 0 2.436 2.438zm5.689-5.696V7.382l-.318.001-2.12.007.008 2.43 2.43-.009z" fill="#999"/><path d="M13 .07c-7.168 0-13 5.83-13 13 0 7.167 5.832 13 13 13s13-5.833 13-13c0-7.169-5.831-13-13-13zm7.393 11.483v6.053a2.86 2.86 0 0 1-2.857 2.858H8.464a2.86 2.86 0 0 1-2.857-2.858V8.534a2.86 2.86 0 0 1 2.857-2.857h9.071a2.86 2.86 0 0 1 2.858 2.857v3.019z" fill="#999"/><path d="M16.865 12.93c0 2.182-1.733 3.959-3.864 3.959s-3.864-1.777-3.864-3.96c0-.524.102-1.026.284-1.484H7.313v5.926c0 .766.606 1.386 1.353 1.386h8.668c.746 0 1.354-.62 1.354-1.386v-5.926h-2.11c.183.458.287.96.287 1.485z" fill="#999"/></svg><svg width="8" height="13" viewBox="0 0 8 13" id="left" x="306" y="142" xmlns="http://www.w3.org/2000/svg"><path d="M7.7 1.47L6.3.07l-6 6 6 6 1.4-1.4-4.6-4.6 4.6-4.6z"/></svg><svg width="15" height="19" fill="none" viewBox="0 0 15 19" id="location" x="262" y="186" xmlns="http://www.w3.org/2000/svg"><path d="M7.5 1c1.724 0 3.377.695 4.596 1.931A6.642 6.642 0 0 1 14 7.594a10.138 10.138 0 0 1-1.543 4.75 28.136 28.136 0 0 1-3.96 5.252A1.348 1.348 0 0 1 7.54 18a1.333 1.333 0 0 1-.957-.404v0a27.755 27.755 0 0 1-3.995-5.252A10.135 10.135 0 0 1 1 7.595c0-1.749.685-3.426 1.904-4.663A6.453 6.453 0 0 1 7.5 1v0z" stroke="#999" stroke-linecap="round" stroke-linejoin="round"/><path d="M7.5 4.31c.64 0 1.266.193 1.798.554.533.36.948.873 1.193 1.473.245.6.309 1.26.184 1.897a3.299 3.299 0 0 1-.886 1.682 3.23 3.23 0 0 1-1.657.898 3.194 3.194 0 0 1-1.87-.187 3.247 3.247 0 0 1-1.453-1.209 3.317 3.317 0 0 1-.546-1.824 3.316 3.316 0 0 1 .244-1.258c.163-.4.401-.761.702-1.067a3.21 3.21 0 0 1 1.051-.711A3.188 3.188 0 0 1 7.5 4.31v0z" stroke="#999" stroke-linecap="round" stroke-linejoin="round"/></svg><svg width="27" height="27" fill="none" viewBox="0 0 27 27" id="lupa" x="212" y="220" xmlns="http://www.w3.org/2000/svg"><path d="M10.258 1c1.83 0 3.62.548 5.143 1.573a9.32 9.32 0 0 1 3.41 4.19c.7 1.706.884 3.583.527 5.394a9.36 9.36 0 0 1-2.534 4.78 9.234 9.234 0 0 1-4.74 2.555 9.185 9.185 0 0 1-5.349-.531 9.275 9.275 0 0 1-4.155-3.439A9.392 9.392 0 0 1 1 10.336c0-2.476.975-4.85 2.712-6.602A9.219 9.219 0 0 1 10.258 1v0zM26 26l-8.945-9.02m-2.24-6.644H5.7m4.558-4.294v8.574" stroke="#fff" stroke-linecap="round" stroke-linejoin="round"/></svg><svg width="18" height="18" fill="none" viewBox="0 0 18 18" id="lupa2" x="188" y="284" xmlns="http://www.w3.org/2000/svg"><path d="M6.925 1a5.89 5.89 0 0 1 3.292 1.007 5.965 5.965 0 0 1 2.182 2.681 6.021 6.021 0 0 1 .337 3.452 5.99 5.99 0 0 1-1.621 3.06 5.91 5.91 0 0 1-3.034 1.635 5.88 5.88 0 0 1-3.423-.34 5.936 5.936 0 0 1-2.66-2.2 6.01 6.01 0 0 1 .737-7.545A5.9 5.9 0 0 1 6.925 1v0zM17 17l-5.725-5.773m-.523-4.409H3.25m3.751-3.636v7.272" stroke="#fff" stroke-linecap="round" stroke-linejoin="round"/></svg><svg width="23" height="18" fill="none" viewBox="0 0 23 18" id="mail" x="314" y="48" xmlns="http://www.w3.org/2000/svg"><path d="M2.768 1h17.464c.469 0 .918.187 1.25.52.332.334.518.786.518 1.258v12.444c0 .472-.186.924-.518 1.257a1.761 1.761 0 0 1-1.25.521H2.768c-.469 0-.918-.187-1.25-.52A1.783 1.783 0 0 1 1 15.221V2.778c0-.472.186-.924.518-1.257A1.761 1.761 0 0 1 2.768 1v0z" stroke="#999" stroke-width="1.2" stroke-linecap="round" stroke-linejoin="round"/><path d="M21.801 1.967l-8.09 8.122a3.153 3.153 0 0 1-4.421 0L1.2 1.967" stroke="#999" stroke-width="1.2" stroke-linecap="round" stroke-linejoin="round"/><path d="M8.582 9.378l-7.062 7.1 7.062-7.1zm12.898 7.1l-7.062-7.09" stroke="#999" stroke-width="1.2" stroke-linecap="round" stroke-linejoin="round"/></svg><svg width="21" height="16" fill="none" viewBox="0 0 21 16" id="mail-header" x="150" y="257" xmlns="http://www.w3.org/2000/svg"><path d="M2.6 1h15.8A1.6 1.6 0 0 1 20 2.6v11.2a1.6 1.6 0 0 1-1.6 1.6H2.6A1.6 1.6 0 0 1 1 13.8V2.6A1.6 1.6 0 0 1 2.6 1v0z" stroke="#999" stroke-linecap="round" stroke-linejoin="round"/><path d="M19.82 1.87L12.5 9.18a2.86 2.86 0 0 1-4 0L1.18 1.87m6.68 6.67l-6.39 6.39 6.39-6.39zm11.67 6.39l-6.39-6.38" stroke="#999" stroke-linecap="round" stroke-linejoin="round"/></svg><svg width="22" height="18" fill="none" viewBox="0 0 22 18" id="mail-zap" x="314" y="156" xmlns="http://www.w3.org/2000/svg"><path d="M2.684 1h16.632c.447 0 .875.187 1.19.52.317.334.494.786.494 1.258v12.444c0 .472-.177.924-.493 1.257a1.64 1.64 0 0 1-1.191.521H2.684a1.64 1.64 0 0 1-1.19-.52A1.83 1.83 0 0 1 1 15.221V2.778c0-.472.177-.924.493-1.257A1.64 1.64 0 0 1 2.684 1v0z" stroke="#F60" stroke-linecap="round" stroke-linejoin="round"/><path d="M20.81 1.967l-7.705 8.122a2.93 2.93 0 0 1-2.105.906 2.93 2.93 0 0 1-2.105-.906L1.189 1.967M8.22 9.378l-6.726 7.1 6.726-7.1zm12.286 7.1l-6.727-7.09" stroke="#F60" stroke-linecap="round" stroke-linejoin="round"/></svg><svg width="34" height="32" fill="none" viewBox="0 0 34 32" id="menu1" x="280" xmlns="http://www.w3.org/2000/svg"><path d="M23.19 14.248h-5.53m5.53 2.5H19M8.17 12.723c3.9.57 5.74 3.185 7.34 6.764h4.34a15.04 15.04 0 0 0-2.19-5.187l3.21-3.352h2.6V9.506c.006-.208.062-.411.16-.592.1-.18.24-.334.41-.445h1.08c.17.11.312.263.412.444.099.18.154.385.158.593v1.556c7.59.685 7.3 3.611 7.3 11.31l-2.07 1.099a5.682 5.682 0 0 0-2.491-2.904 5.365 5.365 0 0 0-3.703-.594 5.506 5.506 0 0 0-3.22 1.986 5.881 5.881 0 0 0-1.266 3.66h-6c.06-.381.09-.766.09-1.152a7.095 7.095 0 0 0-.966-3.597 6.754 6.754 0 0 0-2.632-2.548 6.447 6.447 0 0 0-6.912.511L1 14.082a10.94 10.94 0 0 1 3.83-1.35L3.57 8.107c2-.55 2.76 0 3.51 1.836l1.09 2.78z" stroke="#999" stroke-linecap="round" stroke-linejoin="round"/><path d="M7.65 20.306c.791 0 1.564.243 2.222.7a4.12 4.12 0 0 1 1.473 1.862c.303.758.382 1.593.228 2.398a4.2 4.2 0 0 1-1.095 2.125 3.96 3.96 0 0 1-2.048 1.135c-.776.16-1.58.078-2.31-.236a4.036 4.036 0 0 1-1.796-1.528 4.262 4.262 0 0 1-.674-2.306c0-1.1.421-2.156 1.171-2.934a3.928 3.928 0 0 1 2.829-1.216v0z" stroke="#999" stroke-linecap="round" stroke-linejoin="round"/><path d="M7.65 17.567a6.48 6.48 0 0 1 3.695 1.163 6.852 6.852 0 0 1 2.449 3.096 7.14 7.14 0 0 1 .378 3.987 6.983 6.983 0 0 1-1.82 3.532 6.58 6.58 0 0 1-3.405 1.888 6.427 6.427 0 0 1-3.842-.392A6.71 6.71 0 0 1 2.121 28.3 7.085 7.085 0 0 1 1 24.467a7.114 7.114 0 0 1 .504-2.642 6.911 6.911 0 0 1 1.44-2.24 6.629 6.629 0 0 1 2.16-1.495 6.43 6.43 0 0 1 2.546-.523v0zm18.13 4.835a3.02 3.02 0 0 1 1.722.542c.51.353.908.856 1.142 1.443a3.33 3.33 0 0 1 .177 1.858 3.256 3.256 0 0 1-.849 1.647c-.433.45-.986.756-1.587.88a2.996 2.996 0 0 1-1.791-.182 3.128 3.128 0 0 1-1.391-1.185 3.323 3.323 0 0 1-.287-3.018c.156-.39.384-.745.672-1.043.288-.299.63-.536 1.006-.697.376-.162.78-.245 1.186-.245v0z" stroke="#999" stroke-linecap="round" stroke-linejoin="round"/><path d="M25.78 19.87c1.096 0 2.167.338 3.078.97a5.707 5.707 0 0 1 2.04 2.579c.42 1.05.53 2.206.316 3.32a5.818 5.818 0 0 1-1.516 2.944 5.481 5.481 0 0 1-2.837 1.573 5.353 5.353 0 0 1-3.2-.328 5.589 5.589 0 0 1-2.487-2.117 5.901 5.901 0 0 1-.934-3.193 5.86 5.86 0 0 1 1.623-4.064 5.44 5.44 0 0 1 3.917-1.683zm-.17-18.384a1.447 1.447 0 0 0-.774.608c-.182.29-.262.636-.226.98v5.363m-7.24 2.003l1.97 2.044m.25-4.347l-4.44 4.606m15.75-.207c-2.43.674-3.16 4.513 2 4.15-.21-1.93-.71-3.279-2-4.15z" stroke="#999" stroke-linecap="round" stroke-linejoin="round"/></svg><svg width="22" height="26" fill="none" viewBox="0 0 22 26" id="menu10" y="284" xmlns="http://www.w3.org/2000/svg"><path d="M13.05 13.02c0-2.397 5.91-3.113 6-9.94h2V.56H1v2.52h2c.08 6.817 6 7.543 6 9.94 0 2.396-5.91 3.112-6 9.939H1v2.531h20.06v-2.53h-2c-.08-6.806-6-7.532-6-9.94h-.01z" stroke="#999" stroke-linecap="round" stroke-linejoin="round"/><path d="M1 .56h20.06v2.52H1V.56zm0 22.399h20.06v2.532H1v-2.532z" stroke="#999" stroke-linecap="round" stroke-linejoin="round"/><path d="M11.03 18.591c.68 1.224 3 2.293 4.09 4.378H6.94c1.12-2.075 3.41-3.112 4.09-4.378v0zM3.98 7.147h14.1m-4.39 4.555c-.87.903-1.78 1.805-2.66 2.698-.82-.83-1.47-1.526-2.65-2.698" stroke="#999" stroke-linecap="round" stroke-linejoin="round"/></svg><svg width="27" height="28" fill="none" viewBox="0 0 27 28" id="menu11" x="157" y="220" xmlns="http://www.w3.org/2000/svg"><path d="M4.92 3.549H1c0 5.478 2.32 8.518 6.89 9.555" stroke="#999" stroke-linecap="round" stroke-linejoin="round"/><path d="M13.75 1.06H4.86c0 6.068.87 10.893 5.68 14.773 1.88 1.515 2.34 2.677-.08 3.434-1.45.446-3.38 1.037-3.42 2.428v5.571H20.5v-5.571c0-1.37-2-1.982-3.42-2.428-2.42-.757-2-1.92-.08-3.434 4.77-3.88 5.64-8.705 5.64-14.774h-8.89z" stroke="#999" stroke-linecap="round" stroke-linejoin="round"/><path d="M17.65 25.004h-7.8v-3.07h7.8v3.07zm-1.22-14.089v1.94h-5.36v-1.94h1.71V6.288l-1 .871a.66.66 0 0 1-.27.135h-.25a.686.686 0 0 1-.2-.083.435.435 0 0 1-.14-.124l-.6-1.11 2.79-2.428h1.85v7.366h1.47zm6.15-7.366h3.92c0 5.478-2.32 8.518-6.89 9.555" stroke="#999" stroke-linecap="round" stroke-linejoin="round"/></svg><svg width="27" height="24" fill="none" viewBox="0 0 27 24" id="menu12" x="220" y="158" xmlns="http://www.w3.org/2000/svg"><path d="M3.71 3.947h4.92v6.319H3.71V3.947z" stroke="#999" stroke-linecap="round" stroke-linejoin="round"/><path d="M1 .596h17.73V23.09H1V.596zm17.73 6.505h7.14V23.09h-7.14V7.101zM3.71 19.738h12.32M3.71 16.573h12.32M3.71 13.42h12.32m-4.85-3.154h4.85m-4.85-3.165h4.85m-4.85-3.154h4.85m2.7 15.791h4.43m-4.43-3.165h4.43m-4.43-3.153h4.43m-4.43-3.154h4.43" stroke="#999" stroke-linecap="round" stroke-linejoin="round"/></svg><svg width="25" height="26" fill="none" viewBox="0 0 25 26" id="menu13" x="78" y="257" xmlns="http://www.w3.org/2000/svg"><path d="M12.497 1.133c1.803 0 3.58.438 5.19 1.282a11.618 11.618 0 0 1 4.073 3.574 12.171 12.171 0 0 1 2.08 5.097 12.362 12.362 0 0 1-.36 5.523 12.031 12.031 0 0 1-2.723 4.76 11.454 11.454 0 0 1-4.5 2.972 11.102 11.102 0 0 1-5.309.545 11.255 11.255 0 0 1-4.974-2L1 24.995l2.033-5.162a12.228 12.228 0 0 1-2.009-6.056 12.308 12.308 0 0 1 1.298-6.261 11.762 11.762 0 0 1 4.23-4.663 11.185 11.185 0 0 1 5.945-1.72v0zM6.628 8.63h11.74m-11.74 4.434h11.74m-11.74 4.434h11.74" stroke="#999" stroke-linecap="round" stroke-linejoin="round"/></svg><svg width="28" height="28" fill="none" viewBox="0 0 28 28" id="menu14" x="129" y="220" xmlns="http://www.w3.org/2000/svg"><path d="M3.88 15.884a21.16 21.16 0 0 0 1.84 2.583 12.94 12.94 0 0 1 2.83 1.422c-.37-.52-.84-1.142-1.24-1.743-.4-.602-.59-1.038-.84-1.4-1-1.557.9-2.335 2-1.09.348.403.647.85.89 1.328a11.297 11.297 0 0 0 2 2.78c1.91 2.19 1.27 4.627 1.19 7.014H7.92a7.02 7.02 0 0 0 .07-2.532c-.76-1.1-3.26-1.64-4.41-3.112-.53-1.35-1.17-2.708-1.68-3.974a24.804 24.804 0 0 1-.9-5.073v-.052c2.5-.737 2.32 2.77 2.88 3.849zM14.09 3.745c1-2.075 2-3.112 4-3.112a3.874 3.874 0 0 1 1.558.306c.494.208.944.517 1.321.91.377.39.675.857.877 1.37.2.512.3 1.062.294 1.616 0 4.202-4.05 8.393-8.09 12.595-4.01-4.243-8.06-8.435-8.06-12.637 0-1.1.422-2.156 1.172-2.934A3.928 3.928 0 0 1 9.99.643c2 0 3 1.038 4.05 3.113l.05-.01z" stroke="#999" stroke-linecap="round" stroke-linejoin="round"/><path d="M10.04 2.947a1.714 1.714 0 0 0-.683.137 1.767 1.767 0 0 0-.579.4 1.842 1.842 0 0 0-.385.601 1.897 1.897 0 0 0-.133.708m16.03 11.091a21.178 21.178 0 0 1-1.79 2.583 12.92 12.92 0 0 0-2.83 1.422c.37-.52.84-1.142 1.24-1.743.4-.602.59-1.038.84-1.4 1.05-1.557-.9-2.335-2-1.09a6.63 6.63 0 0 0-.89 1.328 11.015 11.015 0 0 1-2.13 2.8c-1.91 2.17-1.23 4.607-1.23 6.994h4.71a7.015 7.015 0 0 1-.07-2.532c.76-1.1 3.26-1.64 4.41-3.112.53-1.35 1.17-2.708 1.68-3.974.475-1.653.776-3.354.9-5.073v-.052c-2.47-.737-2.32 2.77-2.88 3.849h.04z" stroke="#999" stroke-linecap="round" stroke-linejoin="round"/></svg><svg width="27" height="23" fill="none" viewBox="0 0 27 23" id="menu15" x="247" y="158" xmlns="http://www.w3.org/2000/svg"><path d="M25 11.1v9.96c-.003.36-.142.704-.387.959a1.297 1.297 0 0 1-.923.4H3.56c-.347 0-.68-.143-.926-.398a1.385 1.385 0 0 1-.384-.96V11.1" stroke="#999" stroke-linecap="round" stroke-linejoin="round"/><path d="M11.58 13.425L2.31 11.1C1.62 10.883 1 10.447 1 9.7V5.55a1.38 1.38 0 0 1 .398-.934c.244-.246.571-.384.912-.384h22.62c.347 0 .68.144.926.398.246.255.384.601.384.962v4.15c0 .746-.61 1.182-1.31 1.359l-9.27 2.365" stroke="#999" stroke-linecap="round" stroke-linejoin="round"/><path d="M12.28 9.938h2.68c.186 0 .364.077.495.213a.74.74 0 0 1 .205.514v5.083a.74.74 0 0 1-.206.51.69.69 0 0 1-.494.206h-2.68a.687.687 0 0 1-.491-.209.74.74 0 0 1-.209-.507v-5.083a.75.75 0 0 1 .208-.51.697.697 0 0 1 .492-.217v0zM9.25 4.232V2.603c0-.36.138-.706.384-.96.245-.255.579-.399.926-.399h6.12c.347 0 .68.144.926.398.246.255.384.601.384.961v1.63" stroke="#999" stroke-linecap="round" stroke-linejoin="round"/></svg><svg width="34" height="26" fill="none" viewBox="0 0 34 26" id="menu2" x="158" y="158" xmlns="http://www.w3.org/2000/svg"><path d="M4.765 3.767l-2.25 1.038a1.02 1.02 0 0 1-1.176-.178 1.089 1.089 0 0 1-.244-.351A1.07 1.07 0 0 1 1.3 3.093a.997.997 0 0 1 .345-.228l2.31-1.038.81 1.94zm5.89 1.515c1.16-.602 1.81-.374 3.07 0l3.4 1.11c1.49.664 2.75 1.432 2.74 3.268a8.867 8.867 0 0 1 3.79-3.02c3.697 1.012 6.978 3.24 9.35 6.35 0 3.631.26 7.532-4 8.072l-5.64-1.318a5.251 5.251 0 0 0 0-.684 5.902 5.902 0 0 0-.934-3.19 5.59 5.59 0 0 0-2.483-2.115 5.355 5.355 0 0 0-3.198-.33 5.48 5.48 0 0 0-2.835 1.568l-2.5-2.636a8.968 8.968 0 0 1 4.79-2.614l-6.07-4.088.52-.373v0z" stroke="#999" stroke-linecap="round" stroke-linejoin="round"/><path d="M3.705 1.173l1.31 3.206m24.01 16.693v3.725-3.725zM4.365 2.792a1.933 1.933 0 0 1 1.9.26l9.94 6.691-11.84-6.951zm13.5 13.051a3.02 3.02 0 0 1 1.722.543c.51.353.907.855 1.142 1.443a3.32 3.32 0 0 1 .176 1.858 3.255 3.255 0 0 1-.848 1.647c-.434.45-.986.756-1.587.88a2.996 2.996 0 0 1-1.791-.183 3.127 3.127 0 0 1-1.392-1.184 3.303 3.303 0 0 1-.522-1.787 3.31 3.31 0 0 1 .233-1.233 3.24 3.24 0 0 1 .672-1.045 3.02 3.02 0 0 1 2.195-.939v0zm0-2.531a5.398 5.398 0 0 1 3.08.964 5.707 5.707 0 0 1 2.045 2.577 5.953 5.953 0 0 1 .32 3.322 5.818 5.818 0 0 1-1.514 2.945 5.482 5.482 0 0 1-2.837 1.576 5.354 5.354 0 0 1-3.202-.325 5.59 5.59 0 0 1-2.488-2.117 5.902 5.902 0 0 1-.934-3.194c0-1.523.582-2.983 1.62-4.06a5.44 5.44 0 0 1 3.91-1.688v0zm11.65-3.808c-2.85.882-3 4.233 3.54 3.497a20.339 20.339 0 0 0-3.54-3.497v0zm3 8.84h-4m4.46-2.5h-4.46 4.46z" stroke="#999" stroke-linecap="round" stroke-linejoin="round"/></svg><svg width="34" height="31" fill="none" viewBox="0 0 34 31" id="menu3" x="72" y="220" xmlns="http://www.w3.org/2000/svg"><path d="M24.138 17.716h-6.26a6.996 6.996 0 0 0-3.13.747v-5.934l-5.54-6.454c1.91-.29 2.62-.715 4.32.675l3.39 2.428 6.23.695c6.86.767 8.17 7.885 1 7.885l-.01-.042zm0 .042l4.82 8.196m0-4.192c.791 0 1.565.244 2.222.7a4.12 4.12 0 0 1 1.474 1.862c.302.758.381 1.593.227 2.398a4.2 4.2 0 0 1-1.095 2.125 3.956 3.956 0 0 1-2.048 1.135c-.776.16-1.58.078-2.31-.236a4.036 4.036 0 0 1-1.796-1.528 4.261 4.261 0 0 1-.674-2.306c0-1.1.421-2.156 1.172-2.934a3.928 3.928 0 0 1 2.828-1.216v0zm0 2.324c.356 0 .704.11 1 .315.296.205.527.497.663.838.136.341.172.717.102 1.079a1.89 1.89 0 0 1-.492.956 1.78 1.78 0 0 1-.922.511 1.74 1.74 0 0 1-1.04-.106 1.816 1.816 0 0 1-.808-.688 1.918 1.918 0 0 1-.303-1.037c0-.496.19-.97.527-1.32a1.767 1.767 0 0 1 1.273-.548v0z" stroke="#999" stroke-linecap="round" stroke-linejoin="round"/><path d="M11.708 21.493a7.298 7.298 0 0 1 2.596-2.748 6.956 6.956 0 0 1 3.574-1.029m2.72 2.584a3.988 3.988 0 0 0-1.713 1.146 4.204 4.204 0 0 0-.947 1.873l2.66-3.02zm2.77 4.866a3.891 3.891 0 0 0-1.837-.98 3.804 3.804 0 0 0-2.063.118l3.9.862zm-2.68 4.917a4.234 4.234 0 0 0-.106-2.16 4.101 4.101 0 0 0-1.154-1.803l1.26 3.963zm-5.44.083a3.99 3.99 0 0 0 1.739-1.183 4.21 4.21 0 0 0 .931-1.93l-2.67 3.113zm-2.75-4.886a3.95 3.95 0 0 0 1.824.967c.678.153 1.384.12 2.046-.096l-3.87-.871zm2.68-4.928a4.3 4.3 0 0 0 .097 2.106c.207.681.58 1.296 1.083 1.784l-1.18-3.89zm3.63 3.216c.308.184.557.46.714.791a1.93 1.93 0 0 1-.26 2.057 1.793 1.793 0 0 1-.888.572 1.738 1.738 0 0 1-1.044-.035 1.803 1.803 0 0 1-.85-.63 1.923 1.923 0 0 1 .33-2.621 1.729 1.729 0 0 1 1.998-.133v-.001zm7.69-12.616c-2.44.684-2.85 4.316 2.41 3.932.16-1.36-.7-2.905-2.41-3.932zM4.668 3.409l-2.5.353a1.011 1.011 0 0 1-.766-.218 1.107 1.107 0 0 1-.184-1.511 1.03 1.03 0 0 1 .69-.408l2.51-.353.25 2.137z" stroke="#999" stroke-linecap="round" stroke-linejoin="round"/><path d="M18.858 15.03h-4.11M4.498 2.34c.404-.038.81.018 1.19.165a2.67 2.67 0 0 1 1 .686l8.06 9.338L4.498 2.34zM4.338.599l.4 3.465-.4-3.465zm14.52 11.93h-4.11 4.11z" stroke="#999" stroke-linecap="round" stroke-linejoin="round"/></svg><svg width="31" height="30" fill="none" viewBox="0 0 31 30" id="menu4" x="280" y="88" xmlns="http://www.w3.org/2000/svg"><path d="M18.59 20.075c.613 0 1.212.189 1.722.542.51.354.907.856 1.142 1.444a3.32 3.32 0 0 1 .176 1.858 3.254 3.254 0 0 1-.848 1.646 3.06 3.06 0 0 1-1.587.88 2.996 2.996 0 0 1-1.791-.182 3.128 3.128 0 0 1-1.392-1.185 3.303 3.303 0 0 1-.522-1.787c0-.853.326-1.67.908-2.274a3.044 3.044 0 0 1 2.192-.942v0zm0-2.531a5.398 5.398 0 0 1 3.08.963 5.706 5.706 0 0 1 2.045 2.578 5.95 5.95 0 0 1 .32 3.321 5.819 5.819 0 0 1-1.514 2.946 5.482 5.482 0 0 1-2.837 1.576 5.354 5.354 0 0 1-3.202-.326 5.589 5.589 0 0 1-2.488-2.116 5.902 5.902 0 0 1-.934-3.195c0-1.522.582-2.983 1.619-4.06a5.441 5.441 0 0 1 3.91-1.687v0zm9.14-12.19L24.28 17.99H30v2.687h-6.5a5.672 5.672 0 0 0-2.042-2.29 5.39 5.39 0 0 0-2.893-.846 5.391 5.391 0 0 0-2.894.846 5.672 5.672 0 0 0-2.041 2.29H3.05V17.99h10L10.21 7.532h14.47L21.82 17.99l3.46-12.637h-2.14v-4.18c2.22 0 4.59 1.867 4.59 4.15v.03zM5.17 17.99v-2.355m22.95 2.355l1.24-4.7-1.24 4.7zM5.17 22.627v-1.95 1.95zm0-.052l2.64 4.451 3.22 2.013h-4.8L1 24.993a5.26 5.26 0 0 1 1.8-1.737 5.038 5.038 0 0 1 2.37-.68v0zm17.94-9.285H18.2m5.59-2.5H18.2h5.59z" stroke="#999" stroke-linecap="round" stroke-linejoin="round"/></svg><svg width="28" height="25" fill="none" viewBox="0 0 28 25" id="menu5" x="192" y="158" xmlns="http://www.w3.org/2000/svg"><path d="M2.37 6.818l12.13 3.227V.822h2.16v9.793l3.09.82c-1.18 5.644 3.47 9.96 7.58 12.73H13.69l.22-3.85L1 10.917l1.37-4.098zm10.13 8.601H7.19m15.54 4.897h-8.82 8.82zM12.5 12.929H3.76h8.74z" stroke="#999" stroke-linecap="round" stroke-linejoin="round"/></svg><svg width="30" height="24" fill="none" viewBox="0 0 30 24" id="menu6" x="280" y="118" xmlns="http://www.w3.org/2000/svg"><path d="M26.93 15.775v2.864h-2.8a7.127 7.127 0 0 0-.466-5.804 6.804 6.804 0 0 0-1.934-2.207 6.514 6.514 0 0 0-2.652-1.152 6.407 6.407 0 0 0-2.872.119 6.558 6.558 0 0 0-2.555 1.367 6.863 6.863 0 0 0-1.758 2.36 7.106 7.106 0 0 0-.633 2.91 7.13 7.13 0 0 0 .736 3.147 6.855 6.855 0 0 0 2.034 2.455H8.25V18.64H4.96c-.632 0-1.238-.26-1.686-.723a2.527 2.527 0 0 1-.703-1.746v-4.327a1.552 1.552 0 0 1-1.108-.48 1.67 1.67 0 0 1-.462-1.149V5.027a1.683 1.683 0 0 1 .107-.636 1.65 1.65 0 0 1 .338-.543 1.526 1.526 0 0 1 1.124-.491h1.71c.21 0 .418.043.61.127.194.085.369.209.515.364a1.65 1.65 0 0 1 .446 1.179v8.715h2.4V3.367h9.13V1.396h3.23v1.96h3.67c.696 0 1.364.284 1.86.791a2.8 2.8 0 0 1 .79 1.917v6.64h2.21v3.113l-2.21-.042zm-9-6.432a6.47 6.47 0 0 1 3.69 1.16 6.84 6.84 0 0 1 2.445 3.092 7.13 7.13 0 0 1 .378 3.98 6.972 6.972 0 0 1-1.817 3.528 6.57 6.57 0 0 1-3.4 1.885 6.418 6.418 0 0 1-3.836-.392 6.7 6.7 0 0 1-2.98-2.537 7.073 7.073 0 0 1-1.12-3.827c0-1.827.7-3.58 1.945-4.871a6.52 6.52 0 0 1 4.695-2.018v0zm0 2.48a4.141 4.141 0 0 0-2.363.737 4.378 4.378 0 0 0-1.57 1.977 4.563 4.563 0 0 0-.246 2.549 4.463 4.463 0 0 0 1.16 2.26 4.205 4.205 0 0 0 2.177 1.21c.824.17 1.68.084 2.457-.25a4.289 4.289 0 0 0 1.909-1.623 4.528 4.528 0 0 0 .716-2.451 4.495 4.495 0 0 0-1.24-3.114 4.174 4.174 0 0 0-3-1.296zm1.22 5.187l2.45 1.463-2.45-1.463zm-2.45 0l-2.45 1.463 2.45-1.463zm1.23-2.2c-.278 0-.551.086-.783.247-.232.16-.412.39-.52.656a1.514 1.514 0 0 0-.08.846c.055.284.19.544.386.749a1.4 1.4 0 0 0 .722.4c.274.057.557.027.815-.083.258-.11.478-.298.633-.539a1.502 1.502 0 0 0-.176-1.847 1.385 1.385 0 0 0-.997-.429v0zm-5.57-6.017H8.25m4.11-2.5H8.25h4.11z" stroke="#999" stroke-linecap="round" stroke-linejoin="round"/></svg><svg width="26" height="27" fill="none" viewBox="0 0 26 27" id="menu7" x="52" y="257" xmlns="http://www.w3.org/2000/svg"><path d="M14.1.82l.68 2.573 2.27.768 2.01-1.67L21 3.954l-.91 2.49 1.41 2.012 2.56-.124.74 2.365-2.14 1.463v2.48l2.14 1.462-.74 2.366-2.56-.125-1.41 2.013.91 2.49-1.94 1.463-2.01-1.67-2.27.767-.68 2.573h-2.4l-.67-2.573-2.28-.767-2.01 1.67-1.94-1.463.91-2.49-1.4-2.013-2.57.125L1 16.102l2.15-1.462v-2.48L1 10.697l.74-2.365 2.57.124 1.4-2.013-.9-2.49 1.93-1.462 2.01 1.67 2.28-.768L11.7.82h2.4z" stroke="#999" stroke-linecap="round" stroke-linejoin="round"/><path d="M12.9 6.443a6.538 6.538 0 0 1 3.732 1.17 6.912 6.912 0 0 1 2.476 3.123 7.205 7.205 0 0 1 .384 4.024 7.046 7.046 0 0 1-1.837 3.567 6.639 6.639 0 0 1-3.438 1.906 6.486 6.486 0 0 1-3.88-.399 6.77 6.77 0 0 1-3.01-2.568A7.149 7.149 0 0 1 6.2 13.395c0-1.844.706-3.612 1.963-4.916A6.58 6.58 0 0 1 12.9 6.443v0z" stroke="#999" stroke-linecap="round" stroke-linejoin="round"/><path d="M12.9 8.954a4.18 4.18 0 0 1 2.387.746 4.419 4.419 0 0 1 1.585 1.997c.326.814.411 1.71.246 2.574a4.505 4.505 0 0 1-1.174 2.281 4.244 4.244 0 0 1-2.2 1.219 4.146 4.146 0 0 1-2.48-.256 4.329 4.329 0 0 1-1.925-1.644 4.57 4.57 0 0 1-.719-2.476 4.537 4.537 0 0 1 1.257-3.137A4.213 4.213 0 0 1 12.9 8.954v0z" stroke="#999" stroke-linecap="round" stroke-linejoin="round"/></svg><svg width="26" height="27" fill="none" viewBox="0 0 26 27" id="menu8" x="158" y="186" xmlns="http://www.w3.org/2000/svg"><path d="M3.7.523h18.53c.715.003 1.4.3 1.906.824.506.525.791 1.236.794 1.978v12.242a2.865 2.865 0 0 1-.794 1.978 2.661 2.661 0 0 1-1.906.823h-7.85l-5.13 7.439v-7.48H3.7a2.66 2.66 0 0 1-1.892-.809A2.863 2.863 0 0 1 1 15.567V3.325c0-.743.284-1.456.79-1.981A2.651 2.651 0 0 1 3.7.524v0z" stroke="#999" stroke-linecap="round" stroke-linejoin="round"/><path d="M4.21 7.454a2.321 2.321 0 0 1 .084-.935c.091-.302.243-.58.446-.817s.451-.426.73-.556a2.094 2.094 0 0 1 1.77 0c.278.13.527.32.73.556.202.236.354.515.446.817.091.302.12.62.084.935 0 2.282-2.16 1.037-2.16 4.42" stroke="#999" stroke-linecap="round" stroke-linejoin="round"/><path fill-rule="evenodd" clip-rule="evenodd" d="M6.37 13.347a.564.564 0 0 1 .353.197.605.605 0 0 1 0 .779.564.564 0 0 1-.593.176.565.565 0 0 1-.354-.322.61.61 0 0 1 .143-.689.565.565 0 0 1 .45-.141z" fill="#F60" stroke="#999" stroke-miterlimit="10"/><path d="M10.8 7.454c0-.594.227-1.164.632-1.585a2.12 2.12 0 0 1 1.528-.656 2.12 2.12 0 0 1 1.527.656c.405.42.633.99.633 1.585 0 2.282-2.16 1.037-2.16 4.42" stroke="#999" stroke-linecap="round" stroke-linejoin="round"/><path fill-rule="evenodd" clip-rule="evenodd" d="M12.96 13.347a.554.554 0 0 1 .32.094.61.61 0 0 1 .097.911.551.551 0 0 1-.622.133.575.575 0 0 1-.258-.217.607.607 0 0 1-.097-.33.602.602 0 0 1 .16-.417.56.56 0 0 1 .4-.174z" fill="#F60" stroke="#999" stroke-miterlimit="10"/><path d="M17.4 7.454c0-.594.228-1.164.633-1.585a2.12 2.12 0 0 1 1.527-.656 2.12 2.12 0 0 1 1.527.656c.405.42.633.99.633 1.585 0 2.282-2.16 1.037-2.16 4.42" stroke="#999" stroke-linecap="round" stroke-linejoin="round"/><path fill-rule="evenodd" clip-rule="evenodd" d="M19.56 13.347a.55.55 0 0 1 .317.1.588.588 0 0 1 .21.265.612.612 0 0 1-.124.644.55.55 0 0 1-.621.128.576.576 0 0 1-.256-.217.608.608 0 0 1 .071-.747.56.56 0 0 1 .403-.173z" fill="#F60" stroke="#999" stroke-miterlimit="10"/></svg><svg width="22" height="29" fill="none" viewBox="0 0 22 29" id="menu9" x="280" y="199" xmlns="http://www.w3.org/2000/svg"><path d="M14.647 20.83a2.766 2.766 0 0 1 1.022-1.087c.43-.258.921-.388 1.418-.376.221.028.445.004.656-.071.21-.075.402-.198.56-.361.158-.163.279-.361.352-.58a1.58 1.58 0 0 0 .072-.68 2.895 2.895 0 0 1 .359-1.468 2.76 2.76 0 0 1 1.041-1.063c.206-.09.39-.226.536-.4.147-.174.253-.38.311-.604a1.57 1.57 0 0 0-.247-1.31 2.858 2.858 0 0 1-.398-1.457c0-.515.138-1.02.398-1.458a1.58 1.58 0 0 0 .247-1.314 1.545 1.545 0 0 0-.31-.606 1.473 1.473 0 0 0-.537-.404 2.74 2.74 0 0 1-1.044-1.06 2.873 2.873 0 0 1-.356-1.471 1.58 1.58 0 0 0-.072-.68 1.533 1.533 0 0 0-.352-.58 1.462 1.462 0 0 0-.56-.36 1.42 1.42 0 0 0-.656-.071 2.624 2.624 0 0 1-1.417-.37 2.755 2.755 0 0 1-1.023-1.083 1.516 1.516 0 0 0-.385-.556 1.445 1.445 0 0 0-.583-.323 1.409 1.409 0 0 0-1.262.257c-.424.264-.91.404-1.405.404s-.98-.14-1.405-.404a1.418 1.418 0 0 0-1.267-.256c-.215.06-.415.17-.584.322a1.524 1.524 0 0 0-.389.556c-.237.45-.59.825-1.018 1.08a2.614 2.614 0 0 1-1.412.373 1.43 1.43 0 0 0-.654.075c-.21.075-.4.199-.558.361a1.55 1.55 0 0 0-.352.577 1.59 1.59 0 0 0-.076.678 2.874 2.874 0 0 1-.355 1.47 2.74 2.74 0 0 1-1.045 1.061c-.206.09-.39.229-.536.404a1.544 1.544 0 0 0-.31.606 1.58 1.58 0 0 0 .246 1.314 2.862 2.862 0 0 1 0 2.916 1.57 1.57 0 0 0-.247 1.31c.058.222.165.429.311.603.147.174.33.31.536.4a2.76 2.76 0 0 1 1.042 1.063c.246.446.37.954.358 1.469-.026.229-.001.462.072.68.074.218.194.416.352.579a1.454 1.454 0 0 0 1.216.432c.497-.01.987.12 1.417.378.43.258.784.633 1.023 1.084.088.212.22.401.388.552.168.151.367.261.582.321a1.418 1.418 0 0 0 1.26-.25c.425-.264.91-.404 1.405-.404s.98.14 1.405.404a1.435 1.435 0 0 0 1.842-.07c.168-.152.3-.34.388-.553v0z" stroke="#999" stroke-linecap="round" stroke-linejoin="round"/><path d="M11.007 5.07c1.2 0 2.374.37 3.372 1.062a6.254 6.254 0 0 1 2.236 2.826c.46 1.15.58 2.417.345 3.638a6.374 6.374 0 0 1-1.66 3.225 6.006 6.006 0 0 1-3.109 1.723 5.866 5.866 0 0 1-3.507-.358 6.124 6.124 0 0 1-2.724-2.32 6.467 6.467 0 0 1-1.023-3.498c0-1.67.64-3.272 1.778-4.453a5.96 5.96 0 0 1 4.292-1.845v0z" stroke="#999" stroke-linecap="round" stroke-linejoin="round"/><path d="M12.257 9.52l-1.25-2.614-1.24 2.615-2.8.425 2.02 2.044-.47 2.884 2.49-1.359 2.5 1.36-.47-2.885 2.01-2.044-2.79-.425zm-2.44 11.818l-3.37 6.806-1.47-3.393-3.47.747 3-6.162c.14.01.28.01.42 0 .497-.011.987.12 1.417.378.43.258.784.633 1.023 1.084.088.212.22.401.388.552.168.151.367.261.582.32a1.418 1.418 0 0 0 1.26-.25l.21-.113.01.03zm2.39 0l3.37 6.806 1.46-3.393 3.51.747-3.04-6.162a2.44 2.44 0 0 1-.41 0 2.634 2.634 0 0 0-1.418.376c-.43.258-.784.634-1.022 1.087-.088.212-.22.4-.388.551a1.419 1.419 0 0 1-1.842.07l-.21-.113-.01.031z" stroke="#999" stroke-linecap="round" stroke-linejoin="round"/></svg><svg width="19" height="19" fill="none" viewBox="0 0 19 19" id="mts" x="153" y="284" xmlns="http://www.w3.org/2000/svg"><path d="M17.697 0H1.303C.583 0 0 .583 0 1.303v16.394C0 18.417.583 19 1.303 19h16.394c.72 0 1.303-.583 1.303-1.303V1.303C19 .583 18.417 0 17.697 0z" fill="#ED1C24"/><path d="M9.498 17.1c-3.936 0-5.697-3.014-5.697-5.991 0-2.04.722-4.388 1.933-6.283C6.9 2.992 8.309 1.9 9.498 1.9c1.189 0 2.6 1.092 3.77 2.922 1.21 1.895 1.933 4.244 1.933 6.283 0 2.98-1.763 5.995-5.703 5.995z" fill="#fff"/></svg><svg width="16" height="18" fill="none" viewBox="0 0 16 18" id="new" x="206" y="284" xmlns="http://www.w3.org/2000/svg"><path fill-rule="evenodd" clip-rule="evenodd" d="M8.217 16.209a2.318 2.318 0 0 1-1.39 1.142 2.161 2.161 0 0 1-1.738-.242 2.434 2.434 0 0 1-1.069-1.487 2.598 2.598 0 0 1 .227-1.858l1.981 1.222 1.989 1.223zM6.606 14.29L.842 10.724C.085 10.2.35 9.124.52 8.58c4.074-.663 5.442-3.306 7.06-5.398.638-.935 1.578-1.585 2.637-1.824a4.137 4.137 0 0 1 3.1.532c.937.581 1.64 1.512 1.972 2.614a4.984 4.984 0 0 1-.172 3.353c-.878 2.54-2.343 5.166-.846 9.246-.354.422-1.095 1.206-1.9.766l-5.765-3.58z" fill="#F60"/><path fill-rule="evenodd" clip-rule="evenodd" d="M11.05 3.115a2.808 2.808 0 0 0-1.214.352 3.01 3.01 0 0 0-.967.861A29.074 29.074 0 0 1 6.09 7.772a9.534 9.534 0 0 1-3.333 2.066l2.158 1.343C7.186 9.46 8.57 6.877 9.94 4.638c.33-.537.699-1.047 1.103-1.523h.008z" fill="#fff"/><path fill-rule="evenodd" clip-rule="evenodd" d="M13 .188l1.835 1.127-1.063 1.963-1.836-1.128L13 .188z" fill="#F60"/></svg><svg width="26" height="26" fill="none" viewBox="0 0 26 26" id="od" x="22" y="284" xmlns="http://www.w3.org/2000/svg"><g clip-path="url(#brclip0)" fill="#DCDCDC"><path d="M11.72 18.314c-2.016-.21-3.833-.707-5.39-1.924-.192-.151-.392-.297-.568-.466-.68-.654-.75-1.403-.21-2.175.46-.661 1.234-.838 2.039-.459.155.074.304.166.446.264 2.9 1.993 6.883 2.048 9.794.09.288-.221.597-.401.954-.494.695-.178 1.342.077 1.715.685.426.694.42 1.372-.104 1.91-.805.827-1.773 1.425-2.849 1.842-1.017.394-2.13.593-3.233.724.166.181.245.27.348.375 1.498 1.504 3.001 3.002 4.494 4.511.508.514.614 1.152.334 1.75-.306.653-.991 1.083-1.663 1.037-.425-.03-.757-.241-1.052-.538-1.13-1.137-2.281-2.253-3.388-3.412-.322-.336-.477-.273-.761.02a226.385 226.385 0 0 1-3.454 3.468c-.522.514-1.143.607-1.748.313-.643-.312-1.052-.969-1.02-1.628.021-.447.24-.788.547-1.093 1.482-1.48 2.96-2.963 4.437-4.445.098-.099.19-.203.332-.355z"/><path d="M12.947 13.16c-3.595-.012-6.544-2.993-6.523-6.594C6.444 2.924 9.395-.01 13.026 0c3.639.01 6.56 2.986 6.541 6.666-.018 3.594-2.987 6.507-6.62 6.494zm3.268-6.586A3.205 3.205 0 0 0 13 3.361a3.21 3.21 0 0 0-3.223 3.252 3.205 3.205 0 0 0 3.24 3.188 3.198 3.198 0 0 0 3.198-3.227z"/></g><defs><clipPath id="brclip0"><path fill="#fff" d="M0 0h26v26H0z"/></clipPath></defs></svg><svg width="26" height="27" fill="none" viewBox="0 0 26 27" id="od-circle" y="257" xmlns="http://www.w3.org/2000/svg"><path d="M13 .07c-7.168 0-13 5.83-13 13 0 7.167 5.832 13 13 13s13-5.833 13-13c0-7.169-5.831-13-13-13z" fill="#999"/><path d="M12.18 16.809c-1.29-.135-2.455-.453-3.451-1.233-.124-.097-.252-.19-.365-.3-.436-.418-.48-.899-.135-1.393.296-.424.791-.537 1.307-.294.1.047.194.106.285.17 1.858 1.276 4.41 1.312 6.274.056a1.7 1.7 0 0 1 .61-.316.959.959 0 0 1 1.1.44c.272.444.269.878-.067 1.224a5.066 5.066 0 0 1-1.825 1.18c-.652.253-1.365.38-2.071.464.106.117.156.174.223.24.96.965 1.922 1.925 2.878 2.892.326.33.394.738.214 1.122-.196.419-.634.694-1.065.665-.272-.019-.485-.155-.674-.345-.723-.729-1.46-1.444-2.17-2.187-.206-.216-.305-.175-.487.012-.728.75-1.468 1.49-2.213 2.224-.334.33-.731.389-1.119.2-.412-.2-.674-.62-.654-1.043.014-.287.155-.505.35-.701.95-.948 1.896-1.9 2.843-2.85.063-.062.121-.13.212-.227z" fill="#EEE"/><path d="M12.967 13.506c-2.303-.008-4.191-1.919-4.178-4.228a4.223 4.223 0 0 1 4.229-4.208c2.33.006 4.201 1.914 4.19 4.272-.012 2.304-1.914 4.172-4.24 4.164zm2.094-4.222A2.054 2.054 0 0 0 13 7.224a2.057 2.057 0 0 0-2.064 2.085 2.054 2.054 0 0 0 2.075 2.044 2.05 2.05 0 0 0 2.049-2.07z" fill="#EEE"/></svg><svg width="29" height="28" fill="none" viewBox="0 0 29 28" id="opt" x="280" y="171" xmlns="http://www.w3.org/2000/svg"><path fill-rule="evenodd" clip-rule="evenodd" d="M14.429 0l6.446 3.728-6.446 3.727-6.446-3.727L14.429 0zm.443 8.103l6.502-3.633.056 7.36-6.502 3.633-.056-7.36zm-7.506 3.775l.055-7.36 6.502 3.633-.055 7.36-6.502-3.633zM22 12.49l6.445 3.727L22 19.945l-6.446-3.728L22 12.49zm.442 8.102l6.502-3.633.056 7.36-6.502 3.633-.056-7.36zm-7.506 3.775l.056-7.36 6.501 3.633-.055 7.36-6.502-3.633zM7.063 12.49l6.446 3.727-6.446 3.728-6.446-3.728 6.446-3.727zm.443 8.102l6.502-3.633.056 7.36-6.502 3.633-.056-7.36zM0 24.367l.055-7.36 6.502 3.633L6.502 28 0 24.367z" fill="#F60"/></svg><svg width="28" height="28" fill="none" viewBox="0 0 28 28" id="paint" x="184" y="220" xmlns="http://www.w3.org/2000/svg"><path d="M9.114 27H27m-2.586-14.503H27m-7.417 4.83H27M14.739 22.17h12.26" stroke="#999" stroke-linecap="round" stroke-linejoin="round"/><path d="M16.244 8.064l3.695 3.694-11.412 11.41-3.682-3.693 11.4-11.411z" stroke="#999" stroke-linejoin="round"/><path d="M1 27l7.526-3.831-3.68-3.694L1 27zM26.234 1.77a2.613 2.613 0 0 1 0 3.694l-6.295 6.294-3.695-3.694L22.54 1.77a2.6 2.6 0 0 1 3.695 0v0z" stroke="#999" stroke-linejoin="round"/><path d="M12.344 8.064l7.06-7.06" stroke="#999" stroke-linecap="round" stroke-linejoin="round"/></svg><svg width="24" height="24" fill="none" viewBox="0 0 24 24" id="percent" x="314" xmlns="http://www.w3.org/2000/svg"><path fill-rule="evenodd" clip-rule="evenodd" d="M.559.433h23.13v23.543H.559V.433z" fill="#F60"/><path d="M17.952 16.897c.005-.265-.02-.53-.074-.79a1.34 1.34 0 0 0-.221-.5.717.717 0 0 0-.32-.264 1.212 1.212 0 0 0-.42-.075 1.065 1.065 0 0 0-.405.075.692.692 0 0 0-.308.263 1.57 1.57 0 0 0-.21.501 3.57 3.57 0 0 0-.073.79c-.005.252.02.505.074.752.036.171.107.334.209.476a.693.693 0 0 0 .308.263c.13.051.267.077.406.075.162.012.326-.01.48-.063a.717.717 0 0 0 .32-.263c.11-.139.186-.302.222-.476a3.22 3.22 0 0 0 .073-.752l-.061-.012zm2.203 0a3.56 3.56 0 0 1-.295 1.378 3.41 3.41 0 0 1-.714 1.065c-.293.3-.64.538-1.022.702-.39.16-.81.241-1.23.238a3.25 3.25 0 0 1-1.232-.238 2.941 2.941 0 0 1-1.021-.702 3.103 3.103 0 0 1-.665-1.065 3.818 3.818 0 0 1-.246-1.378 4.01 4.01 0 0 1 .246-1.416c.147-.402.373-.768.665-1.078a2.94 2.94 0 0 1 1.021-.701 3.02 3.02 0 0 1 1.231-.25c.447-.009.891.077 1.305.25a2.94 2.94 0 0 1 1.022.701c.29.31.517.676.665 1.078.166.453.25.932.246 1.416h.024zM15.7 5.796c.098-.12.214-.221.345-.301.168-.099.36-.146.554-.138h2.093L8.546 18.638a1.024 1.024 0 0 1-.344.301c-.157.08-.33.118-.505.113H5.556L15.699 5.796zM8.313 7.575a2.905 2.905 0 0 0-.086-.79 1.455 1.455 0 0 0-.21-.5.815.815 0 0 0-.331-.264 1.09 1.09 0 0 0-.419-.075c-.135 0-.268.025-.394.075a.717.717 0 0 0-.32.263 1.456 1.456 0 0 0-.197.501 3.54 3.54 0 0 0-.037.79c-.001.253.028.505.086.752.036.173.103.339.197.488a.775.775 0 0 0 .32.25c.126.05.26.076.394.076a1.09 1.09 0 0 0 .419-.075.9.9 0 0 0 .332-.25c.089-.135.155-.283.197-.44.065-.244.094-.498.086-.751l-.037-.05zm2.191 0c.013.463-.067.923-.234 1.354a3.44 3.44 0 0 1-.738 1.152 3.074 3.074 0 0 1-1.034.689c-.39.165-.808.25-1.231.25a3.334 3.334 0 0 1-1.23-.25 3.024 3.024 0 0 1-1.023-.69 3.228 3.228 0 0 1-.664-1.064 3.819 3.819 0 0 1-.234-1.379 4.01 4.01 0 0 1 .234-1.415c.15-.4.376-.766.664-1.078a3.05 3.05 0 0 1 1.022-.702 3.334 3.334 0 0 1 2.536 0 2.94 2.94 0 0 1 1.022.702c.296.308.527.675.677 1.078.162.453.241.933.233 1.415v-.062z" fill="#fff"/></svg><svg width="22" height="22" fill="none" viewBox="0 0 22 22" id="phone" x="314" y="196" xmlns="http://www.w3.org/2000/svg"><path d="M20.584 18.767a3.517 3.517 0 0 1-1.843 1.567c-.793.4-1.662.626-2.55.663a5.283 5.283 0 0 1-.674-.053l-.59-.095a6.494 6.494 0 0 1-.643-.178l-.58-.2-.589-.232-.59-.22a17.48 17.48 0 0 1-6.268-4.208 17.416 17.416 0 0 1-4.214-6.248l-.221-.589-.295-.662c0-.116-.106-.305-.19-.579-.07-.21-.13-.425-.179-.641a2.42 2.42 0 0 0-.095-.6A4.935 4.935 0 0 1 1 5.829a6.208 6.208 0 0 1 .664-2.545 3.515 3.515 0 0 1 1.57-1.84 5.18 5.18 0 0 1 1.97-.432.812.812 0 0 1 .315 0c.064 0 .169.116.316.347.148.21.317.474.496.79.179.315.347.63.516.925l.484.894.295.557.222.41c.112.153.21.315.295.484.059.13.09.269.094.41a1.135 1.135 0 0 1-.39.716c-.266.283-.558.54-.874.767-.313.23-.61.484-.885.758-.19.168-.314.4-.347.652a.84.84 0 0 0 0 .326c.034.101.076.2.126.294.052.117.112.229.18.337l.21.274a14.728 14.728 0 0 0 2.476 3.323 14.746 14.746 0 0 0 3.329 2.472l.273.168c.109.067.221.127.337.18l.295.125a.844.844 0 0 0 .327.074c.21 0 .495-.22.864-.642.369-.42.737-.862 1.117-1.283.379-.42.674-.63.916-.63.142.003.282.035.411.094.172.08.334.179.485.294l.368.253 1.054.568a29.63 29.63 0 0 1 1.727.967c.464.284.717.463.748.568a.81.81 0 0 1 0 .316 5.158 5.158 0 0 1-.432 1.967h.032zM11.008 1.012a9.99 9.99 0 0 1 7.052 2.936 9.96 9.96 0 0 1 2.903 7.056" stroke="#999" stroke-width="1.2" stroke-linecap="round" stroke-linejoin="round"/><path d="M11.008 8.133a2.849 2.849 0 0 1 2.618 1.78c.14.346.21.717.205 1.091m-2.823-6.426a6.414 6.414 0 0 1 4.527 1.891 6.393 6.393 0 0 1 1.857 4.535" stroke="#999" stroke-width="1.2" stroke-linecap="round" stroke-linejoin="round"/></svg><svg width="22" height="22" fill="none" viewBox="0 0 22 22" id="phone-zap" x="314" y="134" xmlns="http://www.w3.org/2000/svg"><path d="M20.584 18.77a3.517 3.517 0 0 1-1.843 1.567c-.793.4-1.662.626-2.55.663a5.283 5.283 0 0 1-.674-.053l-.59-.094a6.467 6.467 0 0 1-.643-.18l-.58-.199-.589-.231-.59-.221a17.48 17.48 0 0 1-6.268-4.207 17.418 17.418 0 0 1-4.214-6.248l-.221-.59-.295-.662c0-.116-.106-.305-.19-.578a6.784 6.784 0 0 1-.179-.642 2.42 2.42 0 0 0-.095-.6A4.935 4.935 0 0 1 1 5.833a6.208 6.208 0 0 1 .664-2.546 3.515 3.515 0 0 1 1.57-1.84 5.18 5.18 0 0 1 1.97-.431.812.812 0 0 1 .315 0c.064 0 .169.115.316.347.148.21.317.473.496.788.179.316.347.632.516.926l.484.894.295.558.222.41c.112.152.21.314.295.484.059.129.09.268.094.41a1.135 1.135 0 0 1-.39.715c-.266.283-.558.54-.874.768-.313.23-.61.483-.885.757-.19.168-.314.4-.347.652a.84.84 0 0 0 0 .326c.034.102.076.2.126.295.052.116.112.228.18.336l.21.274a14.726 14.726 0 0 0 2.476 3.324 14.746 14.746 0 0 0 3.329 2.471l.273.169c.109.067.221.127.337.179l.295.126a.844.844 0 0 0 .327.073c.21 0 .495-.22.864-.641.369-.42.737-.863 1.117-1.283.379-.421.674-.632.916-.632.142.004.282.036.411.095.172.08.334.18.485.295l.368.252 1.054.568c.684.358 1.264.684 1.727.968.464.284.717.463.748.568a.81.81 0 0 1 0 .315 5.158 5.158 0 0 1-.432 1.967h.032zM11.008 1.016a9.99 9.99 0 0 1 7.052 2.936 9.96 9.96 0 0 1 2.903 7.056" stroke="#F60" stroke-linecap="round" stroke-linejoin="round"/><path d="M11.008 8.136a2.849 2.849 0 0 1 2.618 1.78c.14.347.21.718.205 1.092m-2.823-6.427a6.414 6.414 0 0 1 4.527 1.892 6.393 6.393 0 0 1 1.857 4.535" stroke="#F60" stroke-linecap="round" stroke-linejoin="round"/></svg><svg width="18" height="18" fill="none" viewBox="0 0 18 18" id="phone_orange" x="222" y="284" xmlns="http://www.w3.org/2000/svg"><path d="M16.667 15.216a2.814 2.814 0 0 1-1.475 1.254c-.634.32-1.33.5-2.04.53a4.216 4.216 0 0 1-.538-.042l-.472-.076a5.2 5.2 0 0 1-.514-.143l-.464-.16-.472-.185-.472-.177a13.982 13.982 0 0 1-5.015-3.365 13.933 13.933 0 0 1-3.37-4.999l-.178-.47-.236-.53c0-.093-.084-.245-.151-.464a5.182 5.182 0 0 1-.144-.513 1.96 1.96 0 0 0-.075-.48A3.948 3.948 0 0 1 1 4.866c.03-.709.21-1.403.531-2.036a2.812 2.812 0 0 1 1.256-1.473 4.143 4.143 0 0 1 1.576-.345.65.65 0 0 1 .253 0c.05 0 .134.093.252.278.118.168.253.379.396.631.144.253.279.505.413.74l.388.716.236.446.177.328c.09.122.169.252.236.387a.84.84 0 0 1 .076.328.908.908 0 0 1-.312.572 4.869 4.869 0 0 1-.7.615c-.25.184-.487.386-.707.606a.841.841 0 0 0-.278.521.672.672 0 0 0 0 .261c.027.081.061.16.1.236.042.093.09.183.144.269l.168.219a11.78 11.78 0 0 0 1.981 2.659c.79.78 1.687 1.447 2.663 1.977l.22.135c.086.053.176.101.269.143l.236.1a.675.675 0 0 0 .261.06c.169 0 .396-.177.691-.514.295-.336.59-.69.894-1.026.303-.337.54-.505.733-.505a.844.844 0 0 1 .329.076c.137.064.267.143.387.235l.295.202.843.455c.548.286 1.011.547 1.382.774.371.227.573.37.599.454a.65.65 0 0 1 0 .253 4.126 4.126 0 0 1-.346 1.573h.025zM9.006 1.012a7.993 7.993 0 0 1 5.642 2.35 7.968 7.968 0 0 1 2.323 5.644" stroke="#F60" stroke-linecap="round" stroke-linejoin="round"/><path d="M9.006 6.709a2.279 2.279 0 0 1 2.095 1.424c.112.277.167.574.164.873M9.006 3.865a5.13 5.13 0 0 1 4.726 3.18c.256.622.385 1.289.382 1.961" stroke="#F60" stroke-linecap="round" stroke-linejoin="round"/></svg><svg width="34" height="28" fill="none" viewBox="0 0 34 28" id="photo" x="95" y="186" xmlns="http://www.w3.org/2000/svg"><g clip-path="url(#bzclip0)"><path d="M11.546 0h9.917l3.017 3.067h5.27c.442-.007.88.073 1.287.234.407.16.774.398 1.08.699.312.29.558.638.724 1.02.165.383.246.793.238 1.207v18.666a2.93 2.93 0 0 1-.25 1.197c-.167.38-.412.724-.722 1.014-.31.289-.678.517-1.083.67A3.448 3.448 0 0 1 29.75 28H3.33a3.469 3.469 0 0 1-1.281-.228 3.309 3.309 0 0 1-1.086-.678 3.086 3.086 0 0 1-.72-1.022A2.934 2.934 0 0 1 0 24.867V6.2c-.004-.409.08-.814.245-1.192C.41 4.63.655 4.288.964 4a3.23 3.23 0 0 1 1.08-.698c.406-.16.844-.24 1.285-.235H8.5L11.546 0zm-.85 21.04a7.852 7.852 0 0 0 2.648 1.722c1 .394 2.076.589 3.16.571a8.426 8.426 0 0 0 3.178-.577 8.028 8.028 0 0 0 2.673-1.716 7.519 7.519 0 0 0 1.823-2.516c.42-.947.628-1.965.614-2.99a7.11 7.11 0 0 0-.611-2.992 7.493 7.493 0 0 0-1.826-2.515 8.027 8.027 0 0 0-2.673-1.716 8.427 8.427 0 0 0-3.178-.578 8.248 8.248 0 0 0-3.16.572 7.84 7.84 0 0 0-2.648 1.722 7.564 7.564 0 0 0-1.803 2.52 7.184 7.184 0 0 0-.605 2.986 7.198 7.198 0 0 0 .606 2.985 7.579 7.579 0 0 0 1.802 2.522zm5.85-.547c-3.54 0-5.312-1.653-5.312-4.96 0-3.306 1.771-4.96 5.313-4.96 3.523 0 5.289 1.654 5.298 4.96.01 3.307-1.756 4.96-5.298 4.96z" fill="#fff"/></g><defs><clipPath id="bzclip0"><path fill="#fff" d="M0 0h34v28H0z"/></clipPath></defs></svg><svg width="14" height="14" fill="none" viewBox="0 0 14 14" id="plus" x="240" y="284" xmlns="http://www.w3.org/2000/svg"><path fill="#000" d="M6.364 0h1.273v14H6.364z"/><path fill="#000" d="M14 6.364v1.273H0V6.364z"/></svg><svg width="23" height="29" fill="none" viewBox="0 0 23 29" id="present" x="106" y="220" xmlns="http://www.w3.org/2000/svg"><path fill-rule="evenodd" clip-rule="evenodd" d="M0 8.469h22.389v19.719H0V8.468z" fill="#DCDCDC"/><path d="M11.254 8.469c-.465-3.036-.834-4.746-2.158-6.174C7.773.867 5.866.57 4.864 1.652c-1.001 1.08-.763 3.087.596 4.553 1.36 1.467 2.921 1.84 5.794 2.264z" stroke="#DCDCDC" stroke-width="1.56" stroke-linecap="round" stroke-linejoin="round"/><path d="M11.254 8.469c.393-3.036.775-4.746 2.098-6.174s3.23-1.724 4.232-.643c1.002 1.08.727 3.113-.608 4.553s-2.968 1.84-5.722 2.264z" stroke="#DCDCDC" stroke-width="1.56" stroke-linecap="round" stroke-linejoin="round"/><path fill="#fff" d="M9.556 11.188h3v11h-3z"/></svg><svg width="21" height="21" fill="none" viewBox="0 0 21 21" id="present2" x="73" y="284" xmlns="http://www.w3.org/2000/svg"><path d="M10.5 21C16.299 21 21 16.299 21 10.5S16.299 0 10.5 0 0 4.701 0 10.5 4.701 21 10.5 21z" fill="#DCDCDC"/><path d="M4.421 10.5H16.58M10.5 4.841V16.17" stroke="#fff" stroke-linecap="round" stroke-linejoin="round"/></svg><svg width="33" height="28" fill="none" viewBox="0 0 33 28" id="price-down" x="280" y="60" xmlns="http://www.w3.org/2000/svg"><path fill-rule="evenodd" clip-rule="evenodd" d="M0 13.105h32.026L16.013 27.976 0 13.106z" fill="#F60"/><path fill-rule="evenodd" clip-rule="evenodd" d="M6.098.811H25.93v15.165H6.098V.811z" fill="#F60"/><path d="M19.26 8.713c-.066.103-.15.194-.248.27a.578.578 0 0 1-.336.098.804.804 0 0 1-.385-.11l-.473-.258a4.59 4.59 0 0 0-.598-.246 2.407 2.407 0 0 0-.758-.11 1.647 1.647 0 0 0-1.108.307 1.057 1.057 0 0 0-.373.846.752.752 0 0 0 .224.565c.164.162.358.291.572.38.267.12.541.222.821.307l.934.294c.317.115.629.246.933.393.296.148.568.338.808.564.247.242.441.53.573.847.162.389.238.807.224 1.227.005.5-.088.995-.274 1.46A3.36 3.36 0 0 1 19 16.774a3.638 3.638 0 0 1-1.245.797 4.773 4.773 0 0 1-1.729.295c-.364 0-.726-.037-1.082-.11a6.29 6.29 0 0 1-1.07-.307 5.883 5.883 0 0 1-.971-.467 4.37 4.37 0 0 1-.784-.6l.772-1.228a.607.607 0 0 1 .248-.22.628.628 0 0 1 .336-.099.917.917 0 0 1 .473.147l.535.332c.225.12.458.227.697.319.295.103.607.153.92.147a1.76 1.76 0 0 0 1.12-.307 1.228 1.228 0 0 0 .399-.994.912.912 0 0 0-.224-.638 1.567 1.567 0 0 0-.573-.417 6.755 6.755 0 0 0-.808-.282l-.934-.27a6.541 6.541 0 0 1-.92-.368 2.9 2.9 0 0 1-1.394-1.472 3.758 3.758 0 0 1-.211-1.325 3.29 3.29 0 0 1 .248-1.227c.145-.411.369-.79.66-1.117.361-.33.784-.588 1.244-.76a4.7 4.7 0 0 1 1.667-.27c.342-.001.683.023 1.02.073.323.054.639.136.946.245.29.095.57.219.834.368.247.141.477.31.684.504l-.597 1.19z" fill="#fff"/><path fill-rule="evenodd" clip-rule="evenodd" d="M15.08 4.529h1.879v2.43H15.08v-2.43zm0 12.024h1.879v3.006H15.08v-3.006z" fill="#fff"/></svg><svg width="21" height="19" fill="none" viewBox="0 0 21 19" id="price-down-product" x="314" y="283" xmlns="http://www.w3.org/2000/svg"><path fill-rule="evenodd" clip-rule="evenodd" d="M0 9.249h21L10.5 19 0 9.249z" fill="#F60"/><path fill-rule="evenodd" clip-rule="evenodd" d="M3.998 1.188h13.004v9.944H3.998V1.188z" fill="#F60"/><path d="M12.63 6.369a.704.704 0 0 1-.164.177.38.38 0 0 1-.22.064.528.528 0 0 1-.253-.072l-.31-.17a3.01 3.01 0 0 0-.392-.16 1.579 1.579 0 0 0-.497-.073 1.08 1.08 0 0 0-.726.202.693.693 0 0 0-.245.555.493.493 0 0 0 .147.37c.107.106.234.19.375.25.175.078.355.145.538.2l.612.193c.209.076.413.162.612.258.194.097.373.222.53.37.162.158.29.347.376.555.106.255.156.53.147.805.003.327-.058.652-.18.957-.112.303-.29.577-.522.805-.233.227-.51.405-.816.523a3.127 3.127 0 0 1-1.134.192 4.122 4.122 0 0 1-1.411-.274 3.857 3.857 0 0 1-.637-.305 2.869 2.869 0 0 1-.514-.394l.506-.805a.398.398 0 0 1 .163-.144.412.412 0 0 1 .22-.065.606.606 0 0 1 .31.097l.351.217c.148.08.3.15.457.21.194.067.399.1.604.096.26.018.52-.053.734-.201a.804.804 0 0 0 .261-.652.598.598 0 0 0-.146-.418 1.027 1.027 0 0 0-.376-.274 4.425 4.425 0 0 0-.53-.185l-.612-.177a4.285 4.285 0 0 1-.604-.241 1.902 1.902 0 0 1-.913-.966 2.462 2.462 0 0 1-.14-.869c.003-.276.058-.549.164-.804.095-.27.242-.518.432-.732a2.53 2.53 0 0 1 .816-.5c.35-.124.721-.184 1.093-.176.224 0 .448.015.67.048.21.036.418.09.62.161.19.062.373.143.546.241.162.093.313.203.449.33l-.392.78z" fill="#fff"/><path fill-rule="evenodd" clip-rule="evenodd" d="M9.888 3.625h1.232v1.593H9.888V3.625zm0 7.885h1.232v1.97H9.888v-1.97z" fill="#fff"/></svg><svg width="25" height="22" fill="none" viewBox="0 0 25 22" id="price-down-product-banner" x="48" y="284" xmlns="http://www.w3.org/2000/svg"><path fill-rule="evenodd" clip-rule="evenodd" d="M0 10.196h25L12.5 22 0 10.196z" fill="#F60"/><path fill-rule="evenodd" clip-rule="evenodd" d="M4.76.438h15.48v12.037H4.759V.438z" fill="#F60"/><path d="M15.035 6.71a.847.847 0 0 1-.194.214.446.446 0 0 1-.262.078.62.62 0 0 1-.302-.088l-.369-.205a3.55 3.55 0 0 0-.466-.194 1.851 1.851 0 0 0-.592-.088 1.27 1.27 0 0 0-.865.244.837.837 0 0 0-.291.672.607.607 0 0 0 .175.448c.127.128.28.231.446.301.209.096.423.177.642.244l.728.234c.248.091.491.195.728.311.232.118.444.269.632.448.192.192.344.42.446.672.127.309.186.64.175.974a3.09 3.09 0 0 1-.213 1.16 2.669 2.669 0 0 1-.622.973 2.836 2.836 0 0 1-.971.633c-.432.162-.89.241-1.35.234a4.848 4.848 0 0 1-1.68-.331 4.57 4.57 0 0 1-.758-.37 3.422 3.422 0 0 1-.612-.477l.602-.975a.478.478 0 0 1 .194-.175.485.485 0 0 1 .263-.078.715.715 0 0 1 .369.117l.417.263c.176.096.358.18.544.253.23.082.474.122.719.117.31.022.62-.064.874-.243a.974.974 0 0 0 .31-.79.732.732 0 0 0-.174-.505 1.224 1.224 0 0 0-.447-.332 5.208 5.208 0 0 0-.631-.224l-.729-.214a5.061 5.061 0 0 1-.718-.292A2.286 2.286 0 0 1 9.965 8.55 3.027 3.027 0 0 1 9.8 7.498c.003-.334.069-.664.194-.974a2.67 2.67 0 0 1 .515-.886 3 3 0 0 1 .971-.604c.417-.15.858-.223 1.302-.214.266 0 .532.019.796.059.251.042.498.108.738.194.226.076.444.174.651.292.193.112.372.246.534.4l-.466.944z" fill="#fff"/><path fill-rule="evenodd" clip-rule="evenodd" d="M11.771 3.388h1.467v1.929h-1.466V3.388zm0 9.545h1.467v2.386h-1.466v-2.386z" fill="#fff"/></svg><svg width="22" height="22" fill="none" viewBox="0 0 22 22" id="review" x="314" y="240" xmlns="http://www.w3.org/2000/svg"><path d="M10.998 1a9.996 9.996 0 0 1 9.864 8.342 10.003 10.003 0 0 1-6.595 11.11 9.995 9.995 0 0 1-8.942-1.22L1 21l1.768-4.326A10.002 10.002 0 0 1 10.998 1v0zM5.895 7.284h10.208M5.895 11h10.208M5.895 14.716h10.208" stroke="#999" stroke-width="1.2" stroke-linecap="round" stroke-linejoin="round"/></svg><svg width="8" height="13" viewBox="0 0 8 13" id="right" x="326" y="218" xmlns="http://www.w3.org/2000/svg"><path d="M.3 1.47L1.7.07l6 6-6 6-1.4-1.4 4.6-4.6-4.6-4.6z"/></svg><svg width="22" height="22" fill="none" viewBox="0 0 22 22" id="search" x="314" y="112" xmlns="http://www.w3.org/2000/svg"><path d="M8.484 1A7.484 7.484 0 1 1 1 8.484 7.474 7.474 0 0 1 8.484 1v0zM21 21l-7.232-7.232" stroke="#999" stroke-width="1.2" stroke-linecap="round" stroke-linejoin="round"/></svg><svg width="26" height="29" fill="none" viewBox="0 0 26 29" id="secure" x="280" y="142" xmlns="http://www.w3.org/2000/svg"><path d="M13.014 1L25 4.543v10.474C25 22.43 19.866 25.79 13 28 6.09 25.718 1 22.36 1 14.947V4.543L13.014 1zm0 5.13a5.161 5.161 0 0 1 3.465 1.595 4.903 4.903 0 0 1 1.35 3.494c0 2.679-2.153 6.18-4.815 6.18-2.661 0-4.814-3.501-4.814-6.18a4.903 4.903 0 0 1 1.35-3.494 5.161 5.161 0 0 1 3.464-1.594v0zm-3.81 13.253a9.884 9.884 0 0 0-6.022 2.565c2.123 2.835 5.673 4.635 9.862 5.981 4.189-1.346 7.738-3.118 9.861-5.981a9.915 9.915 0 0 0-6.05-2.565 5.908 5.908 0 0 1-3.811 1.385c-1.4 0-2.753-.492-3.811-1.385h-.03z" stroke="#999" stroke-width="1.2" stroke-linejoin="round"/></svg><svg width="11" height="13" fill="none" viewBox="0 0 11 13" id="share" x="302" y="199" xmlns="http://www.w3.org/2000/svg"><path d="M9.167 3.809c-.502 0-.958-.211-1.29-.552L4.884 5.352c.16.348.25.737.25 1.148 0 .41-.09.8-.25 1.148l2.995 2.095c.33-.34.787-.552 1.289-.552 1.01 0 1.833.855 1.833 1.905S10.178 13 9.167 13c-1.011 0-1.834-.854-1.834-1.904 0-.255.049-.498.137-.72L4.475 8.281a2.52 2.52 0 0 1-1.908.885C1.15 9.166 0 7.97 0 6.5s1.151-2.666 2.567-2.666a2.52 2.52 0 0 1 1.908.885L7.47 2.624a1.958 1.958 0 0 1-.137-.72C7.333.854 8.156 0 9.167 0 10.177 0 11 .854 11 1.904c0 1.05-.822 1.905-1.833 1.905zm0 8.43c.606 0 1.1-.513 1.1-1.143s-.494-1.143-1.1-1.143c-.607 0-1.1.513-1.1 1.143s.493 1.142 1.1 1.142zm-6.6-7.643C1.556 4.596.733 5.45.733 6.5c0 1.05.823 1.904 1.834 1.904C3.577 8.404 4.4 7.55 4.4 6.5c0-1.05-.822-1.904-1.833-1.904zm6.6-3.834c-.607 0-1.1.512-1.1 1.142 0 .63.493 1.143 1.1 1.143.606 0 1.1-.513 1.1-1.143S9.773.762 9.167.762z" fill="#999"/></svg><svg width="22" height="22" fill="none" viewBox="0 0 22 22" id="shop" x="314" y="174" xmlns="http://www.w3.org/2000/svg"><path d="M5 6.484a2.01 2.01 0 0 0 2 2 2.01 2.01 0 0 0 2-2 2.01 2.01 0 0 0 2 2v0a2.01 2.01 0 0 0 2-2 2.01 2.01 0 0 0 2 2v0a2.01 2.01 0 0 0 2-2 2.01 2.01 0 0 0 2 2v0c.291-.002.579-.066.842-.19V21H2.158V8.295c.262.128.55.193.842.19a2.01 2.01 0 0 0 2-2v0z" stroke="#999" stroke-width="1.2" stroke-linecap="round" stroke-linejoin="round"/><path d="M1 1h4v5.484a2.01 2.01 0 0 1-2 2v0a2.01 2.01 0 0 1-2-2V1zm8 0H5v5.484a2.01 2.01 0 0 0 2 2 2.01 2.01 0 0 0 2-2V1zm0 0h4v5.484a2.011 2.011 0 0 1-2 2 2.01 2.01 0 0 1-2-2V1zm8 0h-4v5.484a2.011 2.011 0 0 0 2 2v0a2.01 2.01 0 0 0 2-2V1v0zm0 0h4v5.484a2.011 2.011 0 0 1-2 2v0a2.01 2.01 0 0 1-2-2V1v0zM5.4 11.874h4.074v5.084H5.4v-5.084zm7.125 0H16.6V21h-4.074v-9.126z" stroke="#999" stroke-width="1.2" stroke-linecap="round" stroke-linejoin="round"/></svg><svg width="20" height="20" fill="none" viewBox="0 0 20 20" id="skype" x="94" y="284" xmlns="http://www.w3.org/2000/svg"><g clip-path="url(#cmclip0)" stroke="#F60" stroke-width=".992" stroke-miterlimit="22.926" stroke-linecap="round" stroke-linejoin="round"><path d="M18.787 12c.122-.606.243-1.212.243-1.94v-.605c-.364-4.607-4.243-8.243-8.97-8.243-.485 0-.97 0-1.576.121C7.757.85 6.787.606 5.818.606 2.908.606.605 2.91.605 5.697c0 .97.243 1.818.728 2.545-.121.364-.121.728-.121 1.091v.849c0 4.848 4 8.848 8.97 8.848.605 0 1.09 0 1.696-.12.727.363 1.576.605 2.424.605 2.91 0 5.213-2.303 5.213-5.09-.122-.97-.364-1.819-.728-2.425z"/><path d="M6.06 12.606c1.334 4.121 7.758 2.788 7.88 0 .12-3.636-7.88-2.182-7.516-5.576.243-2.545 5.333-3.515 7.152-.242"/></g><defs><clipPath id="cmclip0"><path fill="#fff" d="M0 0h20v20H0z"/></clipPath></defs></svg><svg width="29" height="27" fill="none" viewBox="0 0 29 27" id="sms" x="129" y="186" xmlns="http://www.w3.org/2000/svg"><path d="M20.354 12.66c.19.36.479.656.832.853.353.196.755.285 1.157.254 1.919 0 3.638-2.962-.312-3.824-2.842-.618-1.819-3.609.312-3.609a2.07 2.07 0 0 1 1.17.265c.356.202.646.505.834.871M4.639 12.66c.19.36.478.656.832.853a2.05 2.05 0 0 0 1.157.254c1.918 0 3.638-2.962-.313-3.824-2.77-.618-1.761-3.608.313-3.608.407-.032.815.06 1.171.261.357.202.646.506.833.874" stroke="#999" stroke-width="1.2" stroke-linecap="round" stroke-linejoin="round"/><path d="M3.133 1.001h22.876a2.04 2.04 0 0 1 1.437.661 2.088 2.088 0 0 1 .553 1.496v13.93a2.111 2.111 0 0 1-.608 1.469c-.385.39-.907.611-1.453.615H7.722L1.002 26V3.158a2.106 2.106 0 0 1 .601-1.547A2.058 2.058 0 0 1 3.133 1v0z" stroke="#999" stroke-width="1.2" stroke-linejoin="round"/><path d="M12 6.334v7.433m4.944-7.433v7.433m0-7.433l-2.472 4.27M12 6.334l2.472 4.27" stroke="#999" stroke-width="1.2" stroke-linecap="round" stroke-linejoin="round"/></svg><svg width="33" height="34" fill="none" viewBox="0 0 33 34" id="trigger1" x="62" y="186" xmlns="http://www.w3.org/2000/svg"><path d="M18.027 1l.88 3.236 2.964.97 2.615-2.11 2.519 1.843-1.181 3.151 1.831 2.533 3.338-.157.952 2.981-2.783 1.843v3.126l2.783 1.843-.952 2.993-3.338-.17-1.831 2.534 1.18 3.15-2.518 1.843-2.615-2.109-2.964.97-.88 3.248h-3.109l-.88-3.248-2.964-.97-2.603 2.11-2.53-1.843 1.18-3.151-1.819-2.533-3.35.157L1 20.26l2.784-1.843V15.29L1 13.447l.952-2.981 3.35.157 1.82-2.533L5.94 4.94l2.53-1.842 2.603 2.109 2.964-.97.88-3.236h3.11z" stroke="#999" stroke-width="1.091" stroke-linecap="round" stroke-linejoin="round"/><path d="M16.472 8.09c1.723 0 3.408.514 4.84 1.477a8.752 8.752 0 0 1 3.21 3.933 8.81 8.81 0 0 1 .495 5.063 8.78 8.78 0 0 1-2.384 4.486 8.698 8.698 0 0 1-4.46 2.399 8.666 8.666 0 0 1-5.035-.5 8.723 8.723 0 0 1-3.91-3.227 8.799 8.799 0 0 1 1.084-11.064 8.687 8.687 0 0 1 6.16-2.567v0zm0 14.75v2.776m0-17.526v2.776" stroke="#999" stroke-width="1.091" stroke-linecap="round" stroke-linejoin="round"/><path d="M13.364 20.853c.293.552.74 1.007 1.285 1.308a3.19 3.19 0 0 0 1.788.388c2.964 0 5.603-4.532-.482-5.866-4.278-.933-2.808-5.526.482-5.526a3.202 3.202 0 0 1 1.793.387c.548.301.996.756 1.291 1.31" stroke="#999" stroke-width="1.091" stroke-linecap="round" stroke-linejoin="round"/></svg><svg width="36" height="37" viewBox="0 0 29 30" fill="none" id="trigger2" y="220" xmlns="http://www.w3.org/2000/svg"><path d="M14.387 1l13.376 3.658v11.027c0 7.831-5.716 11.37-13.376 13.694C6.717 27.056.99 23.516 1 15.684V4.659L14.387 1z" stroke="#999" stroke-width="1.091" stroke-linejoin="round"/><path d="M19.531 15.179l-2.909-2.797m-.696 3.378l-7.513 7.197 7.513-7.197zm-1.404-1.313l6.739-6.454c.387-.368.91-.574 1.454-.574.545 0 1.068.206 1.455.574.384.372.6.875.6 1.398a1.95 1.95 0 0 1-.6 1.399l-6.739 6.454-2.909-2.797zm-1.954-1.893c.257-.727.284-1.51.079-2.252a3.883 3.883 0 0 0-1.234-1.92 4.159 4.159 0 0 0-2.135-.946 4.237 4.237 0 0 0-2.325.341l3.144 2.98-.404 1.539-1.595.387-3.11-2.99a3.759 3.759 0 0 0-.357 2.227c.113.76.456 1.471.988 2.045a4.11 4.11 0 0 0 2.003 1.182c.775.196 1.593.17 2.352-.076l8.266 7.918.303-.29 2.246-2.152-8.22-7.993z" stroke="#999" stroke-width="1.091" stroke-linecap="round" stroke-linejoin="round"/></svg><svg width="36" height="37" viewBox="0 0 29 30" fill="none" id="trigger2-hover" x="36" y="220" xmlns="http://www.w3.org/2000/svg"><path d="M14.387 1l13.376 3.658v11.027c0 7.831-5.716 11.37-13.376 13.694C6.717 27.056.99 23.516 1 15.684V4.659L14.387 1z" stroke="#F60" stroke-width="1.091" stroke-linejoin="round"/><path d="M19.531 15.179l-2.909-2.797m-.696 3.378l-7.513 7.197 7.513-7.197zm-1.404-1.313l6.739-6.454c.387-.368.91-.574 1.454-.574.545 0 1.068.206 1.455.574.384.372.6.875.6 1.398a1.95 1.95 0 0 1-.6 1.399l-6.739 6.454-2.909-2.797zm-1.954-1.893c.257-.727.284-1.51.079-2.252a3.883 3.883 0 0 0-1.234-1.92 4.159 4.159 0 0 0-2.135-.946 4.237 4.237 0 0 0-2.325.341l3.144 2.98-.404 1.539-1.595.387-3.11-2.99a3.759 3.759 0 0 0-.357 2.227c.113.76.456 1.471.988 2.045a4.11 4.11 0 0 0 2.003 1.182c.775.196 1.593.17 2.352-.076l8.266 7.918.303-.29 2.246-2.152-8.22-7.993z" stroke="#F60" stroke-width="1.091" stroke-linecap="round" stroke-linejoin="round"/></svg><svg width="21" height="21" fill="none" viewBox="0 0 21 21" id="twitter" x="314" y="262" xmlns="http://www.w3.org/2000/svg"><g clip-path="url(#crclip0)"><path d="M7.834 19.115a18.02 18.02 0 0 1-2.783-.22c-1.656-.26-3.332-1.127-3.807-1.386L0 16.829l1.347-.444c1.473-.484 2.368-.784 3.477-1.255-1.11-.537-1.966-1.505-2.378-2.755l-.313-.951.257.039a4.673 4.673 0 0 1-.585-.722c-.53-.805-.812-1.79-.752-2.634l.06-.83.496.192a4.648 4.648 0 0 1-.45-1.262 4.804 4.804 0 0 1 .512-3.234l.433-.795.579.696c1.832 2.2 4.152 3.505 6.905 3.887-.112-.775-.028-1.523.251-2.194.325-.78.903-1.443 1.67-1.915a5.017 5.017 0 0 1 2.912-.715 4.65 4.65 0 0 1 2.859 1.18 9.58 9.58 0 0 0 1.046-.35c.23-.086.49-.184.815-.297l1.2-.413-.782 2.234a3.71 3.71 0 0 1 .16-.01L21 4.223l-.757 1.035c-.043.06-.055.076-.07.1-.061.091-.137.206-1.176 1.593-.26.348-.39.8-.366 1.275.092 1.803-.13 3.435-.658 4.85a8.582 8.582 0 0 1-2.304 3.412c-1.272 1.146-2.895 1.93-4.822 2.332-.946.196-1.962.295-3.013.295z" fill="#DCDCDC"/></g><defs><clipPath id="crclip0"><path fill="#fff" d="M0 0h21v21H0z"/></clipPath></defs></svg><svg width="26" height="27" fill="none" viewBox="0 0 26 27" id="twitter-circle" x="26" y="257" xmlns="http://www.w3.org/2000/svg"><path d="M13 .07c-7.168 0-13 5.83-13 13 0 7.167 5.832 13 13 13s13-5.833 13-13c0-7.169-5.831-13-13-13z" fill="#999"/><path d="M10.837 21.07c-.792 0-1.608-.065-2.429-.193-1.445-.227-2.908-.983-3.322-1.21L4 19.075l1.176-.387c1.285-.422 2.067-.684 3.034-1.095-.969-.47-1.715-1.313-2.075-2.405l-.273-.83.224.034a4.083 4.083 0 0 1-.511-.63c-.463-.703-.708-1.562-.656-2.298l.052-.725.433.168a4.057 4.057 0 0 1-.393-1.102 4.192 4.192 0 0 1 .447-2.822l.378-.694.505.607c1.599 1.92 3.624 3.06 6.027 3.393a3.605 3.605 0 0 1 .219-1.915 3.586 3.586 0 0 1 1.458-1.671 4.378 4.378 0 0 1 2.54-.624 4.06 4.06 0 0 1 2.496 1.029c.334-.087.58-.18.913-.305.2-.075.427-.161.711-.259l1.047-.36-.682 1.95a2.88 2.88 0 0 1 .14-.01l1.118-.05-.661.903a1.298 1.298 0 0 0-.061.087c-.054.08-.12.18-1.027 1.39-.227.304-.34.7-.32 1.113.081 1.574-.112 2.998-.573 4.233a7.488 7.488 0 0 1-2.01 2.978c-1.111 1-2.527 1.685-4.21 2.035-.825.171-1.711.258-2.629.258z" fill="#EEE"/></svg><svg width="12" height="8" viewBox="0 0 12 8" id="up" x="314" y="302" xmlns="http://www.w3.org/2000/svg"><path d="M1.4 7.7L0 6.3l6-6 6 6-1.4 1.4L6 3.1 1.4 7.7z"/></svg><svg width="19" height="19" fill="none" viewBox="0 0 19 19" id="velcom" x="134" y="284" xmlns="http://www.w3.org/2000/svg"><path d="M17.983 0H1.017C.455 0 0 .455 0 1.017v16.966C0 18.545.455 19 1.017 19h16.966c.562 0 1.017-.455 1.017-1.017V1.017C19 .455 18.545 0 17.983 0z" fill="#000"/><path opacity=".7" fill-rule="evenodd" clip-rule="evenodd" d="M5.192 3.037l4.309 4.308v4.31H5.192l-4.31-4.31 4.31-4.308z" fill="#FFF200"/><path fill-rule="evenodd" clip-rule="evenodd" d="M13.81 3.037l4.308 4.308-4.309 4.31H9.5v-4.31l4.31-4.308z" fill="#FFF200"/><path d="M9.5 7.345l-4.309 4.31 4.31 4.309 4.309-4.31L9.5 7.346z" fill="#EEDC00"/></svg><svg width="23" height="23" fill="none" viewBox="0 0 23 23" id="video" x="314" y="66" xmlns="http://www.w3.org/2000/svg"><path d="M11.5 1.5c5.5 0 10 4.5 10 10s-4.5 10-10 10-10-4.5-10-10 4.5-10 10-10z" stroke="#999" stroke-width="1.2" stroke-miterlimit="22.926" stroke-linecap="round" stroke-linejoin="round"/><path d="M9.2 6.5l7.1 5-7.1 5v-10z" stroke="#999" stroke-width="1.2" stroke-miterlimit="22.926" stroke-linecap="round" stroke-linejoin="round"/></svg><svg width="62" height="62" fill="none" viewBox="0 0 62 62" id="video-next" y="158" xmlns="http://www.w3.org/2000/svg"><path d="M31 1a30 30 0 1 1 0 60 30 30 0 0 1 0-60v0z" stroke="#F60" stroke-width="1.2" stroke-linecap="round" stroke-linejoin="round"/><path d="M24.191 15.97L45.461 31l-21.27 15.06V15.97z" stroke="#F60" stroke-width="1.2" stroke-linecap="round" stroke-linejoin="round"/></svg><svg width="29" height="17" fill="none" viewBox="0 0 29 17" id="vk" x="280" y="228" xmlns="http://www.w3.org/2000/svg"><path fill-rule="evenodd" clip-rule="evenodd" d="M24.959 10.73c.962.938 1.977 1.822 2.84 2.856.38.46.742.934 1.018 1.467.39.758.037 1.592-.643 1.637l-4.225-.002c-1.09.09-1.959-.348-2.69-1.093-.585-.596-1.126-1.23-1.689-1.846a4.002 4.002 0 0 0-.76-.676c-.577-.374-1.077-.26-1.407.342-.336.612-.412 1.29-.445 1.971-.045.995-.346 1.257-1.345 1.302-2.136.1-4.162-.222-6.045-1.3-1.66-.95-2.948-2.29-4.068-3.808C3.318 8.624 1.648 5.376.146 2.037-.192 1.285.056.881.886.867A114.05 114.05 0 0 1 5.022.865c.56.008.93.33 1.147.859.746 1.833 1.658 3.578 2.804 5.195.305.43.616.86 1.058 1.164.49.335.863.224 1.094-.322.146-.346.21-.719.243-1.09.11-1.274.124-2.547-.068-3.818-.117-.793-.564-1.307-1.355-1.457C9.54 1.32 9.6 1.17 9.796.94c.34-.397.66-.645 1.296-.645h4.775c.751.149.918.486 1.021 1.243l.004 5.303c-.008.293.147 1.162.674 1.356.422.138.7-.2.954-.468 1.143-1.213 1.959-2.647 2.688-4.132.323-.653.601-1.33.87-2.008.2-.503.514-.75 1.08-.74l4.595.005c.137 0 .275.002.407.025.774.132.986.465.747 1.22-.377 1.187-1.11 2.176-1.827 3.17-.766 1.06-1.586 2.084-2.346 3.15-.698.974-.643 1.465.225 2.311z" fill="#DCDCDC"/></svg><svg width="26" height="27" fill="none" viewBox="0 0 26 27" id="vk-circle" x="210" y="186" xmlns="http://www.w3.org/2000/svg"><path d="M13 .07c-7.18 0-13 5.82-13 13s5.82 13 13 13 13-5.82 13-13-5.82-13-13-13zm6.594 14.406c.606.591 1.247 1.148 1.791 1.801.241.29.468.588.641.924.247.479.024 1.004-.405 1.033h-2.663c-.688.056-1.235-.221-1.697-.692-.368-.374-.71-.775-1.065-1.162a2.49 2.49 0 0 0-.48-.427c-.362-.236-.678-.164-.886.216-.212.386-.26.813-.28 1.243-.03.628-.219.792-.849.821-1.346.063-2.624-.14-3.811-.82-1.048-.598-1.858-1.443-2.565-2.4C5.95 13.148 4.896 11.1 3.95 8.995c-.213-.474-.057-.728.466-.738.87-.017 1.739-.015 2.608 0 .354.005.588.207.724.541a16.183 16.183 0 0 0 1.767 3.275c.192.272.389.543.668.734.309.212.544.142.69-.202.092-.22.133-.453.153-.688.069-.803.077-1.607-.043-2.407-.074-.5-.356-.824-.855-.92-.254-.047-.217-.141-.093-.287.214-.25.415-.406.817-.406h3.01c.474.093.58.305.644.783l.003 3.344c-.005.185.093.733.425.854.266.088.441-.126.6-.294.722-.766 1.236-1.67 1.697-2.605.203-.413.378-.84.548-1.267.127-.317.324-.472.68-.467l2.898.004c.086 0 .172 0 .257.015.489.084.622.294.471.77-.238.749-.7 1.372-1.151 1.997-.484.67-1 1.315-1.48 1.987-.44.615-.406.924.141 1.458z" fill="#999"/></svg><svg width="26" height="18" fill="none" viewBox="0 0 26 18" id="youtube" x="103" y="257" xmlns="http://www.w3.org/2000/svg"><path d="M25.27 2.896C24.955 1.522 23.837.509 22.49.358 19.301 0 16.074-.002 12.861 0c-3.213-.002-6.44 0-9.63.358C1.886.508.768 1.522.453 2.896.005 4.85 0 6.986 0 9c0 2.014 0 4.149.448 6.104.314 1.373 1.432 2.387 2.779 2.538 3.188.358 6.416.36 9.63.358 3.213.002 6.44 0 9.628-.358 1.346-.151 2.465-1.164 2.78-2.538.448-1.956.45-4.09.45-6.104 0-2.014.003-4.149-.445-6.104zM9.539 13.008v-8.54l8.175 4.283c-2.734 1.425-5.443 2.834-8.175 4.257z" fill="#DCDCDC"/></svg><svg width="26" height="27" fill="none" viewBox="0 0 26 27" id="youtube-circle" x="239" y="220" xmlns="http://www.w3.org/2000/svg"><path d="M10.563 15.507l5.687-2.835-5.688-2.852v5.687z" fill="#999"/><path d="M13 .07c-7.18 0-13 5.82-13 13s5.82 13 13 13 13-5.82 13-13-5.82-13-13-13zm8.858 17.339c-.226.976-1.024 1.696-1.985 1.803-2.276.255-4.58.256-6.874.255-2.294.001-4.598 0-6.874-.255-.961-.107-1.76-.827-1.984-1.803-.32-1.39-.32-2.908-.32-4.34 0-1.43.004-2.949.324-4.339.225-.976 1.023-1.696 1.984-1.804 2.276-.254 4.58-.255 6.874-.254 2.294-.001 4.598 0 6.873.254.962.108 1.76.828 1.985 1.804.32 1.39.317 2.908.317 4.34 0 1.43 0 2.949-.32 4.339z" fill="#999"/></svg></svg>