<svg width="26" height="27" viewBox="0 0 26 27" fill="none" xmlns="http://www.w3.org/2000/svg">
<path d="M13 0.0695801C5.83183 0.0695801 0 5.90141 0 13.0696C0 20.2372 5.83183 26.0696 13 26.0696C20.1676 26.0696 26 20.2372 26 13.0696C26 5.90141 20.1687 0.0695801 13 0.0695801Z" fill="#999999"/>
<path d="M10.8374 21.0696C10.0449 21.0696 9.22912 21.0054 8.40847 20.8768C6.96308 20.65 5.49993 19.8939 5.0859 19.6675L4 19.0738L5.17567 18.6872C6.46082 18.2646 7.24259 18.0025 8.21034 17.5919C7.24133 17.1227 6.49452 16.2785 6.13502 15.1873L5.86152 14.357L6.0858 14.3913C5.87312 14.1769 5.70519 13.9593 5.57501 13.7615C5.11205 13.0583 4.86693 12.199 4.91908 11.4627L4.97054 10.738L5.40442 10.9061C5.22139 10.5604 5.08911 10.1913 5.01137 9.80436C4.8219 8.8608 4.98047 7.85838 5.45798 6.9818L5.83593 6.28797L6.34141 6.8951C7.94005 8.8155 9.96489 9.95467 12.3681 10.2882C12.2699 9.61154 12.3435 8.95854 12.5869 8.37322C12.8704 7.6917 13.3746 7.11379 14.0446 6.70186C14.7888 6.24448 15.6912 6.02286 16.5857 6.07781C17.5347 6.13612 18.3963 6.4917 19.0806 7.1068C19.4148 7.01997 19.6611 6.92726 19.9939 6.80198C20.1941 6.72661 20.4212 6.64104 20.7053 6.54316L21.7523 6.1824L21.0695 8.13244C21.1146 8.12866 21.161 8.12545 21.2095 8.12335L22.3276 8.07273L21.6667 8.97588C21.6289 9.02762 21.6192 9.0423 21.6058 9.06257C21.5525 9.14283 21.4862 9.24267 20.5792 10.4539C20.3521 10.7571 20.2387 11.1522 20.2598 11.5663C20.3402 13.1402 20.1471 14.5642 19.6855 15.7986C19.249 16.9665 18.5725 17.9685 17.6751 18.7768C16.5646 19.7769 15.1486 20.4616 13.4662 20.8117C12.6409 20.9834 11.7547 21.0696 10.8374 21.0696Z" fill="#EEEEEE"/>
</svg>
