<svg width="26" height="18" viewBox="0 0 26 18" fill="none" xmlns="http://www.w3.org/2000/svg">
<path d="M25.2699 2.89552C24.9551 1.52211 23.8366 0.508849 22.49 0.3577C19.3013 0.000220161 16.0739 -0.00164578 12.8613 0.000220258C9.64813 -0.00164578 6.42014 0.000220161 3.23144 0.3577C1.88567 0.508849 0.767912 1.52211 0.453102 2.89552C0.00504333 4.85139 0 6.98641 0 9.00013C0 11.0139 0 13.1486 0.448059 15.1042C0.762337 16.4774 1.88036 17.4906 3.22693 17.642C6.41537 17.9998 9.64309 18.0016 12.8562 17.9998C16.0699 18.0016 19.2968 17.9998 22.485 17.642C23.8307 17.4909 24.9496 16.4776 25.2644 15.1042C25.7127 13.1483 25.7143 11.0136 25.7143 9.00013C25.7143 6.98641 25.718 4.85139 25.2699 2.89552ZM9.53877 13.0084C9.53877 10.1517 9.53877 7.32496 9.53877 4.46805C12.264 5.89611 14.9712 7.31457 17.7137 8.75142C14.9797 10.1755 12.2712 11.5854 9.53877 13.0084Z" fill="#DCDCDC"/>
</svg>
