<svg width="14" height="9" viewBox="0 0 14 9" fill="none" xmlns="http://www.w3.org/2000/svg">
<path d="M13.244 4.513L9.254 8.503L8.827 8.062C8.73367 7.96867 8.69633 7.87533 8.715 7.782C8.73833 7.68867 8.78967 7.6 8.869 7.516L10.878 5.521C10.99 5.409 11.095 5.30867 11.193 5.22C11.291 5.13133 11.3867 5.04967 11.48 4.975C11.2467 5.00767 10.9993 5.03333 10.738 5.052C10.4813 5.07067 10.2153 5.08 9.94 5.08H0.826V3.939H9.94C10.2153 3.939 10.4837 3.94833 10.745 3.967C11.0063 3.98567 11.2537 4.01133 11.487 4.044C11.3937 3.96933 11.2957 3.88767 11.193 3.799C11.095 3.71033 10.99 3.61 10.878 3.498L8.855 1.489C8.771 1.405 8.71967 1.31633 8.701 1.223C8.68233 1.12967 8.71733 1.03633 8.806 0.943L9.24 0.495L13.244 4.513Z" fill="#999999"/>
</svg>
