<svg width="20" height="20" viewBox="0 0 20 20" fill="none" xmlns="http://www.w3.org/2000/svg">
<path d="M20 7.9646V16.1947C20 18.3186 18.2301 20.0885 16.1062 20.0885H3.89381C1.76991 20.0885 0 18.3186 0 16.1947V3.89381C0 1.76991 1.76991 0 3.89381 0H16.1947C18.3186 0 20.0885 1.76991 20.0885 3.89381V7.9646H20Z" fill="#DCDCDC"/>
<path d="M10.0008 13.5399C11.9477 13.5399 13.5406 11.9469 13.5406 10C13.5406 9.20357 13.2751 8.4956 12.8326 7.96463C12.2131 7.07967 11.1512 6.46021 10.0008 6.46021C8.85032 6.46021 7.78837 7.07967 7.1689 7.96463C6.72642 8.5841 6.46094 9.29206 6.46094 10C6.46094 11.9469 8.05386 13.5399 10.0008 13.5399Z" fill="white"/>
<path d="M17.6988 5.66371V2.30087H17.2563H14.3359V5.66371H17.6988Z" fill="white"/>
<path d="M15.4871 9.99997C15.4871 13.0088 13.0092 15.4867 10.0004 15.4867C6.99151 15.4867 4.51364 13.0088 4.51364 9.99997C4.51364 9.292 4.69063 8.58404 4.95612 7.96457H1.94727V16.1947C1.94727 17.2566 2.83222 18.1416 3.89417 18.1416H16.1951C17.257 18.1416 18.142 17.2566 18.142 16.1947V7.96457H15.0446C15.3101 8.58404 15.4871 9.292 15.4871 9.99997Z" fill="white"/>
</svg>
