<svg width="28" height="28" viewBox="0 0 28 28" fill="none" xmlns="http://www.w3.org/2000/svg">
<path d="M3.88 15.8839C4.42944 16.7921 5.04454 17.6557 5.72 18.4673C6.71488 18.8216 7.66504 19.2988 8.55 19.8886C8.18 19.3699 7.71 18.7474 7.31 18.1457C6.91 17.5439 6.72 17.1082 6.47 16.7451C5.47 15.1888 7.37 14.4107 8.47 15.6557C8.81764 16.0591 9.11652 16.5051 9.36 16.9837C9.88498 18.0116 10.5596 18.9495 11.36 19.7641C13.27 21.9532 12.63 24.3913 12.55 26.7775H7.92C8.09673 25.9458 8.12048 25.0869 7.99 24.2461C7.23 23.1463 4.73 22.6068 3.58 21.1336C3.05 19.7849 2.41 18.4258 1.9 17.16C1.42517 15.5074 1.12342 13.8065 1 12.0867V12.0349C3.5 11.2983 3.32 14.805 3.88 15.8839Z" stroke="#999999" stroke-linecap="round" stroke-linejoin="round"/>
<path d="M14.0902 3.74535C15.0902 1.67038 16.0902 0.632897 18.0902 0.632897C18.6239 0.625931 19.1536 0.729857 19.648 0.938551C20.1424 1.14725 20.5916 1.45649 20.969 1.84806C21.3464 2.23963 21.6445 2.70561 21.8456 3.21854C22.0468 3.73148 22.1469 4.28099 22.1402 4.83471C22.1402 9.03653 18.0902 13.228 14.0502 17.4298C10.0402 13.1865 5.99023 8.99503 5.99023 4.79322C5.99023 3.69258 6.41166 2.63703 7.16181 1.85876C7.91195 1.0805 8.92937 0.643272 9.99023 0.643272C11.9902 0.643272 12.9902 1.68076 14.0402 3.75573L14.0902 3.74535Z" stroke="#999999" stroke-linecap="round" stroke-linejoin="round"/>
<path d="M10.0398 2.94656C9.80567 2.94519 9.57361 2.99201 9.35705 3.08433C9.14049 3.17665 8.94374 3.31263 8.77819 3.48439C8.61263 3.65615 8.48157 3.86027 8.39259 4.08495C8.3036 4.30963 8.25847 4.55039 8.25979 4.79329" stroke="#999999" stroke-linecap="round" stroke-linejoin="round"/>
<path d="M24.2899 15.8839C23.7565 16.7904 23.1582 17.6539 22.4999 18.4673C21.5051 18.8216 20.5549 19.2988 19.6699 19.8886C20.0399 19.3699 20.5099 18.7474 20.9099 18.1457C21.3099 17.5439 21.4999 17.1082 21.7499 16.7451C22.7999 15.1888 20.8499 14.4107 19.7499 15.6557C19.4023 16.0591 19.1034 16.5051 18.8599 16.9837C18.3006 18.0308 17.5813 18.9768 16.7299 19.7849C14.8199 21.9532 15.4999 24.3913 15.4999 26.7775H20.2099C20.0332 25.9458 20.0095 25.0869 20.1399 24.2461C20.8999 23.1463 23.3999 22.6068 24.5499 21.1336C25.0799 19.7849 25.7199 18.4258 26.2299 17.16C26.7048 15.5074 27.0065 13.8065 27.1299 12.0867V12.0349C24.6599 11.2983 24.8099 14.805 24.2499 15.8839H24.2899Z" stroke="#999999" stroke-linecap="round" stroke-linejoin="round"/>
</svg>
