<svg width="34" height="32" viewBox="0 0 34 32" fill="none" xmlns="http://www.w3.org/2000/svg">
<path d="M23.1902 14.2476H17.6602" stroke="#999999" stroke-linecap="round" stroke-linejoin="round"/>
<path d="M23.19 16.7476H19" stroke="#999999" stroke-linecap="round" stroke-linejoin="round"/>
<path d="M8.17 12.7225C12.07 13.2931 13.91 15.9076 15.51 19.4869H19.85C19.4497 17.6273 18.706 15.8657 17.66 14.2995L20.87 10.9484C21.61 10.9484 22.82 10.9484 23.47 10.9484V9.50632C23.4762 9.29827 23.5315 9.09497 23.6308 8.91413C23.7302 8.7333 23.8706 8.58042 24.04 8.46884H25.12C25.2906 8.57906 25.432 8.73162 25.5315 8.91276C25.631 9.09389 25.6855 9.29788 25.69 9.50632V11.0625C33.28 11.7473 32.99 14.673 32.99 22.3711L30.92 23.4709C30.4399 22.2321 29.5591 21.2054 28.4288 20.5671C27.2985 19.9287 25.9892 19.7185 24.7259 19.9726C23.4625 20.2266 22.3237 20.9291 21.5052 21.9593C20.6866 22.9896 20.2393 24.2833 20.24 25.6185H14.24C14.3006 25.2378 14.3307 24.8527 14.33 24.4669C14.3327 23.1985 13.9984 21.9538 13.3637 20.8697C12.7291 19.7856 11.8186 18.904 10.7324 18.3218C9.64625 17.7396 8.4264 17.4793 7.20692 17.5696C5.98744 17.6598 4.81554 18.0971 3.82 18.8333L1 14.0816C2.18729 13.3949 3.48507 12.9378 4.83 12.7329L3.57 8.10572C5.57 7.55585 6.33 8.10571 7.08 9.94206L8.17 12.7225Z" stroke="#999999" stroke-linecap="round" stroke-linejoin="round"/>
<path d="M7.6499 20.3062C8.44103 20.3062 9.21439 20.5495 9.87218 21.0055C10.53 21.4615 11.0427 22.1097 11.3454 22.868C11.6482 23.6263 11.7274 24.4607 11.573 25.2657C11.4187 26.0707 11.0377 26.8102 10.4783 27.3906C9.91892 27.9709 9.20619 28.3662 8.43026 28.5263C7.65434 28.6864 6.85007 28.6042 6.11917 28.2901C5.38826 27.976 4.76355 27.4441 4.32402 26.7617C3.8845 26.0792 3.6499 25.2769 3.6499 24.4561C3.6499 23.3555 4.07133 22.2999 4.82148 21.5216C5.57162 20.7434 6.58904 20.3062 7.6499 20.3062V20.3062Z" stroke="#999999" stroke-linecap="round" stroke-linejoin="round"/>
<path d="M7.65001 17.5674C8.96525 17.5674 10.251 17.972 11.3446 18.7301C12.4381 19.4882 13.2905 20.5658 13.7938 21.8264C14.2971 23.0871 14.4288 24.4743 14.1722 25.8127C13.9156 27.151 13.2823 28.3803 12.3523 29.3452C11.4222 30.3101 10.2373 30.9672 8.94736 31.2334C7.65738 31.4996 6.32029 31.363 5.10516 30.8408C3.89003 30.3186 2.85145 29.4343 2.12073 28.2997C1.39002 27.1651 1.00001 25.8312 1.00001 24.4667C0.998691 23.5603 1.1698 22.6625 1.50353 21.8248C1.83725 20.9871 2.32704 20.226 2.94481 19.5851C3.56258 18.9442 4.2962 18.436 5.10361 18.0898C5.91102 17.7435 6.77635 17.566 7.65001 17.5674V17.5674Z" stroke="#999999" stroke-linecap="round" stroke-linejoin="round"/>
<path d="M25.7802 22.4019C26.3933 22.4019 26.9927 22.5905 27.5024 22.9439C28.0122 23.2973 28.4096 23.7996 28.6442 24.3873C28.8788 24.975 28.9402 25.6216 28.8206 26.2455C28.701 26.8694 28.4057 27.4425 27.9722 27.8923C27.5387 28.3421 26.9863 28.6484 26.385 28.7725C25.7836 28.8966 25.1603 28.8329 24.5939 28.5895C24.0274 28.346 23.5433 27.9338 23.2026 27.4049C22.862 26.876 22.6802 26.2542 22.6802 25.6181C22.6802 25.1957 22.7604 24.7775 22.9161 24.3873C23.0719 23.9971 23.3003 23.6425 23.5881 23.3439C23.876 23.0452 24.2177 22.8083 24.5939 22.6467C24.97 22.485 25.3731 22.4019 25.7802 22.4019V22.4019Z" stroke="#999999" stroke-linecap="round" stroke-linejoin="round"/>
<path d="M25.7802 19.8706C26.8759 19.8706 27.947 20.2077 28.8581 20.8393C29.7691 21.4708 30.4792 22.3685 30.8985 23.4187C31.3178 24.469 31.4275 25.6247 31.2138 26.7396C31 27.8545 30.4724 28.8787 29.6976 29.6825C28.9228 30.4863 27.9357 31.0337 26.861 31.2555C25.7864 31.4773 24.6725 31.3635 23.6602 30.9284C22.6479 30.4934 21.7826 29.7567 21.1739 28.8115C20.5651 27.8663 20.2402 26.7551 20.2402 25.6183C20.2402 24.0939 20.8239 22.632 21.8629 21.5541C22.9018 20.4762 24.3109 19.8706 25.7802 19.8706Z" stroke="#999999" stroke-linecap="round" stroke-linejoin="round"/>
<path d="M25.6101 1.48633C25.2921 1.58995 25.0186 1.80483 24.8362 2.0943C24.6538 2.38377 24.5739 2.72991 24.6101 3.07368V8.43748" stroke="#999999" stroke-linecap="round" stroke-linejoin="round"/>
<path d="M17.3701 10.4399L19.3401 12.4838" stroke="#999999" stroke-linecap="round" stroke-linejoin="round"/>
<path d="M19.5899 8.13672L15.1499 12.7432" stroke="#999999" stroke-linecap="round" stroke-linejoin="round"/>
<path d="M30.9002 12.5356C28.4702 13.21 27.7402 17.0487 32.9002 16.6856C32.6902 14.7559 32.1902 13.4071 30.9002 12.5356Z" stroke="#999999" stroke-linecap="round" stroke-linejoin="round"/>
</svg>
