<svg width="34" height="31" viewBox="0 0 34 31" fill="none" xmlns="http://www.w3.org/2000/svg">
<path d="M24.138 17.7161H17.878C16.7938 17.7177 15.7239 17.9731 14.748 18.463V12.5286L9.20801 6.07546C11.118 5.78497 11.828 5.3596 13.528 6.74983L16.918 9.17755L23.148 9.87266C30.008 10.6404 31.318 17.7576 24.148 17.7576L24.138 17.7161Z" stroke="#999999" stroke-linecap="round" stroke-linejoin="round"/>
<path d="M24.1382 17.7578L28.9582 25.954" stroke="#999999" stroke-linecap="round" stroke-linejoin="round"/>
<path d="M28.958 21.7622C29.7491 21.7622 30.5225 22.0056 31.1803 22.4616C31.8381 22.9176 32.3508 23.5657 32.6535 24.324C32.9563 25.0823 33.0355 25.9168 32.8811 26.7218C32.7268 27.5268 32.3458 28.2662 31.7864 28.8466C31.227 29.427 30.5143 29.8222 29.7384 29.9824C28.9624 30.1425 28.1582 30.0603 27.4273 29.7462C26.6964 29.4321 26.0717 28.9002 25.6321 28.2177C25.1926 27.5353 24.958 26.7329 24.958 25.9122C24.958 24.8115 25.3794 23.756 26.1296 22.9777C26.8797 22.1994 27.8971 21.7622 28.958 21.7622V21.7622ZM28.958 24.0862C29.314 24.0862 29.662 24.1957 29.958 24.4009C30.254 24.6061 30.4848 24.8978 30.621 25.239C30.7572 25.5802 30.7929 25.9557 30.7234 26.318C30.654 26.6802 30.4825 27.013 30.2308 27.2742C29.9791 27.5353 29.6583 27.7132 29.3092 27.7852C28.96 27.8573 28.5981 27.8203 28.2692 27.679C27.9403 27.5376 27.6591 27.2983 27.4614 26.9912C27.2636 26.6841 27.158 26.323 27.158 25.9537C27.158 25.4584 27.3477 24.9834 27.6852 24.6331C28.0228 24.2829 28.4806 24.0862 28.958 24.0862V24.0862Z" stroke="#999999" stroke-linecap="round" stroke-linejoin="round"/>
<path d="M11.708 21.4928C12.3254 20.3559 13.221 19.4081 14.3043 18.745C15.3876 18.082 16.6203 17.7271 17.878 17.7163M20.598 20.2996C19.9411 20.5217 19.3507 20.9165 18.8846 21.4456C18.4184 21.9747 18.0923 22.62 17.938 23.3187L20.598 20.2996ZM23.368 25.1655C22.8505 24.675 22.2163 24.3366 21.5308 24.1853C20.8452 24.0339 20.1331 24.075 19.468 24.3043L23.368 25.1655ZM20.688 30.0831C20.8405 29.366 20.8039 28.6195 20.5822 27.9222C20.3605 27.2248 19.9618 26.6022 19.428 26.1199L20.688 30.0831ZM15.248 30.1661C15.918 29.9376 16.5179 29.5294 16.9868 28.9828C17.4557 28.4362 17.777 27.7706 17.918 27.0537L15.248 30.1661ZM12.498 25.2796C13.0147 25.7608 13.6432 26.0943 14.3218 26.2471C15.0003 26.3999 15.7055 26.3668 16.368 26.1511L12.498 25.2796ZM15.178 20.3515C15.0352 21.0505 15.0688 21.776 15.2755 22.4576C15.4823 23.1392 15.8551 23.7539 16.358 24.2421L15.178 20.3515ZM18.808 23.5677C19.1162 23.7524 19.3647 24.0278 19.5221 24.359C19.6795 24.6902 19.7387 25.0624 19.6923 25.4285C19.6458 25.7946 19.4958 26.1382 19.2612 26.4158C19.0265 26.6935 18.7178 26.8928 18.3741 26.9885C18.0303 27.0842 17.6669 27.072 17.3298 26.9534C16.9927 26.8349 16.6971 26.6153 16.4803 26.3225C16.2634 26.0297 16.1351 25.6768 16.1116 25.3083C16.088 24.9398 16.1703 24.5724 16.348 24.2525C16.4651 24.0388 16.622 23.8514 16.8095 23.7011C16.9969 23.5508 17.2113 23.4406 17.4401 23.3769C17.669 23.3132 17.9077 23.2973 18.1425 23.33C18.3773 23.3628 18.6035 23.4436 18.808 23.5677V23.5677Z" stroke="#999999" stroke-linecap="round" stroke-linejoin="round"/>
<path d="M26.4982 10.9517C24.0582 11.6365 23.6482 15.2677 28.9082 14.8838C29.0682 13.5247 28.2082 11.9788 26.4982 10.9517ZM4.66818 3.40919L2.16818 3.76194C1.895 3.79771 1.61932 3.71943 1.40178 3.54432C1.18424 3.36921 1.04265 3.11161 1.00818 2.8282C0.973697 2.54479 1.04915 2.25877 1.21793 2.03308C1.38671 1.80738 1.635 1.66049 1.90818 1.62472L4.41818 1.27197L4.66818 3.40919Z" stroke="#999999" stroke-linecap="round" stroke-linejoin="round"/>
<path d="M18.8584 15.0291H14.7484M4.49838 2.34063C4.90165 2.30153 5.30822 2.35776 5.68753 2.50511C6.06685 2.65246 6.40903 2.88709 6.68838 3.19137L14.7484 12.5287L4.49838 2.34063ZM4.33838 0.597656L4.73838 4.06286L4.33838 0.597656ZM18.8584 12.5287H14.7484H18.8584Z" stroke="#999999" stroke-linecap="round" stroke-linejoin="round"/>
</svg>
