<svg width="31" height="30" viewBox="0 0 31 30" fill="none" xmlns="http://www.w3.org/2000/svg">
<path d="M18.5898 20.0751C19.2029 20.0751 19.8023 20.2637 20.3121 20.6171C20.8219 20.9705 21.2192 21.4728 21.4538 22.0605C21.6885 22.6482 21.7499 23.2949 21.6302 23.9188C21.5106 24.5427 21.2154 25.1157 20.7818 25.5655C20.3483 26.0153 19.7959 26.3216 19.1946 26.4457C18.5932 26.5698 17.9699 26.5061 17.4035 26.2627C16.837 26.0193 16.3529 25.607 16.0122 25.0781C15.6716 24.5492 15.4898 23.9274 15.4898 23.2913C15.4898 22.4383 15.8164 21.6203 16.3978 21.0171C16.9791 20.414 17.7676 20.0751 18.5898 20.0751V20.0751ZM18.5898 17.5436C19.6859 17.5416 20.758 17.8769 21.6704 18.5073C22.5827 19.1376 23.2944 20.0345 23.7152 21.0846C24.1361 22.1346 24.2472 23.2906 24.0346 24.4063C23.8219 25.5219 23.2951 26.547 22.5207 27.3519C21.7463 28.1567 20.7592 28.7052 19.6843 28.9278C18.6094 29.1504 17.4949 29.0372 16.4821 28.6025C15.4692 28.1677 14.6033 27.4311 13.9942 26.4856C13.385 25.5402 13.0598 24.4285 13.0598 23.2913C13.0598 21.7687 13.6421 20.3084 14.6789 19.2308C15.7157 18.1532 17.1222 17.5464 18.5898 17.5436V17.5436ZM27.7298 5.35319L24.2798 17.9898H29.9998V20.6769H23.4998C23.0357 19.733 22.3292 18.9406 21.4583 18.3872C20.5875 17.8338 19.5861 17.541 18.5648 17.541C17.5435 17.541 16.5422 17.8338 15.6713 18.3872C14.8004 18.9406 14.0939 19.733 13.6298 20.6769H3.0498V17.9898H13.0498L10.2098 7.53191H24.6798L21.8198 17.9898L25.2798 5.35319H23.1398V1.17212C25.3598 1.17212 27.7298 3.03959 27.7298 5.32206V5.35319Z" stroke="#999999" stroke-linecap="round" stroke-linejoin="round"/>
<path d="M5.16992 17.9898V15.6348M28.1199 17.9898L29.3599 13.29L28.1199 17.9898ZM5.16992 22.6274V20.6769V22.6274Z" stroke="#999999" stroke-linecap="round" stroke-linejoin="round"/>
<path d="M5.17 22.5754L7.81 27.0263L11.03 29.039H6.23L1 24.9928C1.45706 24.2722 2.07458 23.6764 2.80039 23.2557C3.5262 22.8349 4.33896 22.6016 5.17 22.5754V22.5754Z" stroke="#999999" stroke-linecap="round" stroke-linejoin="round"/>
<path d="M23.1102 13.2899H18.2002M23.7902 10.7896H18.2002H23.7902Z" stroke="#999999" stroke-linecap="round" stroke-linejoin="round"/>
</svg>
