<svg width="26" height="27" viewBox="0 0 26 27" fill="none" xmlns="http://www.w3.org/2000/svg">
<path d="M3.7 0.523438H22.23C22.9453 0.526171 23.6305 0.822175 24.1363 1.34691C24.6421 1.87165 24.9274 2.58256 24.93 3.32465V15.567C24.9274 16.3091 24.6421 17.02 24.1363 17.5447C23.6305 18.0695 22.9453 18.3655 22.23 18.3682H14.38L9.25 25.807V18.3267H3.7C2.99158 18.3241 2.31229 18.0338 1.80763 17.518C1.30297 17.0022 1.01307 16.3018 1 15.567V3.32465C1 2.58172 1.28446 1.86922 1.79081 1.34389C2.29716 0.818564 2.98392 0.523438 3.7 0.523438V0.523438Z" stroke="#999999" stroke-linecap="round" stroke-linejoin="round"/>
<path d="M4.20982 7.45383C4.17393 7.13949 4.20263 6.82082 4.29404 6.51882C4.38544 6.21682 4.53748 5.93834 4.74013 5.70171C4.94278 5.46508 5.19145 5.27568 5.46977 5.14598C5.74808 5.01628 6.04972 4.94922 6.35482 4.94922C6.65993 4.94922 6.96157 5.01628 7.23988 5.14598C7.5182 5.27568 7.76687 5.46508 7.96952 5.70171C8.17217 5.93834 8.32421 6.21682 8.41561 6.51882C8.50702 6.82082 8.53572 7.13949 8.49983 7.45383C8.49983 9.7363 6.33982 8.49132 6.33982 11.8735" stroke="#999999" stroke-linecap="round" stroke-linejoin="round"/>
<path fill-rule="evenodd" clip-rule="evenodd" d="M6.36994 13.347C6.50685 13.3659 6.63248 13.4358 6.72347 13.5436C6.81445 13.6514 6.86461 13.7899 6.86461 13.9332C6.86461 14.0765 6.81445 14.2149 6.72347 14.3227C6.63248 14.4305 6.50685 14.5004 6.36994 14.5193C6.28944 14.5305 6.20757 14.5236 6.12982 14.4993C6.05207 14.4749 5.98024 14.4336 5.91914 14.3781C5.85803 14.3226 5.80906 14.2542 5.77551 14.1774C5.74197 14.1007 5.72461 14.0174 5.72461 13.9332C5.72461 13.8489 5.74197 13.7656 5.77551 13.6889C5.80906 13.6121 5.85803 13.5437 5.91914 13.4882C5.98024 13.4327 6.05207 13.3914 6.12982 13.367C6.20757 13.3427 6.28944 13.3358 6.36994 13.347Z" fill="#FF6600" stroke="#999999" stroke-miterlimit="10"/>
<path d="M10.7998 7.45386C10.7998 6.85952 11.0274 6.28952 11.4325 5.86926C11.8375 5.44899 12.3869 5.21289 12.9598 5.21289C13.5327 5.21289 14.0821 5.44899 14.4872 5.86926C14.8922 6.28952 15.1198 6.85952 15.1198 7.45386C15.1198 9.73633 12.9598 8.49135 12.9598 11.8736" stroke="#999999" stroke-linecap="round" stroke-linejoin="round"/>
<path fill-rule="evenodd" clip-rule="evenodd" d="M12.96 13.3468C13.0731 13.3447 13.1843 13.3776 13.2793 13.4414C13.3744 13.5051 13.449 13.5967 13.4937 13.7046C13.5384 13.8124 13.5511 13.9316 13.5302 14.047C13.5094 14.1624 13.4559 14.2687 13.3766 14.3525C13.2973 14.4362 13.1958 14.4936 13.0849 14.5173C12.9741 14.5409 12.859 14.5299 12.7542 14.4854C12.6495 14.441 12.5599 14.3652 12.4968 14.2677C12.4337 14.1703 12.4 14.0555 12.4 13.9381C12.3987 13.861 12.4122 13.7843 12.4397 13.7126C12.4673 13.6409 12.5083 13.5756 12.5604 13.5206C12.6126 13.4655 12.6748 13.4218 12.7434 13.392C12.812 13.3621 12.8856 13.3468 12.96 13.3468Z" fill="#FF6600" stroke="#999999" stroke-miterlimit="10"/>
<path d="M17.3999 7.45386C17.3999 6.85952 17.6275 6.28952 18.0326 5.86926C18.4376 5.44899 18.987 5.21289 19.5599 5.21289C20.1328 5.21289 20.6822 5.44899 21.0873 5.86926C21.4923 6.28952 21.7199 6.85952 21.7199 7.45386C21.7199 9.73633 19.5599 8.49135 19.5599 11.8736" stroke="#999999" stroke-linecap="round" stroke-linejoin="round"/>
<path fill-rule="evenodd" clip-rule="evenodd" d="M19.5602 13.3467C19.673 13.3467 19.7832 13.3814 19.8769 13.4463C19.9706 13.5113 20.0437 13.6037 20.0868 13.7117C20.13 13.8198 20.1413 13.9387 20.1193 14.0534C20.0973 14.1681 20.043 14.2735 19.9633 14.3562C19.8836 14.4389 19.782 14.4952 19.6714 14.5181C19.5609 14.5409 19.4463 14.5292 19.3421 14.4844C19.238 14.4396 19.1489 14.3638 19.0863 14.2666C19.0237 14.1693 18.9902 14.055 18.9902 13.938C18.9902 13.7812 19.0503 13.6308 19.1572 13.5199C19.2641 13.409 19.4091 13.3467 19.5602 13.3467Z" fill="#FF6600" stroke="#999999" stroke-miterlimit="10"/>
</svg>
