<svg width="29" height="28" viewBox="0 0 29 28" fill="none" xmlns="http://www.w3.org/2000/svg">
<path fill-rule="evenodd" clip-rule="evenodd" d="M14.4288 0.000244141L20.875 3.72772L14.4288 7.4552L7.98258 3.72772L14.4288 0.000244141Z" fill="#FF6600"/>
<path fill-rule="evenodd" clip-rule="evenodd" d="M14.8722 8.10263L21.374 4.47004L21.4297 11.8301L14.9278 15.4627L14.8722 8.10263Z" fill="#FF6600"/>
<path fill-rule="evenodd" clip-rule="evenodd" d="M7.3657 11.8781L7.42115 4.51798L13.923 8.15078L13.8676 15.5109L7.3657 11.8781Z" fill="#FF6600"/>
<path fill-rule="evenodd" clip-rule="evenodd" d="M21.9991 12.4896L28.4453 16.2171L21.9991 19.9446L15.5529 16.2171L21.9991 12.4896Z" fill="#FF6600"/>
<path fill-rule="evenodd" clip-rule="evenodd" d="M22.4425 20.592L28.9443 16.9594L29 24.3195L22.4981 27.9521L22.4425 20.592Z" fill="#FF6600"/>
<path fill-rule="evenodd" clip-rule="evenodd" d="M14.936 24.3674L14.9915 17.0074L21.4933 20.6402L21.4379 28.0002L14.936 24.3674Z" fill="#FF6600"/>
<path fill-rule="evenodd" clip-rule="evenodd" d="M7.0631 12.4896L13.5093 16.2171L7.0631 19.9446L0.616878 16.2171L7.0631 12.4896Z" fill="#FF6600"/>
<path fill-rule="evenodd" clip-rule="evenodd" d="M7.50647 20.592L14.0083 16.9594L14.064 24.3195L7.56212 27.9521L7.50647 20.592Z" fill="#FF6600"/>
<path fill-rule="evenodd" clip-rule="evenodd" d="M0 24.3674L0.0554474 17.0074L6.55732 20.6402L6.50187 28.0002L0 24.3674Z" fill="#FF6600"/>
</svg>
