<svg width="24" height="24" viewBox="0 0 24 24" fill="none" xmlns="http://www.w3.org/2000/svg">
<path fill-rule="evenodd" clip-rule="evenodd" d="M0.558594 0.432983H23.6886V23.976H0.558594V0.432983Z" fill="#FF6600"/>
<path d="M17.9519 16.8968C17.9567 16.6316 17.9319 16.3668 17.878 16.1074C17.8393 15.9264 17.7638 15.7557 17.6565 15.6062C17.5774 15.4884 17.4661 15.3969 17.3364 15.3431C17.2022 15.2935 17.0606 15.2681 16.9179 15.2679C16.779 15.2662 16.6411 15.2917 16.5117 15.3431C16.3857 15.3977 16.2785 15.4893 16.2039 15.6062C16.1057 15.7594 16.0349 15.9291 15.9946 16.1074C15.9408 16.3668 15.916 16.6316 15.9208 16.8968C15.9158 17.1494 15.9406 17.4018 15.9946 17.6485C16.0308 17.8204 16.1021 17.9826 16.2039 18.1246C16.2785 18.2415 16.3857 18.3331 16.5117 18.3878C16.6411 18.4391 16.779 18.4646 16.9179 18.4629C17.0804 18.4746 17.2436 18.4533 17.398 18.4003C17.5277 18.3465 17.639 18.2549 17.718 18.1372C17.8278 17.9985 17.9037 17.8353 17.9396 17.6611C17.9937 17.4144 18.0185 17.162 18.0134 16.9093L17.9519 16.8968ZM20.1553 16.8968C20.1496 17.3718 20.049 17.8407 19.8599 18.275C19.6907 18.673 19.4483 19.0345 19.1459 19.34C18.8534 19.6393 18.5064 19.8777 18.1242 20.0417C17.7331 20.2022 17.3149 20.283 16.8933 20.2797C16.4718 20.2811 16.0539 20.2003 15.6623 20.0417C15.2769 19.8838 14.9287 19.6447 14.6406 19.34C14.3495 19.0352 14.1232 18.6727 13.9758 18.275C13.8097 17.8353 13.7261 17.3678 13.7297 16.8968C13.7259 16.4134 13.8093 15.9335 13.9758 15.4809C14.1233 15.0795 14.3495 14.7129 14.6406 14.4034C14.9287 14.0987 15.2769 13.8595 15.6623 13.7017C16.0514 13.5333 16.4704 13.448 16.8933 13.4511C17.3404 13.4434 17.7844 13.5287 18.1981 13.7017C18.5835 13.8595 18.9317 14.0987 19.2198 14.4034C19.5109 14.7129 19.7371 15.0795 19.8845 15.4809C20.0511 15.9335 20.1345 16.4134 20.1307 16.8968H20.1553ZM15.6992 5.79557C15.7968 5.67647 15.9133 5.57483 16.0439 5.49486C16.2119 5.39634 16.4041 5.34853 16.5978 5.35703H18.6905L8.54726 18.6384C8.45597 18.7636 8.33817 18.8664 8.20258 18.9391C8.04608 19.0185 7.87268 19.0573 7.69788 19.0518H5.55599L15.6992 5.79557ZM8.31337 7.57476C8.3209 7.30884 8.29189 7.04315 8.2272 6.7854C8.18938 6.60632 8.11835 6.43622 8.01794 6.28422C7.93179 6.16831 7.81715 6.07755 7.68557 6.0211C7.55214 5.96878 7.41001 5.94325 7.26704 5.94592C7.13226 5.94553 6.99862 5.97103 6.87313 6.0211C6.74339 6.07494 6.63209 6.16645 6.55308 6.28422C6.45699 6.43716 6.39017 6.6072 6.35612 6.7854C6.314 7.0462 6.30161 7.31107 6.31919 7.57476C6.31759 7.828 6.34653 8.08048 6.40536 8.32654C6.44141 8.50021 6.50814 8.66579 6.60232 8.81519C6.68539 8.92602 6.79582 9.01248 6.92237 9.06578C7.04786 9.11585 7.1815 9.14135 7.31628 9.14096C7.45925 9.14363 7.60138 9.1181 7.73481 9.06578C7.86324 9.00969 7.97704 8.92389 8.06718 8.81519C8.15596 8.68097 8.2225 8.53282 8.26413 8.37665C8.32899 8.13173 8.35803 7.87842 8.3503 7.62488L8.31337 7.57476ZM10.5045 7.57476C10.5168 8.03762 10.437 8.49823 10.2699 8.92888C10.1028 9.35953 9.85177 9.75132 9.53203 10.0807C9.23669 10.3792 8.88493 10.6136 8.49802 10.7698C8.10778 10.9346 7.68953 11.0197 7.26704 11.0204C6.84496 11.0157 6.42746 10.9307 6.03607 10.7698C5.65291 10.6134 5.30522 10.3789 5.01436 10.0807C4.72595 9.77376 4.50004 9.41181 4.34964 9.01566C4.18765 8.57518 4.10831 8.10768 4.11575 7.63741C4.10801 7.15488 4.18729 6.67499 4.34964 6.22157C4.50005 5.8217 4.72587 5.45565 5.01436 5.14403C5.30452 4.84187 5.65217 4.60312 6.03607 4.44237C6.42746 4.28146 6.84496 4.19647 7.26704 4.19178C7.71389 4.1878 8.15718 4.27293 8.57187 4.44237C8.9573 4.60021 9.3055 4.83934 9.59358 5.14403C9.88995 5.45176 10.1205 5.81865 10.2706 6.22157C10.433 6.67499 10.5122 7.15488 10.5045 7.63741V7.57476Z" fill="white"/>
</svg>
