<svg width="29" height="17" viewBox="0 0 29 17" fill="none" xmlns="http://www.w3.org/2000/svg">
<path fill-rule="evenodd" clip-rule="evenodd" d="M24.9586 10.7293C25.9206 11.6685 26.9359 12.5521 27.7987 13.586C28.1798 14.0455 28.5407 14.5196 28.8167 15.0528C29.2078 15.8108 28.8536 16.6449 28.1739 16.6901L23.9491 16.6882C22.8595 16.7786 21.9902 16.34 21.2593 15.5949C20.6744 14.9991 20.1327 14.365 19.5703 13.7491C19.3397 13.4974 19.0983 13.2605 18.81 13.0733C18.2333 12.6989 17.7326 12.8136 17.4031 13.4151C17.0674 14.0269 16.9913 14.7043 16.9583 15.3862C16.913 16.381 16.6123 16.6426 15.613 16.6881C13.4774 16.7888 11.4505 16.4657 9.56765 15.3884C7.90765 14.4386 6.62039 13.0978 5.49997 11.5799C3.31849 8.62412 1.64791 5.37624 0.14646 2.03737C-0.191505 1.28512 0.0556561 0.881317 0.885657 0.867025C2.26391 0.84025 3.64197 0.842156 5.02185 0.865119C5.58201 0.873313 5.95285 1.1946 6.16914 1.7238C6.91481 3.55731 7.82723 5.30173 8.97252 6.91867C9.27752 7.34915 9.58852 7.77963 10.0314 8.08263C10.5213 8.41812 10.8944 8.30692 11.1248 7.76115C11.2711 7.41509 11.3351 7.04234 11.3681 6.6717C11.4773 5.39654 11.4917 4.12357 11.3002 2.85289C11.1826 2.05986 10.7359 1.54648 9.94459 1.39641C9.54078 1.3199 9.6009 1.16964 9.79642 0.939153C10.136 0.541637 10.4554 0.294189 11.0921 0.294189H15.8667C16.6184 0.442543 16.7854 0.780223 16.8883 1.53657L16.8924 6.84025C16.8842 7.13305 17.0386 8.00193 17.566 8.19573C17.9881 8.3337 18.2663 7.99602 18.5196 7.72837C19.6628 6.51505 20.4787 5.08115 21.2076 3.59638C21.5311 2.9435 21.8092 2.26548 22.0787 1.58802C22.2785 1.08532 22.5918 0.837963 23.1581 0.848921L27.7534 0.853018C27.8897 0.853018 28.0276 0.855019 28.1595 0.877601C28.9339 1.00957 29.1461 1.34267 28.9069 2.09883C28.5301 3.28518 27.7969 4.27383 27.08 5.26705C26.3136 6.32744 25.494 7.35153 24.7341 8.41821C24.0358 9.39228 24.0913 9.88327 24.9586 10.7293Z" fill="#DCDCDC"/>
</svg>
