<svg width="26" height="27" viewBox="0 0 26 27" fill="none" xmlns="http://www.w3.org/2000/svg">
<path d="M10.5625 15.5071C12.4636 14.5594 14.3481 13.6204 16.25 12.6722C14.3424 11.7152 12.4584 10.7708 10.5625 9.81958C10.5625 11.722 10.5625 13.6049 10.5625 15.5071Z" fill="#999999"/>
<path d="M13 0.0695801C5.82054 0.0695801 0 5.88986 0 13.0696C0 20.2493 5.82054 26.0696 13 26.0696C20.1795 26.0696 26 20.2493 26 13.0696C26 5.88986 20.1795 0.0695801 13 0.0695801ZM21.8576 17.4089C21.6325 18.385 20.834 19.105 19.873 19.2122C17.597 19.4668 15.2936 19.4681 12.9995 19.4668C10.7053 19.4681 8.40139 19.4668 6.12483 19.2122C5.16383 19.105 4.36587 18.385 4.14138 17.4089C3.8214 16.0183 3.8214 14.5008 3.8214 13.0696C3.8214 11.6383 3.82513 10.1203 4.1451 8.73031C4.3696 7.75414 5.16755 7.03386 6.12855 6.9264C8.40512 6.67212 10.7091 6.67079 13.0032 6.67212C15.2968 6.67079 17.6007 6.67212 19.8765 6.9264C20.838 7.03386 21.6365 7.75388 21.861 8.73031C22.181 10.1206 22.1783 11.6383 22.1783 13.0696C22.1783 14.5008 22.1775 16.0186 21.8576 17.4089Z" fill="#999999"/>
</svg>
