<svg width="52" height="52" viewBox="0 0 52 52" fill="none" xmlns="http://www.w3.org/2000/svg">
<path d="M26 1C30.9445 1 35.778 2.46622 39.8892 5.21326C44.0005 7.96029 47.2048 11.8648 49.097 16.4329C50.9892 21.0011 51.4843 26.0277 50.5196 30.8772C49.555 35.7268 47.174 40.1813 43.6777 43.6777C40.1813 47.174 35.7268 49.555 30.8772 50.5196C26.0277 51.4843 21.0011 50.9892 16.4329 49.097C11.8648 47.2048 7.96029 44.0005 5.21326 39.8892C2.46622 35.778 1 30.9445 1 26C1 19.3696 3.63392 13.0107 8.32233 8.32233C13.0107 3.63392 19.3696 1 26 1V1Z" stroke="#FF6600" stroke-width="2" stroke-linecap="round" stroke-linejoin="round"/>
<path d="M20.3242 13.4753L38.0492 26.0003L20.3242 38.5503V13.4753Z" stroke="#FF6600" stroke-width="2" stroke-linecap="round" stroke-linejoin="round"/>
</svg>
