<svg width="90" height="63" viewBox="0 0 90 63" fill="none" xmlns="http://www.w3.org/2000/svg">
<g>
<path d="M88.4448 10.1344C87.343 5.32744 83.428 1.78103 78.715 1.25201C67.5546 0.0008316 56.2585 -0.0056992 45.0144 0.000831938C33.7685 -0.0056992 22.4705 0.0008316 11.31 1.25201C6.59984 1.78103 2.68769 5.32744 1.58586 10.1344C0.0176517 16.9799 0 24.4525 0 31.5005C0 38.5486 0 46.0202 1.56821 52.8648C2.66818 57.6708 6.58126 61.2172 11.2942 61.7472C22.4538 62.9993 33.7508 63.0058 44.9967 62.9993C56.2445 63.0058 67.5388 62.9993 78.6974 61.7472C83.4076 61.2182 87.3235 57.6717 88.4253 52.8648C89.9944 46.0193 90 38.5476 90 31.5005C90 24.4525 90.013 16.9799 88.4448 10.1344ZM33.3857 45.5294C33.3857 35.5312 33.3857 25.6374 33.3857 15.6383C42.9241 20.6364 52.3993 25.601 61.998 30.63C52.429 35.6142 42.9492 40.549 33.3857 45.5294Z" fill="#EEEEEE"/>
</g>
</svg>
