<svg width="221" height="46" viewBox="0 0 221 46" fill="none" xmlns="http://www.w3.org/2000/svg">
<path fill-rule="evenodd" clip-rule="evenodd" d="M34.0446 23.6589H34.6973V22.5123H25.5424V24.6997C25.5424 24.8868 25.468 25.0663 25.3357 25.1986C25.2034 25.331 25.0239 25.4053 24.8368 25.4053H18.9981C19.1255 25.9429 19.1906 26.4934 19.1921 27.0458C19.1975 27.6405 19.1264 28.2334 18.9805 28.8098H28.8057C28.8648 27.4464 29.4483 26.1586 30.4344 25.2152C31.4205 24.2718 32.7329 23.7458 34.0975 23.7471L34.0446 23.6589Z" fill="#FF6600"/>
<path fill-rule="evenodd" clip-rule="evenodd" d="M32.227 18.5786H22.0137V20.8718H34.6965C34.6478 20.2493 34.3668 19.668 33.9093 19.2432C33.4518 18.8183 32.8513 18.5811 32.227 18.5786Z" fill="#FF6600"/>
<path fill-rule="evenodd" clip-rule="evenodd" d="M34.0443 34.1556C33.6819 34.1591 33.3204 34.1177 32.9683 34.0321C30.1048 36.7144 26.3355 38.2186 22.4122 38.2447C18.4888 38.2709 14.6998 36.8171 11.8008 34.1732C10.4245 34.1443 9.08564 33.7194 7.94458 32.9492C6.80352 32.179 5.90861 31.0963 5.367 29.8306C4.82539 28.5649 4.66002 27.17 4.89071 25.8127C5.1214 24.4555 5.73837 23.1935 6.66774 22.1779C6.66774 21.8075 6.66774 21.4194 6.66774 21.0489C6.8327 18.9774 7.40909 16.9596 8.36319 15.1136C9.3173 13.2675 10.6299 11.6303 12.2244 10.2976C13.8188 8.96494 15.6629 7.96363 17.6489 7.35225C19.635 6.74087 21.7229 6.53169 23.7908 6.73695C25.8586 6.94222 27.8647 7.5578 29.6918 8.5477C31.5189 9.53759 33.1302 10.8819 34.4315 12.502C35.7328 14.1221 36.698 15.9855 37.2706 17.9831C37.8432 19.9807 38.0117 22.0725 37.7662 24.136C37.7662 24.4888 37.678 24.8416 37.6251 25.1767C38.3444 25.9172 38.8315 26.8519 39.0263 27.8658C39.2211 28.8796 39.1151 29.9283 38.7214 30.8826C38.3276 31.837 37.6634 32.6553 36.8104 33.2369C35.9574 33.8184 34.953 34.1378 33.9208 34.1556H34.0443ZM44.8926 23.8184C44.9928 21.8855 44.8506 19.9477 44.4692 18.0501L41.6469 17.3622C41.0885 15.33 40.2198 13.3962 39.0715 11.6291L40.4121 9.03601C39.2453 7.48986 37.8881 6.09706 36.3727 4.89057L33.7797 6.1783C32.0404 5.00883 30.1303 4.11621 28.1174 3.53228L27.4647 0.58638C26.5101 0.373407 25.5443 0.214393 24.5718 0.110096C23.622 0.0223139 22.668 -0.01302 21.7142 0.00425517L20.55 2.66792C18.4539 2.85895 16.4005 3.37678 14.4644 4.20261L12.136 2.43859C10.4141 3.318 8.80829 4.40831 7.35568 5.68438L8.1671 8.47152C6.68146 9.96954 5.43772 11.6894 4.48044 13.5695L1.56992 13.7106C0.810969 15.488 0.28335 17.3555 0 19.2673L2.41661 20.8902C2.23801 22.9887 2.3928 25.1023 2.87524 27.1524L0.72322 29.1458C1.28477 31.0054 2.08523 32.7842 3.10455 34.4378L5.97979 34.1203C7.19643 35.8421 8.67208 37.3654 10.3544 38.6362L10.0016 41.5292C11.612 42.6186 13.3624 43.4849 15.2053 44.1046L17.1985 42.0054C18.2349 42.2748 19.2905 42.4635 20.356 42.5699C21.3893 42.6488 22.4272 42.6488 23.4606 42.5699L25.0481 45.0219C26.9658 44.7983 28.8457 44.3239 30.6398 43.6107L30.8339 40.7177C32.737 39.8212 34.4871 38.6306 36.0199 37.1897L38.8246 38.054C40.1458 36.6488 41.2784 35.0773 42.1937 33.3794L40.4298 31.0333C41.3296 29.1207 41.9248 27.0792 42.1937 24.9827L44.8926 23.8537V23.8184Z" fill="#FF6600"/>
<path fill-rule="evenodd" clip-rule="evenodd" d="M34.0434 31.4029C33.548 31.4029 33.0637 31.256 32.6518 30.9808C32.2399 30.7056 31.9188 30.3143 31.7293 29.8566C31.5397 29.3989 31.4901 28.8953 31.5867 28.4094C31.6834 27.9235 31.9219 27.4771 32.2722 27.1268C32.6225 26.7765 33.0688 26.5379 33.5547 26.4413C34.0406 26.3446 34.5443 26.3942 35.0019 26.5838C35.4596 26.7734 35.8508 27.0945 36.1261 27.5064C36.4013 27.9183 36.5482 28.4026 36.5482 28.898C36.5482 29.5624 36.2843 30.1995 35.8146 30.6693C35.3448 31.139 34.7077 31.4029 34.0434 31.4029ZM34.0434 24.2234C33.1178 24.2373 32.2169 24.5248 31.4543 25.0495C30.6917 25.5743 30.1013 26.3129 29.7575 27.1725C29.4137 28.0321 29.3318 28.9741 29.5222 29.8801C29.7125 30.7861 30.1666 31.6155 30.8273 32.264C31.488 32.9124 32.3257 33.351 33.2351 33.5244C34.1444 33.6978 35.0848 33.5983 35.9377 33.2385C36.7906 32.8787 37.5181 32.2746 38.0285 31.5022C38.5389 30.7299 38.8094 29.8238 38.8061 28.898C38.8061 28.2827 38.6846 27.6734 38.4486 27.1051C38.2125 26.5368 37.8666 26.0206 37.4307 25.5863C36.9948 25.152 36.4774 24.8081 35.9082 24.5742C35.339 24.3403 34.7293 24.2211 34.114 24.2234H34.0434Z" fill="#FF6600"/>
<path fill-rule="evenodd" clip-rule="evenodd" d="M12.8942 19.0901C13.0156 19.3044 13.1931 19.4816 13.4074 19.6027C13.6218 19.7239 13.8651 19.7845 14.1113 19.7781H18.0802V18.5786H14.1113C14.0727 18.5787 14.0346 18.5691 14.0007 18.5506C13.9668 18.5321 13.9381 18.5053 13.9173 18.4727L11.7476 14.9447C11.711 14.87 11.6593 14.8038 11.5957 14.7502C11.5321 14.6966 11.4581 14.6568 11.3783 14.6333C11.2985 14.6099 11.2148 14.6032 11.1323 14.6139C11.0498 14.6246 10.9705 14.6522 10.8993 14.6952C10.8281 14.7382 10.7666 14.7955 10.7187 14.8635C10.6708 14.9315 10.6376 15.0087 10.6212 15.0902C10.6048 15.1717 10.6055 15.2558 10.6233 15.337C10.641 15.4183 10.6755 15.4949 10.7245 15.5621L12.8942 19.0901Z" fill="#FF6600"/>
<path fill-rule="evenodd" clip-rule="evenodd" d="M12.0135 25.3524C11.6848 25.3524 11.3635 25.4501 11.0905 25.6331C10.8174 25.8161 10.6049 26.0761 10.48 26.3801C10.355 26.6842 10.3232 27.0185 10.3886 27.3406C10.4541 27.6627 10.6137 27.9581 10.8474 28.1893C11.0811 28.4205 11.3782 28.577 11.701 28.639C12.0238 28.701 12.3577 28.6656 12.6603 28.5374C12.963 28.4092 13.2207 28.1939 13.4008 27.9189C13.5808 27.6439 13.6751 27.3216 13.6716 26.9929C13.667 26.5562 13.4902 26.139 13.1798 25.8318C12.8693 25.5246 12.4502 25.3524 12.0135 25.3524Z" fill="#FF6600"/>
<path fill-rule="evenodd" clip-rule="evenodd" d="M12.0132 31.3324C11.1549 31.3324 10.316 31.0779 9.60238 30.6011C8.88878 30.1242 8.3326 29.4465 8.00416 28.6536C7.67573 27.8606 7.5898 26.9881 7.75723 26.1463C7.92466 25.3046 8.33795 24.5313 8.94481 23.9244C9.55168 23.3176 10.3249 22.9043 11.1666 22.7368C12.0084 22.5694 12.8809 22.6553 13.6738 22.9838C14.4667 23.3122 15.1444 23.8684 15.6212 24.582C16.098 25.2957 16.3525 26.1346 16.3525 26.9929C16.3525 28.1438 15.8953 29.2476 15.0815 30.0614C14.2678 30.8752 13.164 31.3324 12.0132 31.3324ZM12.0132 20.4131C10.7076 20.4131 9.43143 20.8005 8.34615 21.5262C7.26087 22.252 6.41531 23.2834 5.91651 24.4899C5.4177 25.6965 5.28809 27.0239 5.54408 28.3041C5.80006 29.5844 6.43014 30.7599 7.35454 31.6819C8.27893 32.6038 9.45609 33.2308 10.737 33.4833C12.0179 33.7359 13.3449 33.6027 14.55 33.1007C15.7552 32.5986 16.7843 31.7503 17.5071 30.663C18.2299 29.5758 18.6138 28.2985 18.6104 26.9929C18.6057 25.2462 17.9086 23.5727 16.6719 22.3392C15.4352 21.1058 13.7598 20.4131 12.0132 20.4131Z" fill="#FF6600"/>
<path fill-rule="evenodd" clip-rule="evenodd" d="M31.3627 12.969H29.8457V18.0494H31.3627V12.969Z" fill="#FF6600"/>
<path fill-rule="evenodd" clip-rule="evenodd" d="M32.1562 22.1066H34.6963V21.3304H32.1562V22.1066Z" fill="#FF6600"/>
<path fill-rule="evenodd" clip-rule="evenodd" d="M69.7122 20.1485H62.4271V12.5104H56.4473V32.5143H62.4976V24.8585H69.7122L75.004 32.5143H81.707L74.4219 22.2301L81.1426 12.5104H74.8629L69.7122 20.1485ZM108.166 27.9278V12.5104H84.4588V32.5143H90.5092V27.9278H108.166ZM90.5268 23.2179V17.2203H102.134V23.2179H90.5268ZM111.835 32.5143H136.125V12.5104H111.818V32.5143H111.835ZM117.886 17.185H130.092V27.7691H117.868V17.185H117.886ZM158.051 32.5143H164.048V12.5104H158.033V20.1485H145.827V12.5104H139.776V32.5143H145.827V24.8585H158.033V32.5143H158.051ZM167.753 32.5143H192.06V12.5104H167.735V32.5143H167.753ZM173.803 17.185H186.009V27.7691H173.785V17.185H173.803ZM201.762 17.185H213.968V19.9545H220.018V12.5104H195.694V32.5143H220.001V25.0525H213.95V27.822H201.744V17.2379L201.762 17.185Z" fill="#FF6600"/>
</svg>
