<svg xmlns="http://www.w3.org/2000/svg" xmlns:xlink="http://www.w3.org/1999/xlink">
    <defs>
        <symbol id="svg-icon-down" width="12" height="8">
            <path d="M1.4 0.299951L-2.62268e-07 1.69995L6 7.69995L12 1.69995L10.6 0.29995L6 4.89995L1.4 0.299951Z"/>
        </symbol>
        <symbol id="svg-icon-up" width="12" height="8">
            <path d="M1.4 7.70005L-2.62268e-07 6.30005L6 0.300049L12 6.30005L10.6 7.70005L6 3.10005L1.4 7.70005Z" />
        </symbol>
        <symbol id="svg-icon-left" width="8" height="13">
            <path d="M7.70078 1.46958L6.30078 0.0695801L0.300781 6.06958L6.30078 12.0696L7.70078 10.6696L3.10078 6.06958L7.70078 1.46958Z"/>
        </symbol>
        <symbol id="svg-icon-right" width="8" height="13">
            <path d="M0.299218 1.46958L1.69922 0.0695801L7.69922 6.06958L1.69922 12.0696L0.299218 10.6696L4.89922 6.06958L0.299218 1.46958Z" />
        </symbol>
        <symbol id="svg-icon-phone" width="22" height="22" fill="none">
            <path d="M20.5841 18.7667C20.1747 19.4904 19.5214 20.0457 18.7406 20.3339C17.9478 20.7338 17.0786 20.9598 16.1911 20.9966C15.9655 20.9935 15.7403 20.9759 15.5169 20.944L14.927 20.8493C14.7098 20.8007 14.4953 20.7411 14.2843 20.6705L13.7049 20.4707L13.115 20.2393L12.525 20.0184C10.1535 19.0889 8.01413 17.6529 6.25685 15.8111C4.41262 14.0603 2.97435 11.9279 2.04294 9.56335L1.82171 8.97434L1.52674 8.31169C1.52674 8.19599 1.42139 8.00667 1.33711 7.7332C1.26646 7.52253 1.20668 7.30838 1.15802 7.09159C1.15802 6.93031 1.12642 6.73047 1.06321 6.49205C1.02725 6.27284 1.00613 6.05146 1 5.82941C1.03685 4.94339 1.26315 4.0755 1.66369 3.28402C1.95234 2.50438 2.50852 1.85218 3.23337 1.44334C3.85534 1.17193 4.52473 1.0254 5.20337 1.0121C5.3077 0.99141 5.41509 0.99141 5.51942 1.0121C5.58263 1.0121 5.68797 1.1278 5.83546 1.3592C5.98295 1.56956 6.1515 1.83251 6.33059 2.14806C6.50968 2.4636 6.67824 2.77915 6.8468 3.07366L7.3314 3.9677L7.62637 4.52516L7.8476 4.93537C7.95958 5.08794 8.05826 5.24981 8.14257 5.4192C8.20154 5.54816 8.23379 5.68769 8.23739 5.82941C8.20044 6.10772 8.06159 6.36252 7.8476 6.54464C7.58138 6.82789 7.28858 7.085 6.97321 7.31247C6.65968 7.54244 6.36387 7.79559 6.08829 8.06978C5.89725 8.23803 5.77374 8.46971 5.74065 8.7219C5.71935 8.82955 5.71935 8.94032 5.74065 9.04796C5.77523 9.1492 5.81749 9.24765 5.86706 9.34247C5.91906 9.45859 5.97889 9.57104 6.04616 9.67905L6.25685 9.95252C6.92111 11.1714 7.75457 12.2903 8.73252 13.2763C9.72 14.2527 10.8407 15.0848 12.0615 15.748L12.3354 15.9163C12.4436 15.9835 12.5562 16.0432 12.6725 16.0951L12.9675 16.2213C13.0703 16.2674 13.1814 16.2925 13.2941 16.295C13.5048 16.295 13.7892 16.0741 14.1579 15.6534C14.5266 15.2326 14.8954 14.7909 15.2746 14.3701C15.6539 13.9494 15.9488 13.7391 16.1911 13.7391C16.3331 13.7426 16.4728 13.7748 16.602 13.8337C16.7738 13.9139 16.9363 14.0127 17.0866 14.1282L17.4553 14.3807L18.5088 14.9486C19.1935 15.3063 19.773 15.6323 20.2365 15.9163C20.7 16.2003 20.9529 16.3791 20.9845 16.4843C21.0052 16.5885 21.0052 16.6957 20.9845 16.7998C20.9711 17.4774 20.8244 18.1457 20.5525 18.7667H20.5841Z" stroke-width="1.2" stroke-linecap="round" stroke-linejoin="round"></path>
            <path d="M11.0078 1.0121C12.3188 1.01485 13.6164 1.27558 14.8265 1.77936C16.0365 2.28314 17.1352 3.0201 18.0598 3.9481C18.9844 4.8761 19.7167 5.97696 20.2149 7.18771C20.713 8.39847 20.9673 9.6954 20.9632 11.0043" stroke-width="1.2" stroke-linecap="round" stroke-linejoin="round"></path>
            <path d="M11.0078 8.13288C11.3822 8.13563 11.7524 8.21216 12.0972 8.35809C12.4419 8.50401 12.7544 8.71646 13.0167 8.98324C13.279 9.25002 13.486 9.56589 13.6257 9.91272C13.7655 10.2595 13.8353 10.6305 13.8311 11.0043" stroke-width="1.2" stroke-linecap="round" stroke-linejoin="round"></path>
            <path d="M11.0078 4.57775C11.8498 4.58051 12.6831 4.749 13.4598 5.07359C14.2365 5.39818 14.9416 5.87249 15.5345 6.4694C16.1275 7.0663 16.5967 7.77408 16.9154 8.55223C17.2341 9.33039 17.396 10.1636 17.3919 11.0043" stroke-width="1.2" stroke-linecap="round" stroke-linejoin="round"></path>
        </symbol>
        <symbol id="svg-icon-review" width="22" height="22" fill="none">
            <path d="M10.9978 1C12.5654 0.999305 14.1112 1.36732 15.5104 2.07434C16.9096 2.78135 18.1229 3.80755 19.0525 5.07008C19.9821 6.33261 20.6018 7.79608 20.8617 9.34234C21.1215 10.8886 21.0142 12.4743 20.5484 13.9714C20.0826 15.4686 19.2714 16.8352 18.1802 17.9609C17.089 19.0866 15.7484 19.9399 14.2667 20.4519C12.7851 20.9639 11.2038 21.1202 9.65057 20.9082C8.09735 20.6962 6.61574 20.1219 5.32536 19.2316L1 21L2.76803 16.6737C1.7341 15.1727 1.12998 13.4177 1.02097 11.5982C0.911952 9.77876 1.30219 7.96409 2.1495 6.35038C2.99681 4.73666 4.26896 3.38527 5.82846 2.44228C7.38795 1.49929 9.17546 1.00056 10.9978 1V1Z" stroke-width="1.2" stroke-linecap="round" stroke-linejoin="round"></path>
            <path d="M5.89453 7.28421H16.1028" stroke-width="1.2" stroke-linecap="round" stroke-linejoin="round"></path>
            <path d="M5.89453 11H16.1028" stroke-width="1.2" stroke-linecap="round" stroke-linejoin="round"></path>
            <path d="M5.89453 14.7158H16.1028" stroke-width="1.2" stroke-linecap="round" stroke-linejoin="round"></path>
        </symbol>
        <symbol id="svg-icon-search" width="22" height="22" fill="none">
            <path d="M8.48422 1.00001C9.96445 1.00001 11.4114 1.43895 12.6422 2.26132C13.873 3.0837 14.8323 4.25257 15.3987 5.62013C15.9652 6.98769 16.1134 8.49252 15.8246 9.94431C15.5358 11.3961 14.823 12.7297 13.7764 13.7764C12.7297 14.823 11.3961 15.5358 9.94431 15.8246C8.49252 16.1134 6.98769 15.9652 5.62013 15.3987C4.25257 14.8323 3.0837 13.873 2.26132 12.6422C1.43895 11.4114 1.00001 9.96445 1.00001 8.48422C0.998622 7.50099 1.19126 6.52715 1.56689 5.61849C1.94251 4.70984 2.49374 3.88424 3.18899 3.18899C3.88424 2.49374 4.70984 1.94251 5.61849 1.56689C6.52715 1.19126 7.50099 0.998622 8.48422 1.00001V1.00001Z" stroke-width="1.2" stroke-linecap="round" stroke-linejoin="round"></path>
            <path d="M20.9992 21L13.7676 13.7684" stroke-width="1.2" stroke-linecap="round" stroke-linejoin="round"></path>
        </symbol>
        <symbol id="svg-icon-shop" width="22" height="22" fill="none">
            <path d="M5.00031 6.48421C5.00307 7.01379 5.21468 7.52089 5.58915 7.89536C5.96363 8.26984 6.47073 8.48144 7.00031 8.48421C7.52989 8.48144 8.03699 8.26984 8.41147 7.89536C8.78594 7.52089 8.99755 7.01379 9.00031 6.48421C9.00308 7.01379 9.21468 7.52089 9.58915 7.89536C9.96363 8.26984 10.4707 8.48144 11.0003 8.48421V8.48421C11.5299 8.48144 12.037 8.26984 12.4115 7.89536C12.7859 7.52089 12.9975 7.01379 13.0003 6.48421C13.0031 7.01379 13.2147 7.52089 13.5892 7.89536C13.9636 8.26984 14.4707 8.48144 15.0003 8.48421V8.48421C15.5299 8.48144 16.037 8.26984 16.4115 7.89536C16.7859 7.52089 16.9975 7.01379 17.0003 6.48421C17.0031 7.01379 17.2147 7.52089 17.5892 7.89536C17.9636 8.26984 18.4707 8.48144 19.0003 8.48421V8.48421C19.2914 8.48243 19.5786 8.41779 19.8424 8.29473V21H2.1582V8.29473C2.4202 8.42294 2.70865 8.48784 3.00031 8.48421C3.52989 8.48144 4.03699 8.26984 4.41147 7.89536C4.78594 7.52089 4.99754 7.01379 5.00031 6.48421V6.48421Z" stroke-width="1.2" stroke-linecap="round" stroke-linejoin="round"></path>
            <path d="M1 1H5V6.48421C4.99724 7.01379 4.78563 7.52089 4.41116 7.89537C4.03668 8.26984 3.52958 8.48144 3 8.48421V8.48421C2.47042 8.48144 1.96332 8.26984 1.58884 7.89537C1.21437 7.52089 1.00277 7.01379 1 6.48421V1Z" stroke-width="1.2" stroke-linecap="round" stroke-linejoin="round"></path>
            <path d="M9 1H5V6.48421C5.00277 7.01379 5.21437 7.52089 5.58884 7.89537C5.96332 8.26984 6.47042 8.48144 7 8.48421C7.52958 8.48144 8.03668 8.26984 8.41116 7.89537C8.78563 7.52089 8.99724 7.01379 9 6.48421V1Z" stroke-width="1.2" stroke-linecap="round" stroke-linejoin="round"></path>
            <path d="M9 1H13V6.48421C12.9972 7.01379 12.7856 7.52089 12.4112 7.89537C12.0367 8.26984 11.5296 8.48144 11 8.48421C10.4704 8.48144 9.96332 8.26984 9.58884 7.89537C9.21437 7.52089 9.00277 7.01379 9 6.48421V1Z" stroke-width="1.2" stroke-linecap="round" stroke-linejoin="round"></path>
            <path d="M17 1H13V6.48421C13.0028 7.01379 13.2144 7.52089 13.5888 7.89537C13.9633 8.26984 14.4704 8.48144 15 8.48421V8.48421C15.5296 8.48144 16.0367 8.26984 16.4112 7.89537C16.7856 7.52089 16.9972 7.01379 17 6.48421V1V1Z" stroke-width="1.2" stroke-linecap="round" stroke-linejoin="round"></path>
            <path d="M17 1H21V6.48421C20.9972 7.01379 20.7856 7.52089 20.4112 7.89537C20.0367 8.26984 19.5296 8.48144 19 8.48421V8.48421C18.4704 8.48144 17.9633 8.26984 17.5888 7.89537C17.2144 7.52089 17.0028 7.01379 17 6.48421V1V1Z" stroke-width="1.2" stroke-linecap="round" stroke-linejoin="round"></path>
            <path d="M5.40039 11.8737H9.47408V16.9579H5.40039V11.8737Z" stroke-width="1.2" stroke-linecap="round" stroke-linejoin="round"></path>
            <path d="M12.5254 11.8737H16.5991V21H12.5254V11.8737Z" stroke-width="1.2" stroke-linecap="round" stroke-linejoin="round"></path>
        </symbol>
        <symbol id="svg-icon-video" width="23" height="23" fill="none">
            <path d="M11.5 1.5C17 1.5 21.5 6 21.5 11.5C21.5 17 17 21.5 11.5 21.5C6 21.5 1.5 17 1.5 11.5C1.5 6 6 1.5 11.5 1.5Z" stroke-width="1.2" stroke-miterlimit="22.9256" stroke-linecap="round" stroke-linejoin="round"></path>
            <path d="M9.19922 6.5L16.2992 11.5L9.19922 16.5V6.5Z" stroke-width="1.2" stroke-miterlimit="22.9256" stroke-linecap="round" stroke-linejoin="round"></path>
        </symbol>
        <symbol id="svg-icon-lupa" width="27" height="27" fill="none">
            <path d="M10.2578 1C12.0888 1 13.8787 1.54752 15.4012 2.57333C16.9236 3.59914 18.1102 5.05717 18.8109 6.76303C19.5116 8.46889 19.6949 10.346 19.3377 12.1569C18.9805 13.9678 18.0988 15.6313 16.8041 16.9369C15.5093 18.2425 13.8598 19.1316 12.0639 19.4918C10.2681 19.8521 8.40664 19.6672 6.715 18.9606C5.02335 18.254 3.57748 17.0574 2.56022 15.5222C1.54296 13.987 0.999994 12.182 0.999994 10.3356C0.999994 7.85965 1.97537 5.4851 3.71155 3.73434C5.44772 1.98357 7.80248 1 10.2578 1V1Z" stroke-linecap="round" stroke-linejoin="round"></path>
            <path d="M26 26L17.0547 16.9796" stroke-linecap="round" stroke-linejoin="round"></path>
            <path d="M14.8145 10.3356H5.69987" stroke-linecap="round" stroke-linejoin="round"></path>
            <path d="M10.2578 6.04199V14.616" stroke-linecap="round" stroke-linejoin="round"></path>
        </symbol>
    </defs>
</svg>