<svg xmlns="http://www.w3.org/2000/svg" xmlns:xlink="http://www.w3.org/1999/xlink">
    <defs>
        <filter id="filter-goo" width="0" height="0">
            <feGaussianBlur in="SourceGraphic" stdDeviation="10" result="blur"/>
            <feColorMatrix in="blur" mode="matrix" values="1 0 0 0 0  0 1 0 0 0  0 0 1 0 0  0 0 0 18 -7" result="goo"/>
            <feBlend in="SourceGraphic" in2="goo"/>
        </filter>
        
        <symbol id="svg-icon-down" viewBox="0 0 12 8">
            <path d="M1.4 0.299951L-2.62268e-07 1.69995L6 7.69995L12 1.69995L10.6 0.29995L6 4.89995L1.4 0.299951Z"/>
        </symbol>
        <symbol id="svg-icon-up" viewBox="0 0 12 8">
            <path d="M1.4 7.70005L-2.62268e-07 6.30005L6 0.300049L12 6.30005L10.6 7.70005L6 3.10005L1.4 7.70005Z" />
        </symbol>
        <symbol id="svg-icon-left" viewBox="0 0 8 13">
            <path d="M7.70078 1.46958L6.30078 0.0695801L0.300781 6.06958L6.30078 12.0696L7.70078 10.6696L3.10078 6.06958L7.70078 1.46958Z"/>
        </symbol>
        <symbol id="svg-icon-right" viewBox="0 0 8 13">
            <path d="M0.299218 1.46958L1.69922 0.0695801L7.69922 6.06958L1.69922 12.0696L0.299218 10.6696L4.89922 6.06958L0.299218 1.46958Z" />
        </symbol>
        <symbol id="svg-icon-mail" viewBox="0 0 23 18" fill="none">
            <path d="M2.76842 1H20.2316C20.7006 1 21.1504 1.1873 21.482 1.5207C21.8137 1.8541 22 2.30628 22 2.77778V15.2222C22 15.6937 21.8137 16.1459 21.482 16.4793C21.1504 16.8127 20.7006 17 20.2316 17H2.76842C2.29941 17 1.8496 16.8127 1.51796 16.4793C1.18632 16.1459 1 15.6937 1 15.2222V2.77778C1 2.30628 1.18632 1.8541 1.51796 1.5207C1.8496 1.1873 2.29941 1 2.76842 1V1Z"  stroke-width="1.2" stroke-linecap="round" stroke-linejoin="round"/>
            <path d="M21.8013 1.9668L13.7108 10.089C13.1201 10.6699 12.3266 10.9952 11.5003 10.9952C10.6739 10.9952 9.88044 10.6699 9.28974 10.089L1.19922 1.9668"  stroke-width="1.2" stroke-linecap="round" stroke-linejoin="round"/>
            <path d="M8.58216 9.37769L1.51953 16.4777L8.58216 9.37769Z"  stroke-width="1.2" stroke-linecap="round" stroke-linejoin="round"/>
            <path d="M21.4806 16.4778L14.418 9.38892"  stroke-width="1.2" stroke-linecap="round" stroke-linejoin="round"/>
        </symbol>
        <symbol id="svg-icon-phone" viewBox="0 0 22 22" fill="none">
            <path d="M20.5841 18.7667C20.1747 19.4904 19.5214 20.0457 18.7406 20.3339C17.9478 20.7338 17.0786 20.9598 16.1911 20.9966C15.9655 20.9935 15.7403 20.9759 15.5169 20.944L14.927 20.8493C14.7098 20.8007 14.4953 20.7411 14.2843 20.6705L13.7049 20.4707L13.115 20.2393L12.525 20.0184C10.1535 19.0889 8.01413 17.6529 6.25685 15.8111C4.41262 14.0603 2.97435 11.9279 2.04294 9.56335L1.82171 8.97434L1.52674 8.31169C1.52674 8.19599 1.42139 8.00667 1.33711 7.7332C1.26646 7.52253 1.20668 7.30838 1.15802 7.09159C1.15802 6.93031 1.12642 6.73047 1.06321 6.49205C1.02725 6.27284 1.00613 6.05146 1 5.82941C1.03685 4.94339 1.26315 4.0755 1.66369 3.28402C1.95234 2.50438 2.50852 1.85218 3.23337 1.44334C3.85534 1.17193 4.52473 1.0254 5.20337 1.0121C5.3077 0.99141 5.41509 0.99141 5.51942 1.0121C5.58263 1.0121 5.68797 1.1278 5.83546 1.3592C5.98295 1.56956 6.1515 1.83251 6.33059 2.14806C6.50968 2.4636 6.67824 2.77915 6.8468 3.07366L7.3314 3.9677L7.62637 4.52516L7.8476 4.93537C7.95958 5.08794 8.05826 5.24981 8.14257 5.4192C8.20154 5.54816 8.23379 5.68769 8.23739 5.82941C8.20044 6.10772 8.06159 6.36252 7.8476 6.54464C7.58138 6.82789 7.28858 7.085 6.97321 7.31247C6.65968 7.54244 6.36387 7.79559 6.08829 8.06978C5.89725 8.23803 5.77374 8.46971 5.74065 8.7219C5.71935 8.82955 5.71935 8.94032 5.74065 9.04796C5.77523 9.1492 5.81749 9.24765 5.86706 9.34247C5.91906 9.45859 5.97889 9.57104 6.04616 9.67905L6.25685 9.95252C6.92111 11.1714 7.75457 12.2903 8.73252 13.2763C9.72 14.2527 10.8407 15.0848 12.0615 15.748L12.3354 15.9163C12.4436 15.9835 12.5562 16.0432 12.6725 16.0951L12.9675 16.2213C13.0703 16.2674 13.1814 16.2925 13.2941 16.295C13.5048 16.295 13.7892 16.0741 14.1579 15.6534C14.5266 15.2326 14.8954 14.7909 15.2746 14.3701C15.6539 13.9494 15.9488 13.7391 16.1911 13.7391C16.3331 13.7426 16.4728 13.7748 16.602 13.8337C16.7738 13.9139 16.9363 14.0127 17.0866 14.1282L17.4553 14.3807L18.5088 14.9486C19.1935 15.3063 19.773 15.6323 20.2365 15.9163C20.7 16.2003 20.9529 16.3791 20.9845 16.4843C21.0052 16.5885 21.0052 16.6957 20.9845 16.7998C20.9711 17.4774 20.8244 18.1457 20.5525 18.7667H20.5841Z" stroke-width="1.2" stroke-linecap="round" stroke-linejoin="round"/>
            <path d="M11.0078 1.0121C12.3188 1.01485 13.6164 1.27558 14.8265 1.77936C16.0365 2.28314 17.1352 3.0201 18.0598 3.9481C18.9844 4.8761 19.7167 5.97696 20.2149 7.18771C20.713 8.39847 20.9673 9.6954 20.9632 11.0043" stroke-width="1.2" stroke-linecap="round" stroke-linejoin="round"/>
            <path d="M11.0078 8.13288C11.3822 8.13563 11.7524 8.21216 12.0972 8.35809C12.4419 8.50401 12.7544 8.71646 13.0167 8.98324C13.279 9.25002 13.486 9.56589 13.6257 9.91272C13.7655 10.2595 13.8353 10.6305 13.8311 11.0043" stroke-width="1.2" stroke-linecap="round" stroke-linejoin="round"/>
            <path d="M11.0078 4.57775C11.8498 4.58051 12.6831 4.749 13.4598 5.07359C14.2365 5.39818 14.9416 5.87249 15.5345 6.4694C16.1275 7.0663 16.5967 7.77408 16.9154 8.55223C17.2341 9.33039 17.396 10.1636 17.3919 11.0043" stroke-width="1.2" stroke-linecap="round" stroke-linejoin="round"/>
        </symbol>
        <symbol id="svg-icon-review" viewBox="0 0 22 22" fill="none">
            <path d="M10.9978 1C12.5654 0.999305 14.1112 1.36732 15.5104 2.07434C16.9096 2.78135 18.1229 3.80755 19.0525 5.07008C19.9821 6.33261 20.6018 7.79608 20.8617 9.34234C21.1215 10.8886 21.0142 12.4743 20.5484 13.9714C20.0826 15.4686 19.2714 16.8352 18.1802 17.9609C17.089 19.0866 15.7484 19.9399 14.2667 20.4519C12.7851 20.9639 11.2038 21.1202 9.65057 20.9082C8.09735 20.6962 6.61574 20.1219 5.32536 19.2316L1 21L2.76803 16.6737C1.7341 15.1727 1.12998 13.4177 1.02097 11.5982C0.911952 9.77876 1.30219 7.96409 2.1495 6.35038C2.99681 4.73666 4.26896 3.38527 5.82846 2.44228C7.38795 1.49929 9.17546 1.00056 10.9978 1V1Z" stroke-width="1.2" stroke-linecap="round" stroke-linejoin="round"/>
            <path d="M5.89453 7.28421H16.1028" stroke-width="1.2" stroke-linecap="round" stroke-linejoin="round"/>
            <path d="M5.89453 11H16.1028" stroke-width="1.2" stroke-linecap="round" stroke-linejoin="round"/>
            <path d="M5.89453 14.7158H16.1028" stroke-width="1.2" stroke-linecap="round" stroke-linejoin="round"/>
        </symbol>
        <symbol id="svg-icon-search" viewBox="0 0 22 22" fill="none">
            <path d="M8.48422 1.00001C9.96445 1.00001 11.4114 1.43895 12.6422 2.26132C13.873 3.0837 14.8323 4.25257 15.3987 5.62013C15.9652 6.98769 16.1134 8.49252 15.8246 9.94431C15.5358 11.3961 14.823 12.7297 13.7764 13.7764C12.7297 14.823 11.3961 15.5358 9.94431 15.8246C8.49252 16.1134 6.98769 15.9652 5.62013 15.3987C4.25257 14.8323 3.0837 13.873 2.26132 12.6422C1.43895 11.4114 1.00001 9.96445 1.00001 8.48422C0.998622 7.50099 1.19126 6.52715 1.56689 5.61849C1.94251 4.70984 2.49374 3.88424 3.18899 3.18899C3.88424 2.49374 4.70984 1.94251 5.61849 1.56689C6.52715 1.19126 7.50099 0.998622 8.48422 1.00001V1.00001Z" stroke-width="1.2" stroke-linecap="round" stroke-linejoin="round"/>
            <path d="M20.9992 21L13.7676 13.7684" stroke-width="1.2" stroke-linecap="round" stroke-linejoin="round"/>
        </symbol>
        <symbol id="svg-icon-shop" viewBox="0 0 22 22" fill="none">
            <path d="M5.00031 6.48421C5.00307 7.01379 5.21468 7.52089 5.58915 7.89536C5.96363 8.26984 6.47073 8.48144 7.00031 8.48421C7.52989 8.48144 8.03699 8.26984 8.41147 7.89536C8.78594 7.52089 8.99755 7.01379 9.00031 6.48421C9.00308 7.01379 9.21468 7.52089 9.58915 7.89536C9.96363 8.26984 10.4707 8.48144 11.0003 8.48421V8.48421C11.5299 8.48144 12.037 8.26984 12.4115 7.89536C12.7859 7.52089 12.9975 7.01379 13.0003 6.48421C13.0031 7.01379 13.2147 7.52089 13.5892 7.89536C13.9636 8.26984 14.4707 8.48144 15.0003 8.48421V8.48421C15.5299 8.48144 16.037 8.26984 16.4115 7.89536C16.7859 7.52089 16.9975 7.01379 17.0003 6.48421C17.0031 7.01379 17.2147 7.52089 17.5892 7.89536C17.9636 8.26984 18.4707 8.48144 19.0003 8.48421V8.48421C19.2914 8.48243 19.5786 8.41779 19.8424 8.29473V21H2.1582V8.29473C2.4202 8.42294 2.70865 8.48784 3.00031 8.48421C3.52989 8.48144 4.03699 8.26984 4.41147 7.89536C4.78594 7.52089 4.99754 7.01379 5.00031 6.48421V6.48421Z" stroke-width="1.2" stroke-linecap="round" stroke-linejoin="round"/>
            <path d="M1 1H5V6.48421C4.99724 7.01379 4.78563 7.52089 4.41116 7.89537C4.03668 8.26984 3.52958 8.48144 3 8.48421V8.48421C2.47042 8.48144 1.96332 8.26984 1.58884 7.89537C1.21437 7.52089 1.00277 7.01379 1 6.48421V1Z" stroke-width="1.2" stroke-linecap="round" stroke-linejoin="round"/>
            <path d="M9 1H5V6.48421C5.00277 7.01379 5.21437 7.52089 5.58884 7.89537C5.96332 8.26984 6.47042 8.48144 7 8.48421C7.52958 8.48144 8.03668 8.26984 8.41116 7.89537C8.78563 7.52089 8.99724 7.01379 9 6.48421V1Z" stroke-width="1.2" stroke-linecap="round" stroke-linejoin="round"/>
            <path d="M9 1H13V6.48421C12.9972 7.01379 12.7856 7.52089 12.4112 7.89537C12.0367 8.26984 11.5296 8.48144 11 8.48421C10.4704 8.48144 9.96332 8.26984 9.58884 7.89537C9.21437 7.52089 9.00277 7.01379 9 6.48421V1Z" stroke-width="1.2" stroke-linecap="round" stroke-linejoin="round"/>
            <path d="M17 1H13V6.48421C13.0028 7.01379 13.2144 7.52089 13.5888 7.89537C13.9633 8.26984 14.4704 8.48144 15 8.48421V8.48421C15.5296 8.48144 16.0367 8.26984 16.4112 7.89537C16.7856 7.52089 16.9972 7.01379 17 6.48421V1V1Z" stroke-width="1.2" stroke-linecap="round" stroke-linejoin="round"/>
            <path d="M17 1H21V6.48421C20.9972 7.01379 20.7856 7.52089 20.4112 7.89537C20.0367 8.26984 19.5296 8.48144 19 8.48421V8.48421C18.4704 8.48144 17.9633 8.26984 17.5888 7.89537C17.2144 7.52089 17.0028 7.01379 17 6.48421V1V1Z" stroke-width="1.2" stroke-linecap="round" stroke-linejoin="round"/>
            <path d="M5.40039 11.8737H9.47408V16.9579H5.40039V11.8737Z" stroke-width="1.2" stroke-linecap="round" stroke-linejoin="round"/>
            <path d="M12.5254 11.8737H16.5991V21H12.5254V11.8737Z" stroke-width="1.2" stroke-linecap="round" stroke-linejoin="round"/>
        </symbol>
        <symbol id="svg-icon-video" viewBox="0 0 23 23" fill="none">
            <path d="M11.5 1.5C17 1.5 21.5 6 21.5 11.5C21.5 17 17 21.5 11.5 21.5C6 21.5 1.5 17 1.5 11.5C1.5 6 6 1.5 11.5 1.5Z" stroke-width="1.2" stroke-miterlimit="22.9256" stroke-linecap="round" stroke-linejoin="round"/>
            <path d="M9.19922 6.5L16.2992 11.5L9.19922 16.5V6.5Z" stroke-width="1.2" stroke-miterlimit="22.9256" stroke-linecap="round" stroke-linejoin="round"/>
        </symbol>
        <symbol id="svg-icon-lupa" viewBox="0 0 27 27" fill="none">
            <path d="M10.2578 1C12.0888 1 13.8787 1.54752 15.4012 2.57333C16.9236 3.59914 18.1102 5.05717 18.8109 6.76303C19.5116 8.46889 19.6949 10.346 19.3377 12.1569C18.9805 13.9678 18.0988 15.6313 16.8041 16.9369C15.5093 18.2425 13.8598 19.1316 12.0639 19.4918C10.2681 19.8521 8.40664 19.6672 6.715 18.9606C5.02335 18.254 3.57748 17.0574 2.56022 15.5222C1.54296 13.987 0.999994 12.182 0.999994 10.3356C0.999994 7.85965 1.97537 5.4851 3.71155 3.73434C5.44772 1.98357 7.80248 1 10.2578 1V1Z" stroke-linecap="round" stroke-linejoin="round"/>
            <path d="M26 26L17.0547 16.9796" stroke-linecap="round" stroke-linejoin="round"/>
            <path d="M14.8145 10.3356H5.69987" stroke-linecap="round" stroke-linejoin="round"/>
            <path d="M10.2578 6.04199V14.616" stroke-linecap="round" stroke-linejoin="round"/>
        </symbol>

        <!--Лупа + с увеличенным плюсом-->
        <symbol id="svg-icon-lupa2" viewBox="0 0 18 18" fill="none" xmlns="http://www.w3.org/2000/svg">
            <path d="M6.92509 1C8.09695 1 9.24249 1.35042 10.2168 2.00693C11.1912 2.66345 11.9506 3.59659 12.3991 4.68834C12.8475 5.78009 12.9649 6.98142 12.7362 8.14041C12.5076 9.29941 11.9433 10.364 11.1147 11.1996C10.2861 12.0352 9.23034 12.6042 8.08101 12.8348C6.93167 13.0653 5.74035 12.947 4.6577 12.4948C3.57504 12.0426 2.64968 11.2768 1.99864 10.2942C1.34759 9.31166 1.00009 8.15649 1.00009 6.97479C1.00009 5.39018 1.62433 3.87047 2.73549 2.74998C3.84664 1.62949 5.35369 1 6.92509 1V1Z" stroke="white" stroke-linecap="round" stroke-linejoin="round"/>
            <path d="M17 17.0002L11.275 11.2271" stroke="white" stroke-linecap="round" stroke-linejoin="round"/>
            <path d="M10.7524 6.81836H3.25047" stroke="white" stroke-linecap="round" stroke-linejoin="round"/>
            <path d="M7.00146 3.18164V10.4544" stroke="white" stroke-linecap="round" stroke-linejoin="round"/>
        </symbol>
        <symbol id="svg-icon-location" viewBox="0 0 15 19" fill="none">
            <path d="M7.5 1C9.22391 1 10.8772 1.6947 12.0962 2.93127C13.3152 4.16784 14 5.845 14 7.59377C13.8889 9.2841 13.358 10.9184 12.4566 12.3445C11.3444 14.2467 10.0152 16.0094 8.49661 17.5963C8.37121 17.7242 8.2221 17.8258 8.05788 17.895C7.89366 17.9643 7.71755 18 7.53969 18C7.36183 18 7.18572 17.9643 7.0215 17.895C6.85727 17.8258 6.70817 17.7242 6.58277 17.5963V17.5963C5.04914 16.0137 3.70784 14.2506 2.58752 12.3445C1.67055 10.9227 1.12432 9.28812 1 7.59377C1 5.845 1.68482 4.16784 2.90381 2.93127C4.12279 1.6947 5.77609 1 7.5 1V1Z" stroke-linecap="round" stroke-linejoin="round"/>
            <path d="M7.50021 4.3103C8.14038 4.3103 8.76618 4.50288 9.29846 4.86367C9.83075 5.22446 10.2456 5.73727 10.4906 6.33724C10.7356 6.93722 10.7997 7.59741 10.6748 8.23434C10.5499 8.87127 10.2416 9.45633 9.78895 9.91553C9.33628 10.3747 8.75955 10.6875 8.13167 10.8141C7.5038 10.9408 6.85299 10.8758 6.26155 10.6273C5.67011 10.3788 5.1646 9.95793 4.80893 9.41797C4.45327 8.878 4.26344 8.24318 4.26344 7.59377C4.26228 7.16225 4.3452 6.73475 4.50745 6.33585C4.6697 5.93694 4.90808 5.57451 5.20887 5.26938C5.50967 4.96424 5.86695 4.72243 6.26018 4.55784C6.65341 4.39325 7.07483 4.30912 7.50021 4.3103V4.3103Z" stroke-linecap="round" stroke-linejoin="round"/>
        </symbol>
        <symbol id="svg-icon-sms" viewBox="0 0 29 27" fill="none" >
            <path d="M20.3541 12.6596C20.5435 13.0197 20.8325 13.3162 21.1858 13.5128C21.5391 13.7094 21.9414 13.7976 22.3434 13.7665C24.2616 13.7665 25.981 10.8052 22.0308 9.94269C19.189 9.32455 20.212 6.33448 22.3434 6.33448C22.7505 6.30504 23.1572 6.39692 23.5133 6.59874C23.8693 6.80057 24.1591 7.10351 24.3469 7.47013"  stroke-width="1.2" stroke-linecap="round" stroke-linejoin="round"/>
            <path d="M4.63881 12.6598C4.8282 13.0199 5.11721 13.3164 5.47051 13.513C5.8238 13.7096 6.22606 13.7977 6.6281 13.7667C8.54634 13.7667 10.2657 10.8054 6.3155 9.94286C3.54471 9.32472 4.55356 6.33465 6.6281 6.33465C7.03548 6.30333 7.44293 6.39439 7.79934 6.59642C8.15576 6.79845 8.44529 7.10246 8.6316 7.4703"  stroke-width="1.2" stroke-linecap="round" stroke-linejoin="round"/>
            <path d="M3.13265 1.00128H26.0094C26.2801 1.01056 26.5462 1.07372 26.7927 1.18713C27.0392 1.30055 27.2611 1.46201 27.4459 1.66227C27.6306 1.86254 27.7746 2.09768 27.8694 2.35426C27.9643 2.61084 28.0082 2.88381 27.9987 3.15759V17.0873C27.995 17.639 27.7767 18.1669 27.3912 18.557C27.0056 18.9471 26.4837 19.168 25.9384 19.1717H7.72222L1.00127 26V3.15759C0.991346 2.87171 1.03969 2.58683 1.14329 2.32067C1.24689 2.05452 1.40353 1.81278 1.60346 1.61051C1.80339 1.40825 2.04233 1.24977 2.30541 1.14496C2.56849 1.04015 2.85008 0.991244 3.13265 1.00128V1.00128Z" stroke-width="1.2" stroke-linejoin="round"/>
            <path d="M11.9993 6.33447V13.7665" stroke-width="1.2" stroke-linecap="round" stroke-linejoin="round"/>
            <path d="M16.944 6.33447V13.7665" stroke-width="1.2" stroke-linecap="round" stroke-linejoin="round"/>
            <path d="M16.944 6.33447L14.4716 10.6039" stroke-width="1.2" stroke-linecap="round" stroke-linejoin="round"/>
            <path d="M11.9993 6.33447L14.4717 10.6039" stroke-width="1.2" stroke-linecap="round" stroke-linejoin="round"/>
        </symbol>
        <symbol id="svg-icon-secure" viewBox="0 0 26 29" fill="none">
            <path d="M13.0145 1L25 4.54331V15.0173C25 22.4299 19.8655 25.789 13 28C6.09091 25.7181 1 22.3591 1 14.9465V4.54331L13.0145 1ZM13.0145 6.13071C14.3379 6.20392 15.5802 6.77576 16.4787 7.72532C17.3772 8.67488 17.8614 9.92771 17.8291 11.2189C17.8291 13.8976 15.6764 17.3984 13.0145 17.3984C10.3527 17.3984 8.2 13.8976 8.2 11.2189C8.16766 9.92771 8.65193 8.67488 9.55043 7.72532C10.4489 6.77576 11.6912 6.20392 13.0145 6.13071V6.13071ZM9.20364 19.3827C6.95237 19.5337 4.82438 20.4403 3.18182 21.948C5.30545 24.7827 8.85455 26.5827 13.0436 27.9291C17.2327 26.5827 20.7818 24.811 22.9055 21.948C21.254 20.4363 19.1154 19.5296 16.8545 19.3827C15.7967 20.2762 14.4436 20.7681 13.0436 20.7681C11.6436 20.7681 10.2906 20.2762 9.23273 19.3827H9.20364Z" stroke-width="1.2" stroke-linejoin="round"/>
        </symbol>
        <symbol id="svg-icon-paint" viewBox="0 0 28 28" fill="none">
            <path d="M9.1145 27H26.9998" stroke-linecap="round" stroke-linejoin="round"/>
            <path d="M24.4136 12.4971H26.9999" stroke-linecap="round" stroke-linejoin="round"/>
            <path d="M19.5833 17.3269H27.0001" stroke-linecap="round" stroke-linejoin="round"/>
            <path d="M14.7385 22.1702H26.9996" stroke-linecap="round" stroke-linejoin="round"/>
            <path d="M16.2444 8.06396L19.9391 11.7581L8.52651 23.1689L4.84546 19.4748L16.2444 8.06396Z" stroke-linejoin="round"/>
            <path d="M1 27L8.52632 23.169L4.84526 19.4749L1 27Z" stroke-linejoin="round"/>
            <path d="M26.2339 1.77033C26.7235 2.26035 26.9986 2.92471 26.9986 3.61741C26.9986 4.31011 26.7235 4.97446 26.2339 5.46448L19.9391 11.7582L16.2444 8.06407L22.5391 1.77033C22.7809 1.52627 23.0686 1.33252 23.3857 1.2003C23.7028 1.06808 24.0429 1 24.3865 1C24.73 1 25.0702 1.06808 25.3873 1.2003C25.7044 1.33252 25.9921 1.52627 26.2339 1.77033V1.77033Z" stroke-linejoin="round"/>
            <path d="M12.3438 8.06408L19.4048 1.00415" stroke-linecap="round" stroke-linejoin="round"/>
        </symbol>
        <symbol id="svg-icon-download" viewBox="0 0 14 17">
            <path d="M14 6.02837L6.9759 12.973L0 6.02837H3.9759V0H10V6.02837H14ZM0 14.9865H14V17H0V14.9865Z"/>
        </symbol>
        <symbol id="svg-icon-filter" viewBox="0 0 14 13">
            <path d="M13.9595 0.24513C13.8895 0.0954646 13.7399 0 13.5757 0H0.424335C0.260098 0 0.110628 0.0954646 0.040532 0.24513C-0.0295074 0.394796 -0.00755646 0.571705 0.096937 0.699371L5.15251 6.87659V12.5725C5.15251 12.7204 5.22837 12.8578 5.35307 12.9358C5.42141 12.9785 5.49897 13 5.57682 13C5.64114 13 5.7057 12.9852 5.76521 12.9555L8.60571 11.5373C8.75004 11.4652 8.84135 11.3171 8.84157 11.1548L8.84712 6.87676L13.903 0.699314C14.0075 0.571705 14.0295 0.394739 13.9595 0.24513ZM8.09569 6.45113C8.03318 6.5275 7.99889 6.62342 7.99878 6.72248L7.99335 10.8889L6.00118 11.8836V6.72305C6.00118 6.62382 5.96696 6.52767 5.90427 6.45113L1.3241 0.85485H12.6759L8.09569 6.45113Z"/>
        </symbol>
        <symbol id="svg-icon-share" viewBox="0 0 11 13" >
            <path d="M9.16667 3.80859C8.66451 3.80859 8.20894 3.59763 7.87751 3.25674L4.88287 5.35187C5.04329 5.6997 5.13333 6.08919 5.13333 6.5C5.13333 6.91081 5.04329 7.3003 4.88287 7.64813L7.87751 9.74326C8.20894 9.40237 8.66451 9.19141 9.16667 9.19141C10.1776 9.19141 11 10.0457 11 11.0957C11 12.1457 10.1776 13 9.16667 13C8.15576 13 7.33333 12.1457 7.33333 11.0957C7.33333 10.8412 7.38203 10.5984 7.46959 10.3763L4.47477 8.28111C4.00459 8.82404 3.32339 9.16602 2.56667 9.16602C1.15137 9.16602 0 7.97008 0 6.5C0 5.02992 1.15137 3.83398 2.56667 3.83398C3.32339 3.83398 4.00459 4.17596 4.47477 4.71889L7.46959 2.62366C7.38203 2.4016 7.33333 2.1588 7.33333 1.9043C7.33333 0.854256 8.15576 0 9.16667 0C10.1776 0 11 0.854256 11 1.9043C11 2.95434 10.1776 3.80859 9.16667 3.80859ZM9.16667 12.2383C9.77319 12.2383 10.2667 11.7257 10.2667 11.0957C10.2667 10.4657 9.77319 9.95312 9.16667 9.95312C8.56014 9.95312 8.06667 10.4657 8.06667 11.0957C8.06667 11.7257 8.56014 12.2383 9.16667 12.2383ZM2.56667 4.5957C1.55576 4.5957 0.733333 5.44996 0.733333 6.5C0.733333 7.55004 1.55576 8.4043 2.56667 8.4043C3.57758 8.4043 4.4 7.55004 4.4 6.5C4.4 5.44996 3.57758 4.5957 2.56667 4.5957ZM9.16667 0.761719C8.56014 0.761719 8.06667 1.27429 8.06667 1.9043C8.06667 2.5343 8.56014 3.04688 9.16667 3.04688C9.77319 3.04688 10.2667 2.5343 10.2667 1.9043C10.2667 1.27429 9.77319 0.761719 9.16667 0.761719Z"/>
        </symbol>
        <symbol id="svg-icon-file" viewBox="0 0 23 24" >
            <path d="M21.26 1.99941C18.9401 -0.66647 15.1778 -0.66647 12.8579 1.99941L1.30553 15.274C-0.435176 17.2741 -0.435176 20.5152 1.30553 22.5154C2.74028 24.1641 4.90432 24.4303 6.59603 23.3602C6.77275 23.35 6.94653 23.2732 7.08171 23.1196L18.634 9.84507C19.7939 8.51217 19.7939 6.35148 18.634 5.01858C17.4741 3.68568 15.5937 3.68568 14.4338 5.01858L4.98154 15.8799C4.6919 16.2127 4.6919 16.7538 4.98154 17.0865C5.2712 17.4193 5.74202 17.4193 6.03161 17.0865L15.4837 6.22518C16.0645 5.55787 17.0046 5.55787 17.5839 6.22518C18.1647 6.8925 18.1647 7.9728 17.5839 8.63847L6.55593 21.3105C5.39597 22.6434 3.51562 22.6434 2.35565 21.3105C1.19568 19.9776 1.19568 17.817 2.35565 16.4841L13.908 3.20601C15.6486 1.20579 18.4691 1.20579 20.21 3.20601C21.9506 5.20621 21.9506 8.4472 20.21 10.4475L9.70768 22.5154C9.41803 22.8483 9.41803 23.3893 9.70768 23.722C9.99732 24.0549 10.4681 24.0549 10.7577 23.722L21.26 11.6541C23.58 8.9883 23.58 4.66528 21.26 1.99941Z" fill="#FF6600"/>
        </symbol>
        <symbol id="svg-icon-file-fill" viewBox="0 0 23 24" >
            <path d="M21.26 1.99941C18.9401 -0.66647 15.1778 -0.66647 12.8579 1.99941L1.30553 15.274C-0.435176 17.2741 -0.435176 20.5152 1.30553 22.5154C2.74028 24.1641 4.90432 24.4303 6.59603 23.3602C6.77275 23.35 6.94653 23.2732 7.08171 23.1196L18.634 9.84507C19.7939 8.51217 19.7939 6.35148 18.634 5.01858C17.4741 3.68568 15.5937 3.68568 14.4338 5.01858L4.98154 15.8799C4.6919 16.2127 4.6919 16.7538 4.98154 17.0865C5.2712 17.4193 5.74202 17.4193 6.03161 17.0865L15.4837 6.22518C16.0645 5.55787 17.0046 5.55787 17.5839 6.22518C18.1647 6.8925 18.1647 7.9728 17.5839 8.63847L6.55593 21.3105C5.39597 22.6434 3.51562 22.6434 2.35565 21.3105C1.19568 19.9776 1.19568 17.817 2.35565 16.4841L13.908 3.20601C15.6486 1.20579 18.4691 1.20579 20.21 3.20601C21.9506 5.20621 21.9506 8.4472 20.21 10.4475L9.70768 22.5154C9.41803 22.8483 9.41803 23.3893 9.70768 23.722C9.99732 24.0549 10.4681 24.0549 10.7577 23.722L21.26 11.6541C23.58 8.9883 23.58 4.66528 21.26 1.99941Z" />
        </symbol>
        <symbol id="svg-icon-point" viewBox="0 0 17 21" fill="none">
            <path d="M8.5 1C10.4891 1 12.3968 1.77643 13.8033 3.15848C15.2098 4.54053 16 6.41499 16 8.36951C15.8719 10.2587 15.2592 12.0853 14.2191 13.6792C12.9358 15.8051 11.4022 17.7752 9.64993 19.5488C9.50524 19.6918 9.3332 19.8053 9.14371 19.8827C8.95422 19.9601 8.75102 20 8.54579 20C8.34057 20 8.13737 19.9601 7.94788 19.8827C7.75839 19.8053 7.58635 19.6918 7.44166 19.5488V19.5488C5.67208 17.7801 4.12443 15.8095 2.83175 13.6792C1.77371 12.0901 1.14344 10.2632 1 8.36951C1 6.41499 1.79018 4.54053 3.1967 3.15848C4.60322 1.77643 6.51088 1 8.5 1V1Z" stroke="#FF6600" stroke-linecap="round" stroke-linejoin="round"/>
            <path d="M8.50037 4.69972C9.23904 4.69972 9.96111 4.91495 10.5753 5.31819C11.1895 5.72142 11.6681 6.29456 11.9508 6.96512C12.2335 7.63568 12.3075 8.37355 12.1633 9.08541C12.0192 9.79727 11.6635 10.4512 11.1412 10.9644C10.6189 11.4776 9.95345 11.8271 9.22899 11.9687C8.50452 12.1103 7.75359 12.0376 7.07115 11.7599C6.38872 11.4821 5.80543 11.0118 5.39506 10.4083C4.98468 9.8048 4.76564 9.09529 4.76564 8.36948C4.7643 7.88719 4.85998 7.40939 5.04719 6.96356C5.23441 6.51773 5.50945 6.11266 5.85652 5.77163C6.20359 5.43059 6.61584 5.16033 7.06957 4.97638C7.52329 4.79242 8.00955 4.6984 8.50037 4.69972V4.69972Z" stroke="#FF6600" stroke-linecap="round" stroke-linejoin="round"/>
        </symbol>
        <symbol id="svg-icon-video-play" viewBox="0 0 117 117" fill="none">
            <path d="M58.5 3C69.4768 3 80.2072 6.25502 89.3341 12.3534C98.461 18.4519 105.575 27.1198 109.775 37.2611C113.976 47.4024 115.075 58.5615 112.934 69.3275C110.792 80.0934 105.506 89.9826 97.7444 97.7444C89.9826 105.506 80.0934 110.792 69.3275 112.934C58.5615 115.075 47.4024 113.976 37.2611 109.775C27.1198 105.575 18.4519 98.461 12.3534 89.3341C6.25502 80.2072 3 69.4768 3 58.5C3 43.7805 8.8473 29.6638 19.2556 19.2556C29.6638 8.8473 43.7805 3 58.5 3V3Z" stroke="white" stroke-width="4.44" stroke-linecap="round" stroke-linejoin="round"/>
            <path d="M45.8994 30.6953L85.2489 58.5008L45.8994 86.3618V30.6953Z" stroke="white" stroke-width="4.44" stroke-linecap="round" stroke-linejoin="round"/>
        </symbol>
        <symbol id="svg-icon-youtube" viewBox="0 0 90 63" fill="none">
            <path d="M88.4448 10.1344C87.343 5.32744 83.428 1.78103 78.715 1.25201C67.5546 0.0008316 56.2585 -0.0056992 45.0144 0.000831938C33.7685 -0.0056992 22.4705 0.0008316 11.31 1.25201C6.59984 1.78103 2.68769 5.32744 1.58586 10.1344C0.0176517 16.9799 0 24.4525 0 31.5005C0 38.5486 0 46.0202 1.56821 52.8648C2.66818 57.6708 6.58126 61.2172 11.2942 61.7472C22.4538 62.9993 33.7508 63.0058 44.9967 62.9993C56.2445 63.0058 67.5388 62.9993 78.6974 61.7472C83.4076 61.2182 87.3235 57.6717 88.4253 52.8648C89.9944 46.0193 90 38.5476 90 31.5005C90 24.4525 90.013 16.9799 88.4448 10.1344ZM33.3857 45.5294C33.3857 35.5312 33.3857 25.6374 33.3857 15.6383C42.9241 20.6364 52.3993 25.601 61.998 30.63C52.429 35.6142 42.9492 40.549 33.3857 45.5294Z" fill="#000000"/>
        </symbol>
        <symbol id="svg-icon-youtube-fill" viewBox="0 0 90 63">
            <path d="M88.4448 10.1344C87.343 5.32744 83.428 1.78103 78.715 1.25201C67.5546 0.0008316 56.2585 -0.0056992 45.0144 0.000831938C33.7685 -0.0056992 22.4705 0.0008316 11.31 1.25201C6.59984 1.78103 2.68769 5.32744 1.58586 10.1344C0.0176517 16.9799 0 24.4525 0 31.5005C0 38.5486 0 46.0202 1.56821 52.8648C2.66818 57.6708 6.58126 61.2172 11.2942 61.7472C22.4538 62.9993 33.7508 63.0058 44.9967 62.9993C56.2445 63.0058 67.5388 62.9993 78.6974 61.7472C83.4076 61.2182 87.3235 57.6717 88.4253 52.8648C89.9944 46.0193 90 38.5476 90 31.5005C90 24.4525 90.013 16.9799 88.4448 10.1344ZM33.3857 45.5294C33.3857 35.5312 33.3857 25.6374 33.3857 15.6383C42.9241 20.6364 52.3993 25.601 61.998 30.63C52.429 35.6142 42.9492 40.549 33.3857 45.5294Z"/>
        </symbol>
        <symbol id="svg-icon-video-next" viewBox="0 0 62 62" fill="none">
            <path d="M31 1C36.9334 1 42.7336 2.75947 47.6671 6.05591C52.6006 9.35235 56.4457 14.0377 58.7164 19.5195C60.987 25.0013 61.5811 31.0333 60.4235 36.8527C59.266 42.6721 56.4088 48.0176 52.2132 52.2132C48.0176 56.4088 42.6721 59.266 36.8527 60.4235C31.0333 61.5811 25.0013 60.987 19.5195 58.7164C14.0377 56.4457 9.35235 52.6006 6.05591 47.6671C2.75947 42.7336 1 36.9334 1 31C1 23.0435 4.1607 15.4129 9.78679 9.78679C15.4129 4.1607 23.0435 1 31 1V1Z" stroke-width="1.2" stroke-linecap="round" stroke-linejoin="round"/>
            <path d="M24.1914 15.9705L45.4614 31.0005L24.1914 46.0605V15.9705Z"  stroke-width="1.2" stroke-linecap="round" stroke-linejoin="round"/>
        </symbol>
        <symbol id="svg-icon-circle-vk" viewBox="0 0 26 27" fill="none">
            <path d="M13 0.0695801C5.82054 0.0695801 0 5.88986 0 13.0696C0 20.2493 5.82054 26.0696 13 26.0696C20.1795 26.0696 26 20.2493 26 13.0696C26 5.88986 20.1795 0.0695801 13 0.0695801ZM19.5943 14.4756C20.2002 15.0674 20.8412 15.6244 21.3852 16.2774C21.6261 16.5662 21.8533 16.8649 22.0262 17.2009C22.273 17.6799 22.0501 18.2052 21.6214 18.2337L18.9581 18.2331C18.2702 18.2901 17.7228 18.0126 17.2613 17.5424C16.893 17.1676 16.5512 16.7673 16.1963 16.3798C16.0514 16.2207 15.8987 16.071 15.7168 15.9531C15.3537 15.7169 15.0382 15.7893 14.8302 16.1686C14.6183 16.5545 14.5698 16.9822 14.5496 17.4118C14.5206 18.0398 14.3313 18.2039 13.7011 18.2334C12.3547 18.2964 11.0772 18.0922 9.88984 17.4134C8.84239 16.8146 8.03167 15.9696 7.32522 15.0129C5.94954 13.1478 4.89598 11.1008 3.94934 8.99496C3.73629 8.52071 3.89215 8.26696 4.41535 8.25712C5.28458 8.24036 6.15382 8.24249 7.02306 8.25632C7.37682 8.26191 7.61089 8.46432 7.7468 8.79813C8.21653 9.95384 8.79239 11.0534 9.51401 12.0732C9.70631 12.3448 9.90261 12.6155 10.1822 12.8073C10.4907 13.019 10.7258 12.9491 10.8713 12.6046C10.9644 12.3857 11.0046 12.1517 11.0248 11.9171C11.094 11.1135 11.1022 10.3103 10.9825 9.50991C10.908 9.00906 10.6264 8.68562 10.1271 8.59093C9.87282 8.54279 9.91006 8.44863 10.0337 8.3034C10.2484 8.05231 10.4495 7.89698 10.8514 7.89698L13.8605 7.89644C14.3347 7.98954 14.4411 8.20233 14.5055 8.68004L14.5081 12.024C14.5025 12.2089 14.601 12.7568 14.9329 12.8778C15.1989 12.9656 15.3744 12.7523 15.5335 12.5839C16.2551 11.8181 16.7693 10.9143 17.2297 9.97884C17.4329 9.5663 17.6082 9.13939 17.7784 8.71169C17.905 8.39543 18.1019 8.23983 18.4588 8.24515L21.3564 8.24861C21.4418 8.24861 21.5285 8.24941 21.6131 8.26404C22.1015 8.34755 22.2353 8.55768 22.0842 9.03406C21.8464 9.78254 21.3844 10.406 20.9327 11.0311C20.4486 11.7003 19.9324 12.3461 19.4531 13.0182C19.0126 13.6327 19.0474 13.942 19.5943 14.4756Z" fill="#999999"/>
        </symbol>
        <symbol id="svg-icon-circle-fb" viewBox="0 0 26 27" fill="none">
            <path d="M13 0.0695801C5.83183 0.0695801 0 5.90141 0 13.0696C0 20.2372 5.83183 26.0696 13 26.0696C20.1676 26.0696 26 20.2372 26 13.0696C26 5.90141 20.1687 0.0695801 13 0.0695801ZM16.233 13.5272H14.118C14.118 16.9063 14.118 21.0656 14.118 21.0656H10.984C10.984 21.0656 10.984 16.9466 10.984 13.5272H9.4942V10.8629H10.984V9.13963C10.984 7.9054 11.5705 5.97681 14.1468 5.97681L16.4691 5.98572V8.572C16.4691 8.572 15.0579 8.572 14.7835 8.572C14.5091 8.572 14.119 8.70919 14.119 9.29777V10.8635H16.5068L16.233 13.5272Z" fill="#999999"/>
        </symbol>
        <symbol id="svg-icon-circle-youtube" viewBox="0 0 26 27" fill="none">
            <path d="M10.5625 15.5071C12.4636 14.5594 14.3481 13.6204 16.25 12.6722C14.3424 11.7152 12.4584 10.7708 10.5625 9.81958C10.5625 11.722 10.5625 13.6049 10.5625 15.5071Z" fill="#999999"/>
            <path d="M13 0.0695801C5.82054 0.0695801 0 5.88986 0 13.0696C0 20.2493 5.82054 26.0696 13 26.0696C20.1795 26.0696 26 20.2493 26 13.0696C26 5.88986 20.1795 0.0695801 13 0.0695801ZM21.8576 17.4089C21.6325 18.385 20.834 19.105 19.873 19.2122C17.597 19.4668 15.2936 19.4681 12.9995 19.4668C10.7053 19.4681 8.40139 19.4668 6.12483 19.2122C5.16383 19.105 4.36587 18.385 4.14138 17.4089C3.8214 16.0183 3.8214 14.5008 3.8214 13.0696C3.8214 11.6383 3.82513 10.1203 4.1451 8.73031C4.3696 7.75414 5.16755 7.03386 6.12855 6.9264C8.40512 6.67212 10.7091 6.67079 13.0032 6.67212C15.2968 6.67079 17.6007 6.67212 19.8765 6.9264C20.838 7.03386 21.6365 7.75388 21.861 8.73031C22.181 10.1206 22.1783 11.6383 22.1783 13.0696C22.1783 14.5008 22.1775 16.0186 21.8576 17.4089Z" fill="#999999"/>
        </symbol>
        <symbol id="svg-icon-circle-inst" viewBox="0 0 26 27" fill="none">
            <path d="M12.999 15.5071C14.3423 15.5071 15.4375 14.4139 15.4375 13.0696C15.4375 12.5389 15.2639 12.049 14.9765 11.6488C14.5336 11.0347 13.8136 10.6321 13.0005 10.6321C12.1868 10.6321 11.4674 11.0342 11.0235 11.6483C10.7351 12.0485 10.563 12.5384 10.5625 13.0691C10.561 14.4134 11.6552 15.5071 12.999 15.5071Z" fill="#999999"/>
            <path d="M18.6875 9.81146V7.69679V7.38208L18.3703 7.3831L16.25 7.38969L16.2581 9.81958L18.6875 9.81146Z" fill="#999999"/>
            <path d="M13 0.0695801C5.83183 0.0695801 0 5.90141 0 13.0696C0 20.2372 5.83183 26.0696 13 26.0696C20.1676 26.0696 26 20.2372 26 13.0696C26 5.90141 20.1687 0.0695801 13 0.0695801ZM20.3933 11.5526V17.6059C20.3933 19.1826 19.1115 20.464 17.5358 20.464H8.46419C6.88802 20.464 5.60666 19.1826 5.60666 17.6059V11.5526V8.5343C5.60666 6.95813 6.88802 5.67677 8.46419 5.67677H17.5353C19.1115 5.67677 20.3933 6.95813 20.3933 8.5343V11.5526Z" fill="#999999"/>
            <path d="M16.8648 12.9297C16.8648 15.1121 15.1317 16.889 13.0008 16.889C10.8698 16.889 9.1372 15.1121 9.1372 12.9297C9.1372 12.4048 9.23927 11.9029 9.42139 11.4446H7.3125V17.3709C7.3125 18.1368 7.9194 18.7571 8.66639 18.7571H17.3336C18.0796 18.7571 18.6875 18.1368 18.6875 17.3709V11.4446H16.5776C16.7612 11.9029 16.8648 12.4048 16.8648 12.9297Z" fill="#999999"/>
        </symbol>
        <symbol id="svg-icon-circle-od" viewBox="0 0 26 27" fill="none">
            <path d="M13 0.0695801C5.83183 0.0695801 0 5.90141 0 13.0696C0 20.2372 5.83183 26.0696 13 26.0696C20.1676 26.0696 26 20.2372 26 13.0696C26 5.90141 20.1687 0.0695801 13 0.0695801Z" fill="#999999"/>
            <path d="M12.1802 16.809C10.8892 16.6742 9.72516 16.356 8.72854 15.5759C8.60488 15.4789 8.47721 15.3853 8.36436 15.2769C7.92815 14.8576 7.88419 14.3774 8.22936 13.8826C8.52465 13.4591 9.02034 13.3458 9.53557 13.589C9.63533 13.6361 9.73039 13.6949 9.82144 13.7581C11.6788 15.0353 14.2303 15.0706 16.0947 13.8155C16.2794 13.6738 16.4768 13.5582 16.7057 13.4992C17.1506 13.3849 17.5655 13.5485 17.8043 13.9381C18.0771 14.383 18.0736 14.8173 17.7375 15.1628C17.2219 15.6924 16.6019 16.0755 15.9129 16.3429C15.2615 16.5957 14.548 16.723 13.8417 16.8074C13.9483 16.9235 13.9985 16.9806 14.0652 17.0476C15.0241 18.0119 15.9872 18.9721 16.943 19.9393C17.2687 20.2689 17.3367 20.6775 17.1574 21.0609C16.9614 21.4798 16.5225 21.7554 16.0922 21.7259C15.8196 21.7071 15.607 21.5713 15.4181 21.3808C14.6945 20.6521 13.9572 19.9367 13.2482 19.1942C13.0419 18.9782 12.9426 19.0191 12.7605 19.2065C12.0325 19.9566 11.2926 20.6952 10.5484 21.4295C10.2142 21.7593 9.81655 21.8186 9.429 21.6303C9.01703 21.4304 8.75488 21.0095 8.77511 20.5866C8.78907 20.3005 8.92965 20.082 9.12586 19.8859C10.0749 18.9376 11.0212 17.9867 11.968 17.0368C12.0306 16.9736 12.089 16.9066 12.1802 16.809Z" fill="#EEEEEE"/>
            <path d="M12.9675 13.5058C10.6643 13.4979 8.7757 11.587 8.78913 9.27834C8.80239 6.94417 10.6922 5.06314 13.018 5.0696C15.3486 5.07588 17.2192 6.98397 17.2075 9.34241C17.1957 11.6464 15.294 13.5138 12.9675 13.5058ZM15.0606 9.28393C15.0566 8.13761 14.1444 7.22503 13.0013 7.22398C11.8486 7.22276 10.9282 8.15193 10.9371 9.30872C10.9456 10.4507 11.8657 11.3568 13.0119 11.3526C14.1547 11.3486 15.0645 10.4301 15.0606 9.28393Z" fill="#EEEEEE"/>
        </symbol>
        <symbol id="svg-icon-circle-tw" viewBox="0 0 26 27">
            <path d="M13 0.0695801C5.83183 0.0695801 0 5.90141 0 13.0696C0 20.2372 5.83183 26.0696 13 26.0696C20.1676 26.0696 26 20.2372 26 13.0696C26 5.90141 20.1687 0.0695801 13 0.0695801Z" fill="#999999"/>
            <path d="M10.8374 21.0696C10.0449 21.0696 9.22912 21.0054 8.40847 20.8768C6.96308 20.65 5.49993 19.8939 5.0859 19.6675L4 19.0738L5.17567 18.6872C6.46082 18.2646 7.24259 18.0025 8.21034 17.5919C7.24133 17.1227 6.49452 16.2785 6.13502 15.1873L5.86152 14.357L6.0858 14.3913C5.87312 14.1769 5.70519 13.9593 5.57501 13.7615C5.11205 13.0583 4.86693 12.199 4.91908 11.4627L4.97054 10.738L5.40442 10.9061C5.22139 10.5604 5.08911 10.1913 5.01137 9.80436C4.8219 8.8608 4.98047 7.85838 5.45798 6.9818L5.83593 6.28797L6.34141 6.8951C7.94005 8.8155 9.96489 9.95467 12.3681 10.2882C12.2699 9.61154 12.3435 8.95854 12.5869 8.37322C12.8704 7.6917 13.3746 7.11379 14.0446 6.70186C14.7888 6.24448 15.6912 6.02286 16.5857 6.07781C17.5347 6.13612 18.3963 6.4917 19.0806 7.1068C19.4148 7.01997 19.6611 6.92726 19.9939 6.80198C20.1941 6.72661 20.4212 6.64104 20.7053 6.54316L21.7523 6.1824L21.0695 8.13244C21.1146 8.12866 21.161 8.12545 21.2095 8.12335L22.3276 8.07273L21.6667 8.97588C21.6289 9.02762 21.6192 9.0423 21.6058 9.06257C21.5525 9.14283 21.4862 9.24267 20.5792 10.4539C20.3521 10.7571 20.2387 11.1522 20.2598 11.5663C20.3402 13.1402 20.1471 14.5642 19.6855 15.7986C19.249 16.9665 18.5725 17.9685 17.6751 18.7768C16.5646 19.7769 15.1486 20.4616 13.4662 20.8117C12.6409 20.9834 11.7547 21.0696 10.8374 21.0696Z" fill="#EEEEEE"/>
        </symbol>
        <symbol id="svg-icon-mail-2" viewBox="0 0 21 16" fill="none">
            <path d="M2.6 1H18.4C18.8243 1 19.2313 1.16857 19.5314 1.46863C19.8314 1.76869 20 2.17565 20 2.6V13.8C20 14.2243 19.8314 14.6313 19.5314 14.9314C19.2313 15.2314 18.8243 15.4 18.4 15.4H2.6C2.17565 15.4 1.76869 15.2314 1.46863 14.9314C1.16857 14.6313 1 14.2243 1 13.8V2.6C1 2.17565 1.16857 1.76869 1.46863 1.46863C1.76869 1.16857 2.17565 1 2.6 1V1Z" stroke-linecap="round" stroke-linejoin="round"/>
            <path d="M19.8201 1.87L12.5001 9.18C11.9656 9.70283 11.2477 9.99559 10.5001 9.99559C9.75241 9.99559 9.03449 9.70283 8.50005 9.18L1.18005 1.87" stroke-linecap="round" stroke-linejoin="round"/>
            <path d="M7.85997 8.54L1.46997 14.93L7.85997 8.54Z" stroke-linecap="round" stroke-linejoin="round"/>
            <path d="M19.53 14.93L13.14 8.55" stroke-linecap="round" stroke-linejoin="round"/>
        </symbol>
        <symbol id="svg-icon-close-search" viewBox="0 0 14 14" xmlns="http://www.w3.org/2000/svg">
            <rect width="18.3935" height="1.168" transform="matrix(0.698416 0.715692 -0.698416 0.715692 1.15369 0)" stroke="none" />
            <rect width="18.3935" height="1.168" transform="matrix(0.698416 -0.715692 0.698416 0.715692 0 13.1641)" stroke="none" />
        </symbol>
        <symbol id="svg-icon-skype" viewBox="0 0 20 20" xmlns="http://www.w3.org/2000/svg">
            <g clip-path="url(#clip0)">
                <path d="M18.7873 12C18.9085 11.394 19.0297 10.7879 19.0297 10.0606C19.0297 9.8182 19.0297 9.57578 19.0297 9.45456C18.6661 4.8485 14.7873 1.21214 10.06 1.21214C9.57517 1.21214 9.09032 1.21214 8.48426 1.33335C7.75698 0.848503 6.78729 0.606079 5.81759 0.606079C2.9085 0.606079 0.605469 2.90911 0.605469 5.69699C0.605469 6.66669 0.847893 7.51517 1.33274 8.24244C1.21153 8.60608 1.21153 8.96972 1.21153 9.33335C1.21153 9.57578 1.21153 9.8182 1.21153 10.1818C1.21153 15.0303 5.21153 19.0303 10.1812 19.0303C10.7873 19.0303 11.2721 19.0303 11.8782 18.9091C12.6055 19.2727 13.454 19.5152 14.3024 19.5152C17.2115 19.5152 19.5146 17.2121 19.5146 14.4243C19.3933 13.4546 19.1509 12.6061 18.7873 12Z" stroke="#FF6600" stroke-width="0.9921" stroke-miterlimit="22.9256" stroke-linecap="round" stroke-linejoin="round"/>
                <path d="M6.06055 12.6061C7.39388 16.7273 13.8181 15.394 13.9393 12.6061C14.0605 8.96971 6.06055 10.4243 6.42418 7.03032C6.66661 4.48487 11.7575 3.51517 13.5757 6.7879" stroke="#FF6600" stroke-width="0.9921" stroke-miterlimit="22.9256" stroke-linecap="round" stroke-linejoin="round"/>
            </g>
            <defs>
                <clipPath id="clip0">
                    <rect width="20" height="20" fill="white"/>
                </clipPath>
            </defs>
        </symbol>
    </defs>
</svg>