<svg width="37" height="38" viewBox="0 0 37 38" fill="none" xmlns="http://www.w3.org/2000/svg">
<path d="M20.2582 1.00012L21.2531 4.67303L24.6059 5.77353L27.5635 3.37995L30.412 5.47089L29.0763 9.0475L31.148 11.9226L34.9233 11.7437L36 15.1277L32.8516 17.2187V20.7678L36 22.8587L34.9233 26.2565L31.148 26.0639L29.0763 28.939L30.412 32.5156L27.5635 34.6065L24.6059 32.213L21.2531 33.3135L20.2582 37.0001H16.7418L15.7469 33.3135L12.3941 32.213L9.45016 34.6065L6.58801 32.5156L7.92368 28.939L5.86565 26.0639L2.07671 26.2428L1 22.8587L4.14836 20.7678V17.2187L1 15.1277L2.07671 11.7437L5.86565 11.9226L7.92368 9.0475L6.58801 5.47089L9.45016 3.37995L12.3941 5.77353L15.7469 4.67303L16.7418 1.00012H20.2582Z" stroke="white" stroke-width="0.99" stroke-linecap="round" stroke-linejoin="round"/>
<path d="M18.5 9.04755C20.4489 9.04755 22.3541 9.63085 23.9745 10.7237C25.595 11.8166 26.858 13.3699 27.6038 15.1872C28.3497 17.0046 28.5448 19.0043 28.1646 20.9336C27.7844 22.8629 26.8459 24.635 25.4678 26.026C24.0897 27.4169 22.3339 28.3642 20.4224 28.7479C18.5109 29.1317 16.5296 28.9347 14.729 28.1819C12.9284 27.4292 11.3895 26.1544 10.3067 24.5188C9.22392 22.8833 8.646 20.9604 8.646 18.9933C8.646 16.3555 9.68418 13.8258 11.5322 11.9606C13.3801 10.0954 15.8865 9.04755 18.5 9.04755V9.04755Z" stroke="white" stroke-width="0.99" stroke-linecap="round" stroke-linejoin="round"/>
<path d="M18.5 25.7888V28.939" stroke="white" stroke-width="0.99" stroke-linecap="round" stroke-linejoin="round"/>
<path d="M18.5 9.04755V12.1977" stroke="white" stroke-width="0.99" stroke-linecap="round" stroke-linejoin="round"/>
<path d="M14.9836 23.5328C15.3151 24.1598 15.8202 24.6758 16.4374 25.0178C17.0546 25.3598 17.7571 25.513 18.4591 25.4587C21.8119 25.4587 24.7967 20.3139 17.9139 18.8007C13.0755 17.7414 14.7383 12.5278 18.4591 12.5278C19.1631 12.4726 19.8678 12.6252 20.4873 12.9672C21.1069 13.3092 21.6145 13.8256 21.9482 14.4537" stroke="white" stroke-width="0.99" stroke-linecap="round" stroke-linejoin="round"/>
</svg>
