<svg width="14" height="9" viewBox="0 0 14 9" fill="none" xmlns="http://www.w3.org/2000/svg">
<path d="M13.244 4.513L9.254 8.503L8.827 8.062C8.73367 7.96867 8.69633 7.87533 8.715 7.782C8.73833 7.68867 8.78967 7.6 8.869 7.516L10.878 5.521C10.9853 5.409 11.088 5.30867 11.186 5.22C11.2887 5.13133 11.3867 5.052 11.48 4.982C11.242 5.01467 10.9923 5.04033 10.731 5.059C10.4743 5.073 10.2107 5.08 9.94 5.08H0.826V3.939H9.94C10.2153 3.939 10.4813 3.94833 10.738 3.967C10.9993 3.98567 11.2467 4.01133 11.48 4.044C11.3867 3.96933 11.291 3.88767 11.193 3.799C11.095 3.71033 10.99 3.61 10.878 3.498L8.855 1.489C8.771 1.405 8.71967 1.31633 8.701 1.223C8.68233 1.12967 8.71733 1.03633 8.806 0.943L9.24 0.495L13.244 4.513Z" fill="#999999"/>
</svg>
