<svg width="16" height="19" viewBox="0 0 16 19" fill="none" xmlns="http://www.w3.org/2000/svg">
<path fill-rule="evenodd" clip-rule="evenodd" d="M0.333252 6.08105H15.4999V19.0001H0.333252V6.08105Z" fill="#FF6600"/>
<path d="M7.91648 6.08098C7.64998 4.09214 7.39962 2.97132 6.49511 2.03589C5.5906 1.10046 4.3146 0.906633 3.63622 1.61452C2.95784 2.32242 3.13551 3.63707 4.04002 4.59778C4.94453 5.55849 6.01055 5.80288 7.91648 6.08098Z" stroke="#FF6600" stroke-width="1.56" stroke-linecap="round" stroke-linejoin="round"/>
<path d="M7.9165 6.08098C8.19109 4.09214 8.44144 2.97132 9.34595 2.03589C10.2505 1.10046 11.5022 0.906633 12.2048 1.61452C12.9075 2.32242 12.6975 3.65393 11.801 4.59778C10.9046 5.54164 9.83051 5.80288 7.9165 6.08098Z" stroke="#FF6600" stroke-width="1.56" stroke-linecap="round" stroke-linejoin="round"/>
<path d="M7.27864 11.2215C7.46439 11.2215 7.5613 11.2215 7.69052 11.2215H8.07816C8.4446 11.2163 8.80879 11.282 9.15227 11.4153C9.454 11.5276 9.72932 11.7058 9.95986 11.9378C10.1723 12.1591 10.3351 12.4267 10.4363 12.7216C10.5441 13.0264 10.5988 13.3489 10.5979 13.6739C10.6029 14.0758 10.5287 14.4745 10.3798 14.8453C10.239 15.1907 10.033 15.5031 9.77412 15.7638C9.50261 16.0193 9.18758 16.2194 8.84538 16.3537C8.46782 16.4979 8.0683 16.5693 7.66629 16.5644C7.42431 16.567 7.18293 16.5387 6.94753 16.4801C6.73051 16.4314 6.51927 16.3579 6.3176 16.261C6.125 16.1732 5.94107 16.0659 5.76844 15.9408C5.60476 15.8223 5.45079 15.6898 5.30811 15.5447L5.80882 14.8453C5.85633 14.7738 5.92017 14.7159 5.99456 14.6767C6.05179 14.6329 6.11825 14.604 6.18839 14.5924C6.29435 14.5935 6.39789 14.6256 6.4872 14.6851L6.79408 14.879C6.91511 14.9601 7.04532 15.0252 7.18173 15.0728C7.35502 15.1384 7.53851 15.1699 7.72282 15.1655C7.91466 15.1698 8.10501 15.1295 8.28006 15.0475C8.42711 14.9779 8.55695 14.8742 8.65963 14.7441C8.75806 14.6086 8.82946 14.4539 8.86961 14.2891C8.91194 14.1069 8.93362 13.9203 8.93421 13.7329C8.93925 13.5774 8.91392 13.4226 8.85978 13.2777C8.80563 13.1328 8.72379 13.0009 8.61925 12.8901C8.36849 12.6733 8.04778 12.5648 7.72282 12.5867C7.37718 12.5878 7.03478 12.6564 6.71332 12.789L5.70383 12.5025L6.35798 8.49951H10.2829V9.2074C10.2812 9.31668 10.2621 9.4249 10.2264 9.52764C10.1928 9.6218 10.1373 9.70578 10.0649 9.77203C9.97572 9.84643 9.87451 9.90352 9.76604 9.94058C9.62101 9.97998 9.47173 9.9998 9.32186 9.99957H7.46439L7.27864 11.2215Z" fill="white"/>
</svg>
