<svg width="15" height="19" viewBox="0 0 15 19" fill="none" xmlns="http://www.w3.org/2000/svg">
<path d="M7.5 1C9.22391 1 10.8772 1.6947 12.0962 2.93127C13.3152 4.16784 14 5.845 14 7.59377C13.8889 9.2841 13.358 10.9184 12.4566 12.3445C11.3444 14.2467 10.0152 16.0094 8.49661 17.5963C8.37121 17.7242 8.2221 17.8258 8.05788 17.895C7.89366 17.9643 7.71755 18 7.53969 18C7.36183 18 7.18572 17.9643 7.0215 17.895C6.85727 17.8258 6.70817 17.7242 6.58277 17.5963V17.5963C5.04914 16.0137 3.70784 14.2506 2.58752 12.3445C1.67055 10.9227 1.12432 9.28812 1 7.59377C1 5.845 1.68482 4.16784 2.90381 2.93127C4.12279 1.6947 5.77609 1 7.5 1V1Z" stroke="#999999" stroke-linecap="round" stroke-linejoin="round"/>
<path d="M7.50021 4.3103C8.14038 4.3103 8.76618 4.50288 9.29846 4.86367C9.83075 5.22446 10.2456 5.73727 10.4906 6.33724C10.7356 6.93722 10.7997 7.59741 10.6748 8.23434C10.5499 8.87127 10.2416 9.45633 9.78895 9.91553C9.33628 10.3747 8.75955 10.6875 8.13167 10.8141C7.5038 10.9408 6.85299 10.8758 6.26155 10.6273C5.67011 10.3788 5.1646 9.95793 4.80893 9.41797C4.45327 8.878 4.26344 8.24318 4.26344 7.59377C4.26228 7.16225 4.3452 6.73475 4.50745 6.33585C4.6697 5.93694 4.90808 5.57451 5.20887 5.26938C5.50967 4.96424 5.86695 4.72243 6.26018 4.55784C6.65341 4.39325 7.07483 4.30912 7.50021 4.3103V4.3103Z" stroke="#999999" stroke-linecap="round" stroke-linejoin="round"/>
</svg>
