<svg width="27" height="27" viewBox="0 0 27 27" fill="none" xmlns="http://www.w3.org/2000/svg">
<path d="M10.2578 1C12.0888 1 13.8787 1.54752 15.4012 2.57333C16.9236 3.59914 18.1102 5.05717 18.8109 6.76303C19.5116 8.46889 19.6949 10.346 19.3377 12.1569C18.9805 13.9678 18.0988 15.6313 16.8041 16.9369C15.5093 18.2425 13.8598 19.1316 12.0639 19.4918C10.2681 19.8521 8.40664 19.6672 6.715 18.9606C5.02335 18.254 3.57748 17.0574 2.56022 15.5222C1.54296 13.987 0.999994 12.182 0.999994 10.3356C0.999994 7.85965 1.97537 5.4851 3.71155 3.73434C5.44772 1.98357 7.80248 1 10.2578 1V1Z" stroke="white" stroke-linecap="round" stroke-linejoin="round"/>
<path d="M26 26L17.0547 16.9796" stroke="white" stroke-linecap="round" stroke-linejoin="round"/>
<path d="M14.8145 10.3356H5.69987" stroke="white" stroke-linecap="round" stroke-linejoin="round"/>
<path d="M10.2578 6.04199V14.616" stroke="white" stroke-linecap="round" stroke-linejoin="round"/>
</svg>
