<svg width="34" height="26" viewBox="0 0 34 26" fill="none" xmlns="http://www.w3.org/2000/svg">
<path d="M4.76489 3.76725L2.51489 4.80473C2.38857 4.86914 2.25105 4.90655 2.11052 4.91472C1.96999 4.9229 1.8293 4.90167 1.69683 4.85231C1.56437 4.80295 1.44281 4.72646 1.33941 4.62739C1.236 4.52832 1.15284 4.40869 1.09489 4.27562C1.03633 4.14628 1.00415 4.00579 1.00038 3.86295C0.996599 3.72011 1.0213 3.578 1.07294 3.44553C1.12458 3.31306 1.20203 3.19309 1.30045 3.09313C1.39887 2.99317 1.51614 2.91538 1.64489 2.86463L3.95489 1.82715L4.76489 3.76725Z" stroke="#999999" stroke-linecap="round" stroke-linejoin="round"/>
<path d="M10.6548 5.28173C11.8148 4.67998 12.4648 4.90823 13.7248 5.28173L17.1248 6.39184C18.6148 7.05583 19.8748 7.82357 19.8648 9.65992C20.8363 8.31092 22.1477 7.26622 23.6548 6.64083C27.3517 7.6515 30.6327 9.87956 33.0048 12.9902C33.0048 16.6214 33.2648 20.5224 29.0048 21.0619L23.3648 19.7443C23.3797 19.5163 23.3797 19.2875 23.3648 19.0595C23.3638 17.9241 23.0388 16.8144 22.4306 15.8704C21.8224 14.9264 20.9584 14.1905 19.9475 13.7554C18.9366 13.3204 17.8241 13.2057 16.7505 13.4259C15.6768 13.6461 14.6901 14.1912 13.9148 14.9926L11.4148 12.3574C12.7177 11.0004 14.3888 10.0883 16.2048 9.74291L10.1348 5.65522L10.6548 5.28173V5.28173Z" stroke="#999999" stroke-linecap="round" stroke-linejoin="round"/>
<path d="M3.70508 1.17334L5.01508 4.37917M29.0251 21.0723V24.7969V21.0723ZM4.36508 2.79182C4.67739 2.66659 5.01501 2.62472 5.34697 2.67003C5.67893 2.71535 5.99462 2.84641 6.26508 3.05119L16.2051 9.74297L4.36508 2.79182Z" stroke="#999999" stroke-linecap="round" stroke-linejoin="round"/>
<path d="M17.865 15.8434C18.4781 15.8434 19.0774 16.0321 19.5872 16.3855C20.097 16.7389 20.4944 17.2412 20.729 17.8289C20.9636 18.4165 21.025 19.0632 20.9054 19.6871C20.7858 20.311 20.4905 20.884 20.057 21.3338C19.6234 21.7836 19.0711 22.0899 18.4697 22.214C17.8684 22.3381 17.2451 22.2745 16.6786 22.031C16.1122 21.7876 15.628 21.3754 15.2874 20.8465C14.9468 20.3176 14.765 19.6957 14.765 19.0596C14.7636 18.6369 14.8429 18.2181 14.9982 17.8272C15.1536 17.4364 15.3819 17.0813 15.67 16.7824C15.9581 16.4835 16.3004 16.2466 16.6771 16.0855C17.0538 15.9243 17.4575 15.8421 17.865 15.8434V15.8434ZM17.865 13.312C18.9611 13.3099 20.0332 13.6453 20.9455 14.2756C21.8579 14.9059 22.5695 15.8028 22.9904 16.8529C23.4112 17.903 23.5224 19.059 23.3097 20.1746C23.0971 21.2902 22.5703 22.3153 21.7959 23.1202C21.0215 23.925 20.0344 24.4735 18.9594 24.6961C17.8845 24.9187 16.7701 24.8055 15.7572 24.3708C14.7443 23.9361 13.8785 23.1994 13.2693 22.254C12.6601 21.3085 12.335 20.1969 12.335 19.0596C12.335 17.5371 12.9173 16.0767 13.9541 14.9991C14.9908 13.9215 16.3974 13.3147 17.865 13.312V13.312ZM29.515 9.50439C26.665 10.3863 26.515 13.7373 33.055 13.0007C32.0172 11.6895 30.8283 10.5153 29.515 9.50439V9.50439Z" stroke="#999999" stroke-linecap="round" stroke-linejoin="round"/>
<path d="M32.5146 18.3436H28.5146M32.9746 15.8433H28.5146H32.9746Z" stroke="#999999" stroke-linecap="round" stroke-linejoin="round"/>
</svg>
