<svg width="16" height="20" viewBox="0 0 16 20" fill="none" xmlns="http://www.w3.org/2000/svg">
<path d="M11.328 6.74315C11.8224 6.50164 12.2716 6.17691 12.656 5.78315C13.92 4.51915 14.112 2.65515 13.088 1.63115C12.8116 1.36741 12.4776 1.17157 12.1124 1.05911C11.7472 0.946643 11.3609 0.920641 10.984 0.983154C10.2052 1.115 9.48817 1.4903 8.936 2.05515C8.55081 2.44142 8.23427 2.89052 8 3.38315C7.76264 2.90187 7.44625 2.4638 7.064 2.08715C5.784 0.799154 4 0.615154 2.912 1.65515C2.64967 1.93234 2.45531 2.26667 2.34425 2.63179C2.23318 2.99691 2.20845 3.38284 2.272 3.75915C2.40862 4.52942 2.78358 5.23736 3.344 5.78315C3.72837 6.17691 4.17758 6.50164 4.672 6.74315H0V19.7992H16V6.74315H11.328ZM10.064 3.21515C10.3665 2.88986 10.7641 2.66863 11.2 2.58315H11.392C11.5947 2.57745 11.792 2.64894 11.944 2.78315C12.288 3.12715 12.2 3.98315 11.52 4.66315C10.8126 5.30723 9.9131 5.70078 8.96 5.78315C9.03966 4.83005 9.42715 3.92872 10.064 3.21515ZM4.464 4.67115C4.13953 4.36822 3.92554 3.96558 3.856 3.52715C3.82678 3.39864 3.82821 3.26506 3.86018 3.1372C3.89214 3.00934 3.95374 2.8908 4.04 2.79115C4.19482 2.65016 4.39874 2.57548 4.608 2.58315C5.11497 2.61053 5.59133 2.83436 5.936 3.20715C6.57444 3.92285 6.96204 4.82725 7.04 5.78315C6.08507 5.70473 5.18256 5.31392 4.472 4.67115H4.464ZM10.864 15.1192C10.8641 15.1622 10.8553 15.2049 10.8382 15.2444C10.821 15.2839 10.7959 15.3194 10.7643 15.3487C10.7327 15.378 10.6954 15.4005 10.6548 15.4147C10.6141 15.4289 10.5709 15.4345 10.528 15.4312H10.032V17.2872H8.56V15.4312H5.312C5.2055 15.4323 5.10155 15.3986 5.016 15.3352C4.93359 15.2754 4.87652 15.1869 4.856 15.0872L4.68 14.2392L8.416 9.21515H10.056V14.1512H10.856L10.864 15.1192Z" fill="#FF6600"/>
<path d="M8.56008 14.1512V12.0472C8.55258 11.9059 8.55258 11.7644 8.56008 11.6232C8.56008 11.4792 8.56008 11.3192 8.56008 11.1592L6.48008 14.1512H8.56008Z" fill="#FF6600"/>
</svg>
