<svg width="26" height="29" viewBox="0 0 26 29" fill="none" xmlns="http://www.w3.org/2000/svg">
<path d="M13.0145 1L25 4.54331V15.0173C25 22.4299 19.8655 25.789 13 28C6.09091 25.7181 1 22.3591 1 14.9465V4.54331L13.0145 1ZM13.0145 6.13071C14.3379 6.20392 15.5802 6.77576 16.4787 7.72532C17.3772 8.67488 17.8614 9.92771 17.8291 11.2189C17.8291 13.8976 15.6764 17.3984 13.0145 17.3984C10.3527 17.3984 8.2 13.8976 8.2 11.2189C8.16766 9.92771 8.65193 8.67488 9.55043 7.72532C10.4489 6.77576 11.6912 6.20392 13.0145 6.13071V6.13071ZM9.20364 19.3827C6.95237 19.5337 4.82438 20.4403 3.18182 21.948C5.30545 24.7827 8.85455 26.5827 13.0436 27.9291C17.2327 26.5827 20.7818 24.811 22.9055 21.948C21.254 20.4363 19.1154 19.5296 16.8545 19.3827C15.7967 20.2762 14.4436 20.7681 13.0436 20.7681C11.6436 20.7681 10.2906 20.2762 9.23273 19.3827H9.20364Z" stroke="#999999" stroke-width="1.2" stroke-linejoin="round"/>
</svg>
