<svg width="22" height="22" viewBox="0 0 22 22" fill="none" xmlns="http://www.w3.org/2000/svg">
<path d="M5.00031 6.48421C5.00307 7.01379 5.21468 7.52089 5.58915 7.89536C5.96363 8.26984 6.47073 8.48144 7.00031 8.48421C7.52989 8.48144 8.03699 8.26984 8.41147 7.89536C8.78594 7.52089 8.99755 7.01379 9.00031 6.48421C9.00308 7.01379 9.21468 7.52089 9.58915 7.89536C9.96363 8.26984 10.4707 8.48144 11.0003 8.48421V8.48421C11.5299 8.48144 12.037 8.26984 12.4115 7.89536C12.7859 7.52089 12.9975 7.01379 13.0003 6.48421C13.0031 7.01379 13.2147 7.52089 13.5892 7.89536C13.9636 8.26984 14.4707 8.48144 15.0003 8.48421V8.48421C15.5299 8.48144 16.037 8.26984 16.4115 7.89536C16.7859 7.52089 16.9975 7.01379 17.0003 6.48421C17.0031 7.01379 17.2147 7.52089 17.5892 7.89536C17.9636 8.26984 18.4707 8.48144 19.0003 8.48421V8.48421C19.2914 8.48243 19.5786 8.41779 19.8424 8.29473V21H2.1582V8.29473C2.4202 8.42294 2.70865 8.48784 3.00031 8.48421C3.52989 8.48144 4.03699 8.26984 4.41147 7.89536C4.78594 7.52089 4.99754 7.01379 5.00031 6.48421V6.48421Z" stroke="#999999" stroke-width="1.2" stroke-linecap="round" stroke-linejoin="round"/>
<path d="M1 1H5V6.48421C4.99724 7.01379 4.78563 7.52089 4.41116 7.89537C4.03668 8.26984 3.52958 8.48144 3 8.48421V8.48421C2.47042 8.48144 1.96332 8.26984 1.58884 7.89537C1.21437 7.52089 1.00277 7.01379 1 6.48421V1Z" stroke="#999999" stroke-width="1.2" stroke-linecap="round" stroke-linejoin="round"/>
<path d="M9 1H5V6.48421C5.00277 7.01379 5.21437 7.52089 5.58884 7.89537C5.96332 8.26984 6.47042 8.48144 7 8.48421C7.52958 8.48144 8.03668 8.26984 8.41116 7.89537C8.78563 7.52089 8.99724 7.01379 9 6.48421V1Z" stroke="#999999" stroke-width="1.2" stroke-linecap="round" stroke-linejoin="round"/>
<path d="M9 1H13V6.48421C12.9972 7.01379 12.7856 7.52089 12.4112 7.89537C12.0367 8.26984 11.5296 8.48144 11 8.48421C10.4704 8.48144 9.96332 8.26984 9.58884 7.89537C9.21437 7.52089 9.00277 7.01379 9 6.48421V1Z" stroke="#999999" stroke-width="1.2" stroke-linecap="round" stroke-linejoin="round"/>
<path d="M17 1H13V6.48421C13.0028 7.01379 13.2144 7.52089 13.5888 7.89537C13.9633 8.26984 14.4704 8.48144 15 8.48421V8.48421C15.5296 8.48144 16.0367 8.26984 16.4112 7.89537C16.7856 7.52089 16.9972 7.01379 17 6.48421V1V1Z" stroke="#999999" stroke-width="1.2" stroke-linecap="round" stroke-linejoin="round"/>
<path d="M17 1H21V6.48421C20.9972 7.01379 20.7856 7.52089 20.4112 7.89537C20.0367 8.26984 19.5296 8.48144 19 8.48421V8.48421C18.4704 8.48144 17.9633 8.26984 17.5888 7.89537C17.2144 7.52089 17.0028 7.01379 17 6.48421V1V1Z" stroke="#999999" stroke-width="1.2" stroke-linecap="round" stroke-linejoin="round"/>
<path d="M5.40039 11.8737H9.47408V16.9579H5.40039V11.8737Z" stroke="#999999" stroke-width="1.2" stroke-linecap="round" stroke-linejoin="round"/>
<path d="M12.5254 11.8737H16.5991V21H12.5254V11.8737Z" stroke="#999999" stroke-width="1.2" stroke-linecap="round" stroke-linejoin="round"/>
</svg>
