<svg width="36" height="37" viewBox="0 0 29 30" fill="none" xmlns="http://www.w3.org/2000/svg">
<path d="M14.3873 1L27.7634 4.65767V15.6845C27.7634 23.5162 22.0469 27.0556 14.3873 29.3793C6.71658 27.0556 0.988786 23.5162 1.00002 15.6845V4.65767L14.3873 1Z" stroke="#FF6600" stroke-width="1.09125" stroke-linejoin="round"/>
<path d="M19.5313 15.1789L16.6225 12.3818M15.9262 15.7598L8.41265 22.9568L15.9262 15.7598ZM14.5223 14.4473L21.2609 7.99261C21.6479 7.62537 22.1706 7.41935 22.7153 7.41935C23.26 7.41935 23.7827 7.62537 24.1697 7.99261C24.5538 8.36511 24.7692 8.86758 24.7692 9.39113C24.7692 9.91468 24.5538 10.4172 24.1697 10.7897L17.4311 17.2444L14.5223 14.4473ZM12.5681 12.5539C12.8248 11.8269 12.8521 11.0435 12.6467 10.3017C12.4413 9.55988 12.0122 8.89248 11.4131 8.38287C10.814 7.87327 10.0714 7.54407 9.27811 7.43639C8.4848 7.32872 7.67595 7.44734 6.95262 7.77745L10.0973 10.7574L9.69298 12.2958L8.09818 12.683L4.9872 9.69235C4.64258 10.3852 4.51873 11.16 4.63115 11.9199C4.74356 12.6798 5.08724 13.3911 5.61925 13.965C6.15126 14.5388 6.84802 14.9498 7.62248 15.1466C8.39693 15.3434 9.21475 15.3172 9.97375 15.0713L18.2397 22.9891L18.543 22.6986L20.7892 20.547L12.5681 12.5539Z" stroke="#FF6600" stroke-width="1.09125" stroke-linecap="round" stroke-linejoin="round"/>
</svg>
