<svg width="33" height="34" viewBox="0 0 33 34" fill="none" xmlns="http://www.w3.org/2000/svg">
<path d="M18.0271 1L18.9068 4.23604L21.8711 5.20563L24.4861 3.09676L27.0046 4.93899L25.8236 8.09019L27.6553 10.6233L30.9932 10.4657L31.9452 13.4472L29.1616 15.2895V18.4164L31.9452 20.2586L30.9932 23.2523L27.6553 23.0826L25.8236 25.6157L27.0046 28.7669L24.4861 30.6091L21.8711 28.5002L18.9068 29.4698L18.0271 32.718H14.9181L14.0384 29.4698L11.0741 28.5002L8.47119 30.6091L5.94063 28.7669L7.12156 25.6157L5.30196 23.0826L1.95197 23.2402L1 20.2586L3.78362 18.4164V15.2895L1 13.4472L1.95197 10.4657L5.30196 10.6233L7.12156 8.09019L5.94063 4.93899L8.47119 3.09676L11.0741 5.20563L14.0384 4.23604L14.9181 1H18.0271Z" stroke="#999999" stroke-width="1.09125" stroke-linecap="round" stroke-linejoin="round"/>
<path d="M16.4724 8.09033C18.1955 8.09033 19.88 8.60426 21.3127 9.56712C22.7455 10.53 23.8622 11.8985 24.5216 13.4997C25.181 15.1009 25.3535 16.8628 25.0174 18.5626C24.6812 20.2624 23.8514 21.8238 22.633 23.0493C21.4145 24.2748 19.8621 25.1093 18.1721 25.4475C16.482 25.7856 14.7303 25.612 13.1383 24.9488C11.5463 24.2856 10.1856 23.1624 9.22831 21.7214C8.27098 20.2804 7.76001 18.5862 7.76001 16.8531C7.76001 14.5291 8.67792 12.3002 10.3118 10.6569C11.9457 9.01355 14.1617 8.09033 16.4724 8.09033V8.09033Z" stroke="#999999" stroke-width="1.09125" stroke-linecap="round" stroke-linejoin="round"/>
<path d="M16.4724 22.8402V25.6157" stroke="#999999" stroke-width="1.09125" stroke-linecap="round" stroke-linejoin="round"/>
<path d="M16.4724 8.09033V10.8658" stroke="#999999" stroke-width="1.09125" stroke-linecap="round" stroke-linejoin="round"/>
<path d="M13.3638 20.8526C13.6568 21.405 14.1034 21.8596 14.6491 22.1609C15.1948 22.4622 15.8159 22.5972 16.4366 22.5494C19.401 22.5494 22.04 18.0165 15.9546 16.6833C11.6767 15.7501 13.1469 11.1566 16.4366 11.1566C17.059 11.1079 17.6821 11.2424 18.2299 11.5437C18.7776 11.845 19.2264 12.3 19.5215 12.8534" stroke="#999999" stroke-width="1.09125" stroke-linecap="round" stroke-linejoin="round"/>
</svg>
