<svg width="21" height="21" viewBox="0 0 21 21" fill="none" xmlns="http://www.w3.org/2000/svg">
<g clip-path="url(#clip0)">
<path d="M7.83443 19.1151C6.92633 19.1151 5.99162 19.0415 5.05131 18.8941C3.39515 18.6342 1.71864 17.7679 1.24424 17.5086L0 16.8283L1.3471 16.3853C2.81965 15.9011 3.71542 15.6007 4.82428 15.1303C3.71398 14.5926 2.85826 13.6254 2.44635 12.375L2.13296 11.4237L2.38995 11.4629C2.14626 11.2173 1.95384 10.968 1.80468 10.7413C1.2742 9.93556 0.993343 8.95103 1.0531 8.10732L1.11206 7.27692L1.60922 7.4695C1.39949 7.07344 1.24793 6.65047 1.15885 6.20715C0.941754 5.126 1.12344 3.9774 1.67058 2.973L2.10364 2.178L2.68283 2.87366C4.51458 5.07409 6.83468 6.37938 9.58833 6.7615C9.47585 5.98621 9.56013 5.23799 9.83906 4.56732C10.1638 3.78642 10.7416 3.12424 11.5093 2.65224C12.362 2.12817 13.396 1.87423 14.4209 1.93719C15.5083 2.004 16.4956 2.41144 17.2797 3.11623C17.6626 3.01674 17.9447 2.91051 18.3261 2.76696C18.5555 2.6806 18.8157 2.58255 19.1412 2.4704L20.3409 2.05704L19.5586 4.29143C19.6102 4.2871 19.6634 4.28342 19.719 4.28101L21.0001 4.22301L20.2429 5.25786C20.1995 5.31714 20.1884 5.33396 20.173 5.35719C20.112 5.44916 20.0361 5.56355 18.9967 6.95135C18.7365 7.29887 18.6066 7.75148 18.6308 8.22604C18.7229 10.0294 18.5017 11.6611 17.9728 13.0755C17.4726 14.4136 16.6975 15.5618 15.6692 16.488C14.3967 17.6338 12.7742 18.4184 10.8465 18.8196C9.90091 19.0164 8.88546 19.1151 7.83443 19.1151Z" fill="#DCDCDC"/>
</g>
<defs>
<clipPath id="clip0">
<rect width="21" height="21" fill="white"/>
</clipPath>
</defs>
</svg>
