<svg width="68" height="48" viewBox="0 0 68 48" fill="none" xmlns="http://www.w3.org/2000/svg">
<path opacity="0.4" d="M66.825 7.6243C65.9925 4.00793 63.0345 1.33987 59.4736 0.941875C51.0412 0.000579716 42.5064 -0.00433358 34.0109 0.00057997C25.514 -0.00433358 16.9777 0.000579716 8.54536 0.941875C4.98655 1.33987 2.0307 4.00793 1.1982 7.6243C0.0133368 12.7744 0 18.3962 0 23.6986C0 29.001 0 34.6221 1.18487 39.7715C2.01596 43.3872 4.97251 46.0553 8.53343 46.454C16.9651 47.396 25.5006 47.4009 33.9975 47.396C42.4959 47.4009 51.0293 47.396 59.4603 46.454C63.0191 46.056 65.9777 43.3879 66.8102 39.7715C67.9958 34.6214 68 29.0003 68 23.6986C68 18.3962 68.0098 12.7744 66.825 7.6243ZM25.2248 34.2529C25.2248 26.731 25.2248 19.2877 25.2248 11.765C32.4315 15.5253 39.5906 19.2603 46.843 23.0437C39.613 26.7935 32.4505 30.506 25.2248 34.2529Z" fill="black"/>
</svg>
